<?xml version="1.0" encoding="utf-8"?>
<!-- Generator: Adobe Illustrator 27.1.1, SVG Export Plug-In . SVG Version: 6.00 Build 0)  -->
<svg version="1.1" id="Layer_1" xmlns="http://www.w3.org/2000/svg" xmlns:xlink="http://www.w3.org/1999/xlink" x="0px" y="0px"
	 viewBox="0 0 3320.47 914.82" style="enable-background:new 0 0 3320.47 914.82;" xml:space="preserve">
<style type="text/css">
	.st0{display:none;}
	.st1{display:inline;fill:#FFFFFF;}
	.st2{display:inline;}
	.st3{fill:#FFFFFF;}
	.st4{display:none;fill:#FFFFFF;}
</style>
<g class="st0">
	<path class="st1" d="M885.07-131.81c2.23-0.14,3.88-0.32,5.53-0.33c17.28-0.02,34.56,0.07,51.84-0.09
		c3.65-0.03,5.52,0.88,7.04,4.56c14.85,36.05,49.53,58.29,88.35,57.01c37.9-1.26,71.34-25.82,83.58-62.18
		c2.95-8.76,3.85-18.21,4.94-28.01c-37.23,26.27-78.06,34.35-121.8,26.33c-44.3-8.12-77.41-33.49-101.06-71.07
		c-31.88-50.63-29.75-127.56,17.27-180.54c45.03-50.73,136.93-72.16,205.34-20.7c0-9.93,0-19.34,0-29.14c20.53,0,40.34,0,60.97,0
		c0,1.88,0,3.68,0,5.48c0,89.18,0.47,178.35-0.15,267.52c-0.46,66.47-32.97,113.77-92.54,140.95
		C1040.78,2.45,966.06-5.66,916.94-64.92c-15.36-18.54-26.14-39.26-31.24-62.85C885.47-128.86,885.36-129.97,885.07-131.81z
		 M1034.33-192.56c50.77,0.07,91.74-40.65,91.86-91.32c0.12-50.62-40.59-91.37-91.52-91.63c-50.65-0.25-91.7,40.53-91.89,91.29
		C942.58-233.75,983.66-192.63,1034.33-192.56z"/>
	<path class="st1" d="M300.53-396.71c12.84-9.19,24.23-19.25,37.25-26.34c47.07-25.61,108.93-14.05,145.02,25.42
		c22.14,24.21,32.81,52.3,32.71,84.96c-0.19,58.2-0.05,116.4-0.05,174.59c0,1.85,0,3.7,0,5.92c-20.25,0-40.08,0-60.82,0
		c0-2.02,0-4.18,0-6.33c0-58.39,0.08-116.77-0.03-175.16c-0.06-30.61-20.4-55.34-49.75-60.98c-36.34-6.98-71.51,19.91-72.04,56.75
		c-0.85,59.31-0.34,118.64-0.4,177.97c0,2.42,0,4.83,0,7.69c-20.4,0-40.33,0-60.9,0c0-2.84,0-5.42,0-8
		c0-56.88-0.19-113.77,0.09-170.65c0.13-26.14-10.61-45.94-33.53-58.11c-39.72-21.08-88.08,8.08-88.78,53.39
		c-0.48,31.16-0.11,62.33-0.12,93.49c0,27.79,0,55.57,0,83.36c0,2.04,0,4.08,0,6.55c-20.32,0-40.27,0-60.52,0
		c0-101.26,0-202.35,0-303.81c20.1,0,39.91,0,60.42,0c0,4.83,0,9.58,0,15.51c26.12-14.56,53.14-18.46,81.38-14.34
		C258.96-430.66,282.19-416.67,300.53-396.71z"/>
	<path class="st1" d="M1687.58-164.04c0,10.31,0,19.6,0,29.36c-20.33,0-40.11,0-60.47,0c-0.09-1.97-0.27-3.96-0.27-5.96
		c-0.01-137.8,0.03-275.6-0.15-413.4c-0.01-5.81,1.6-7.28,7.22-7.15c15.58,0.36,31.18,0.1,46.77,0.12c2.01,0,4.03,0.19,6.59,0.31
		c0,50.48,0,100.52,0,151.79c46.73-32.4,96.27-38.8,148.34-19.51c33,12.23,57.75,35.39,75.86,65.28
		c31.48,51.98,28.49,130.13-22.54,183.07C1838.59-127.91,1749.08-117.22,1687.58-164.04z M1779.3-194.71
		c51.03,0,92.05-40.91,92.11-91.84c0.06-50.81-41.04-91.89-92.03-92.01c-50.64-0.11-91.91,40.87-91.98,91.36
		C1687.31-235.61,1727.96-194.71,1779.3-194.71z"/>
	<path class="st1" d="M790.43-406.15c0-10.69,0-20.13,0-29.88c20.48,0,40.29,0,60.47,0c0,101.28,0,202.35,0,303.85
		c-19.93,0-39.87,0-60.47,0c0-9.56,0-18.99,0-29.56c-40.71,29.33-84.8,36.47-131.84,24.93c-34.52-8.47-61.5-28.91-82.83-56.9
		c-40.96-53.77-39.55-131.95,3.51-184.99c25.77-31.74,58.54-51.79,99.72-56.44C719.29-439.7,756.53-431.41,790.43-406.15z
		 M698.72-375.5c-50.76,0.07-91.86,41.07-91.68,91.48c0.17,50.78,41.1,91.58,91.73,91.46c50.86-0.12,91.72-40.92,91.65-91.51
		C790.35-334.84,749.5-375.57,698.72-375.5z"/>
	<path class="st1" d="M2618.43-283.33c6.15-8.4,12.33-16.79,18.45-25.21c30.56-42.04,61.15-84.07,91.6-126.2
		c2.35-3.25,4.76-4.49,8.77-4.45c20.09,0.21,40.19,0.09,60.29,0.09c1.65,0,3.3,0,6.24,0c-3.63,5.29-6.59,9.7-9.66,14.03
		c-24.86,35.05-49.68,70.13-74.7,105.06c-2.51,3.5-2.24,6.06-0.43,9.57c28.88,56.22,57.65,112.5,86.44,168.76
		c1.1,2.14,2.14,4.31,3.52,7.08c-2.29,0.15-4.05,0.36-5.81,0.36c-19.35,0.03-38.69-0.12-58.04,0.13c-4.22,0.06-6.22-1.37-8.01-5.07
		c-19.61-40.5-39.41-80.92-59.16-121.35c-0.65-1.34-1.41-2.62-2.49-4.62c-1.31,1.49-2.45,2.58-3.34,3.83
		c-17.51,24.61-35.06,49.21-52.4,73.95c-1.59,2.26-2.54,5.44-2.6,8.22c-0.28,12.76-0.14,25.53-0.15,38.29c0,2.01,0,4.02,0,6.33
		c-20.34,0-39.97,0-60.17,0c-0.11-2.13-0.3-4.13-0.3-6.12c-0.01-137.97,0.01-275.95-0.12-413.92c0-5.1,1.31-6.75,6.54-6.64
		c15.96,0.33,31.93,0.31,47.89,0.02c5.04-0.09,6.25,1.52,6.24,6.41c-0.14,88.04-0.1,176.08-0.1,264.12c0,2.32,0,4.64,0,6.97
		C2617.45-283.56,2617.94-283.44,2618.43-283.33z"/>
	<path class="st1" d="M1540.85-236.54c17.34,10.38,34.38,20.58,51.42,30.79c-28.5,48.47-84.54,82.08-153.38,72.51
		c-67.22-9.35-122.29-66.56-128.71-133.25c-7.03-73,34.43-139.63,101.75-161.81c64.46-21.24,137.75-2.36,180.87,65.6
		c-17.28,10.36-34.54,20.71-51.78,31.05c-37.59-56.53-107.69-53.9-144.16-17.12c-36.02,36.34-36.44,98.8,6.15,135.02
		C1438.33-183.72,1503.13-180.97,1540.85-236.54z"/>
	<path class="st1" d="M2470.18-238.66c17.26,10.34,34.25,20.53,51.24,30.71c-32.56,53.5-93.65,84.37-163.58,70.48
		c-58.69-11.66-119.12-69.49-119.66-147.95c-0.56-80.06,60.37-137.41,116.86-149.64c69.68-15.09,132.72,14.13,166.43,69.8
		c-16.98,10.18-33.97,20.36-51.35,30.78c-19.95-28.39-46.28-44.77-81.64-43.99c-26.62,0.59-48.46,11.49-66.41,30.94
		c-32.16,34.84-32.51,95.81,9.92,131.7C2367.62-185.71,2432.36-183.39,2470.18-238.66z"/>
	<path class="st1" d="M3044.54-408.75c-9.36,17.44-18.3,34.1-27.39,51.02c-9.95-5.02-19.46-10.18-29.28-14.68
		c-19.43-8.9-39.52-15.49-61.32-14.08c-5.2,0.34-10.52,1.11-15.46,2.69c-19,6.08-24.61,28.23-10.37,42.28
		c5.21,5.14,11.76,9.64,18.53,12.38c21.19,8.56,42.79,16.09,64.19,24.12c9.47,3.55,19,7.01,28.23,11.13
		c21.16,9.46,32.9,26.2,35.71,48.97c4.8,38.78-7.99,72.2-44.96,93.69c-14.98,8.7-31.69,12.29-48.69,14.79
		c-33.79,4.98-65.04-4.46-95.86-16.44c-8.73-3.39-17.26-7.27-26.23-11.08c0.74-1.71,1.23-3.07,1.89-4.34
		c7.58-14.44,15.31-28.81,22.72-43.35c1.77-3.47,3.31-3.72,6.92-2.5c20.58,6.92,41.15,13.93,62.02,19.89
		c10.96,3.13,22.52,4.27,34.01,1.82c14.71-3.14,23.72-12.55,27.65-26.6c2.41-8.6-1.48-15.8-7.74-21.67
		c-9.92-9.3-22.1-14.67-34.54-19.58c-24.4-9.63-48.86-19.13-73.18-28.95c-23.25-9.39-34.24-28.08-39.73-51.6
		c-8.73-37.41,15.1-89.79,70.5-98.5c43.35-6.82,83.92,1.4,122.84,20.34C3031.37-415.9,3037.56-412.42,3044.54-408.75z"/>
	<path class="st1" d="M1963.62-438.75c19.87,0,39.48,0,60,0c0,9.72,0,19.13,0,30.21c27.94-20.54,57.83-30.35,91.37-30.26
		c0,19.97,0,39.72,0,59.43c-7.71,1.3-15.33,2.18-22.75,3.91c-36.3,8.49-66.18,43.42-67.9,80.56c-1.1,23.78-0.69,47.64-0.78,71.47
		c-0.1,27.77-0.12,55.55,0.09,83.32c0.04,4.68-1.29,6.09-5.99,6.02c-17.82-0.25-35.65-0.1-54.04-0.1
		C1963.62-235.86,1963.62-337.2,1963.62-438.75z"/>
	<path class="st1" d="M2206.72-438.74c0,101.46,0,202.55,0,304.1c-19.88,0-39.66,0-59.83,0c0-101.28,0-202.51,0-304.1
		C2166.7-438.74,2186.34-438.74,2206.72-438.74z"/>
	<path class="st1" d="M1217.91-132.09c0-101.4,0-202.33,0-303.77c20.12,0,40.04,0,60.29,0c0,101.28,0,202.35,0,303.77
		C1258.14-132.09,1238.33-132.09,1217.91-132.09z"/>
	<path class="st1" d="M3190.14-417.4c0,6.69,0,12.28,0,18.51c-2.14,0.1-4.13,0.28-6.12,0.28c-16.34,0.02-32.67-0.07-49.01,0.05
		c-10.61,0.07-18.44,6.02-20.38,15.12c-2.51,11.82,6.08,22.85,18.4,23.04c16.71,0.25,33.42,0.08,50.14,0.09c2.04,0,4.08,0,6.68,0
		c0,6.26,0,12.13,0,18.47c-31.14,0-62.39,0-93.69,0c-2.56-9.59-1.2-17.69,3.47-19.18c-7.44-17.19-5.51-32.87,6.98-45.52
		c-3.67-7.91-8.47-14.91-10.21-22.6c-5.26-23.36,12.2-44.75,36.18-45.12c18.4-0.28,36.8-0.06,55.21-0.04c0.54,0,1.08,0.21,2.11,0.42
		c0,5.81,0,11.67,0,18.33c-2.32,0-4.51-0.01-6.7,0c-17.09,0.06-34.18-0.1-51.26,0.27c-8.4,0.18-14.95,6.02-17.06,13.95
		c-2.03,7.59,0.63,16.27,7.51,20.2c4,2.29,9.14,3.45,13.8,3.58c15.76,0.43,31.54,0.16,47.32,0.16
		C3185.52-417.4,3187.55-417.4,3190.14-417.4z"/>
	<path class="st1" d="M3143.13-331.51c26.61,0.12,47.31,21.06,47.18,47.75c-0.13,26.15-21.26,47.15-47.38,47.09
		c-26.72-0.06-47.78-21.38-47.56-48.14C3095.57-310.79,3116.88-331.63,3143.13-331.51z M3143.17-255.61
		c15.68-0.08,28.62-13.22,28.4-28.82c-0.22-15.7-13.4-28.6-28.96-28.35c-15.86,0.26-28.4,13.08-28.29,28.9
		C3114.44-268.08,3127.26-255.52,3143.17-255.61z"/>
	<path class="st1" d="M3118.52-225.34c3.04,5.05,6.1,10.12,9.12,15.15c-15.96,16.93-17.56,33.38-4.6,45.74
		c11.72,11.18,29.87,10.63,40.85-1.24c11.9-12.86,9.89-29.47-5.82-44.34c1.41-2.37,2.91-4.9,4.42-7.42
		c1.53-2.56,3.08-5.11,4.59-7.61c15.84,6.55,25.97,28.59,22.64,48.66c-3.45,20.76-22.59,37.71-43.82,38.79
		c-22.71,1.16-42.9-13.15-48.84-34.61C3091.33-192.87,3100.31-215.51,3118.52-225.34z"/>
	<path class="st1" d="M1218.15-558.28c20.11,0,39.74,0,59.87,0c0,20.07,0,39.96,0,60.23c-19.84,0-39.63,0-59.87,0
		C1218.15-517.93,1218.15-537.83,1218.15-558.28z"/>
	<path class="st1" d="M2146.81-501.07c0-19.99,0-39.59,0-59.58c20.06,0,39.82,0,59.9,0c0,20.02,0,39.61,0,59.58
		C2186.61-501.07,2166.82-501.07,2146.81-501.07z"/>
	<path class="st1" d="M3190-126.68c0,6.03,0,11.91,0,18.13c-5.96,0-11.69,0-17.88,0c0-5.9,0-11.78,0-18.13
		C3177.91-126.68,3183.76-126.68,3190-126.68z"/>
</g>
<g class="st0">
	<path class="st1" d="M2650.51,1905.69c5.11-20.1,9.8-38.87,14.66-57.57c16.47-63.46,33.03-126.88,49.5-190.33
		c19.73-76.02,39.29-152.04,59.34-227.97c0.91-3.5,6.01-8.36,9.22-8.44c28.25-0.66,56.5-0.37,86.81-0.37
		c-15.57,59.55-30.72,117.61-46.08,176.46c11.94-3.95,23.39-8.73,35.33-11.57c34.39-8.15,67.33-7.12,92.86,21.7
		c15.98,18.04,19.93,40.56,17.91,63.75c-6.3,71.32-35.54,137.21-50.16,206.6c-5.97,28.17-7.12,27.92-35.99,27.92
		c-21.04,0-42.09,0-64.65,0c5.64-20.96,11.24-40.89,16.43-60.91c12.72-49.21,25.28-98.5,37.72-147.8c1.4-5.56,1.94-11.41,2.1-17.13
		c0.58-18.7-14.25-28.58-31.5-20.51c-29.65,13.84-48.35,36.65-55.92,68.85c-10.67,45.26-22.2,90.35-33.27,135.52
		c-2.84,11.53-5.19,23.18-8.44,34.63c-0.78,2.76-4.12,6.84-6.34,6.88C2710.76,1905.86,2681.4,1905.69,2650.51,1905.69z"/>
	<path class="st1" d="M236.09,1943.58c13.55,1.48,26.48,4.82,39,3.83c18.49-1.48,29.94-14.45,38.54-30.06
		c14.7-26.68,19.27-56.5,26.89-85.37c11.74-44.23,22.73-88.66,34.39-132.93c18.41-69.68,37.19-139.27,55.59-208.99
		c7.74-29.28,14.87-58.68,22.36-88.04c0.62-2.35,1.77-4.57,2.72-6.92c32.7,0,65.02,0,98.34,0c-8.28,33.27-16.14,66.09-24.54,98.71
		c-14.78,57.24-30.02,114.36-44.89,171.56c-14.25,54.77-27.88,109.7-42.54,164.35c-9.88,36.86-19.6,73.88-32.08,109.87
		c-11.78,33.97-31.01,63.75-62.88,83.31c-16.02,9.8-33.27,15.24-52.18,15.9c-26.6,0.91-52.92,0.7-77.71-10.95
		c-0.66-0.29-1.44-0.33-2.1-0.58c-21-8.73-22.65-13.67-10.71-32.9C215.17,1976.93,226.08,1959.55,236.09,1943.58z"/>
	<path class="st1" d="M2473.93,1580.41c-6.26,25.66-12.19,50.45-18.33,75.24c-11.57,46.49-23.31,92.94-34.88,139.48
		c-1.56,6.3-2.59,12.72-3.46,19.15c-1.69,12.11,3.87,17.17,16.43,15.4c4.2-0.58,8.4-1.11,15.61-2.06
		c-3.46,11.74-7.87,21.29-8.89,31.21c-3.17,31.09-24.09,41.92-50.86,45.87c-22.07,3.25-44.23,4.04-63.71-9.8
		c-5.23-3.71-9.59-8.69-15.03-13.71c-18.04,14-39.45,22.36-63.13,22.24c-54.56-0.25-79.85-27.76-86.6-75.44
		c-12.07-85.08,16.02-157.51,76.72-217.14c24.96-24.5,55.72-36.77,91.83-33.4c15.81,1.48,25.86,11.82,37.1,20.67
		c2.8,2.22,5.31,4.74,8.52,7.58c3.01-8.89,5.72-16.92,8.57-25.28C2413.23,1580.41,2442.6,1580.41,2473.93,1580.41z M2328.24,1646.22
		c-11.12,5.97-22.03,9.68-30.14,16.64c-24.54,21.04-36.2,49.87-44.31,80.26c-6.14,23.02-7.78,46.29-0.25,69.39
		c4.45,13.59,13.84,18.45,26.85,13.38c6.55-2.55,13.05-6.47,18.16-11.24c26.15-24.26,39.57-55.59,47.32-89.53
		c5.23-22.73,6.42-45.75-5.68-67.12C2337.88,1653.87,2333.22,1650.99,2328.24,1646.22z"/>
	<path class="st1" d="M1431.63,1881.27c-12.48,6.14-25.33,13.75-39.12,18.98c-42.25,15.98-87.38-4.37-103.03-48.76
		c-13.22-37.56-12.68-75.15-3.58-112.96c11.94-49.54,34.22-93.73,72.85-127.99c22.07-19.6,47.97-32,78.37-32.74
		c21.41-0.49,39.49,7.12,54.65,22.03c1.28,1.24,2.72,2.31,4.16,3.38c0.21,0.16,0.66,0.04,1.85,0.04c2.39-7.41,4.86-15.11,7.37-22.85
		c29.73,0,59.09,0,90.31,0c-5.72,23.39-11.2,46-16.84,68.56c-13.1,52.42-26.52,104.76-39.29,157.27
		c-4.98,20.59-1.03,24.3,20.38,22.2c2.84-0.29,5.77-0.04,10.67-0.04c-5.48,19.15-10.09,37.84-16.43,55.88
		c-1.61,4.57-8.24,8.15-13.34,10.54c-29.44,13.96-59.55,17.54-89.61,2.18C1444.19,1893.5,1438.79,1887.2,1431.63,1881.27z
		 M1368.62,1785.24c2.1,8.11,4.41,20.47,8.61,32.12c2.55,7,9.68,12.68,17.34,9.84c10.67-3.95,23.56-8.03,29.98-16.27
		c27.67-35.62,48.88-74.49,46.62-121.77c-0.7-14.58-2.02-30.23-18.04-36.65c-15.36-6.18-27.47,3.01-37.68,13.18
		C1383.69,1697.32,1372.99,1737.55,1368.62,1785.24z"/>
	<path class="st1" d="M1744.18,1905.73c7-22.36,13.96-43.57,20.22-64.94c13.84-47.4,27.34-94.88,40.93-142.36
		c3.17-11.04,3.5-22.28-6.42-29.77c-10.71-8.15-23.64-6.51-35.33-2.26c-21.04,7.58-31.54,25.57-37.56,45.17
		c-10.01,32.7-17.58,66.14-26.56,99.12c-8.61,31.58-17.75,63.05-26.68,94.71c-30.8,0-60.91,0-92.33,0
		c6.84-26.81,13.55-53.12,20.3-79.44c18.98-74.33,38.01-148.66,56.95-222.99c5.31-20.8,5.23-20.8,26.77-20.8c23.6,0,47.19,0,71.82,0
		c-1.28,5.64-2.39,10.42-4.32,18.98c10.87-4.45,19.85-7.82,28.58-11.74c25.41-11.45,51.47-11.53,76.76-1.48
		c29.73,11.82,41.76,36.86,45.05,67.25c2.76,25.37-6.84,48.22-13.05,71.94c-14.37,55.06-28.13,110.28-41.43,165.58
		c-2.47,10.3-6.51,13.67-17.21,13.34C1802.37,1905.16,1774.04,1905.73,1744.18,1905.73z"/>
	<path class="st1" d="M851.89,1796.98c-2.64,17.83,13.59,37.39,31.42,37.72c20.3,0.37,38.05-7.33,54.81-17.91
		c6.67-4.2,13.38-8.28,22.53-13.88c-4.41,18.12-8.19,33.93-12.07,49.7c-1.03,4.2-3.29,8.24-3.46,12.44
		c-1.24,27.71-21.91,35.46-43.28,40.15c-42.25,9.27-100.15-4.98-123.95-50.45c-8.52-16.27-15.69-34.92-17.09-52.96
		c-6.51-84.05,23.6-152.78,94.47-200.09c39.62-26.44,83.39-31.38,127.78-9.51c26.15,12.89,40.6,35,44.1,63.01
		c5.72,46-12.27,82.57-49,110.16c-31.67,23.76-67.54,33.52-106.86,31.67C864.78,1796.73,858.32,1796.98,851.89,1796.98z
		 M857.62,1736.4c29.2,6.05,54.98,0.66,78.04-17.21c12.72-9.84,19.85-22.03,18.78-38.96c-1.32-21.08-14.66-30.47-35.04-25.37
		C885.99,1663.26,861.12,1708.56,857.62,1736.4z"/>
	<path class="st1" d="M690.76,1803.19c-6.79,26.03-14.12,51.93-20.14,78.16c-2.31,10.09-9.51,12.19-17.05,15.77
		c-31.05,14.7-62.47,13.71-93.6,1.65c-39.16-15.2-59.96-45.79-68.19-85.82c-17.67-85.74,33.03-180,104.6-217.8
		c31.34-16.55,64.61-21.08,98.63-10.38c50.53,15.94,75.15,63.09,58.02,113.37c-19.35,56.79-61.03,89.03-119.55,98.63
		c-17.38,2.84-35.66,0.45-53.7,0.45c-2.22,16.06,10.46,33.56,27.47,35.13c28.21,2.64,52.5-7.21,73.96-25
		c2.59-2.14,5.27-4.16,7.91-6.22C689.73,1801.88,690.22,1802.54,690.76,1803.19z M586.78,1735.33c18.2,3.34,44.56,1.65,59.34-4.45
		c15.57-6.42,30.56-14.08,37.06-31.13c5.02-13.14,5.48-26.81-4.08-37.93c-8.32-9.68-19.93-9.14-32.04-6.79
		C619.23,1660.38,588.01,1709.76,586.78,1735.33z"/>
	<path class="st1" d="M1339.09,1579.96c-12.81,23.02-24.5,44.47-36.57,65.72c-28.17,49.62-56.38,99.2-84.79,148.7
		c-20.34,35.37-40.97,70.58-61.77,105.67c-1.56,2.64-5.52,5.35-8.4,5.39c-27.55,0.41-55.14,0.25-83.64,0.25
		c-6.01-108.51-12.02-216.28-18.04-324.91c28.62,0,56.75,0,87.92,0c3.58,57.78,7.21,115.88,11.04,177.32
		c4.49-5.39,8.03-8.61,10.3-12.52c20.34-34.96,40.48-70.01,60.66-105.05c10.46-18.16,20.71-36.4,31.63-54.28
		c1.81-2.96,6.47-5.93,9.84-5.97C1283.79,1579.75,1310.31,1579.96,1339.09,1579.96z"/>
	<path class="st1" d="M2505.85,1582.14c11.9,0,23.14-0.29,34.39,0.12c5.81,0.21,8.36-1.98,9.76-7.49
		c10.38-40.85,20.92-81.7,31.75-122.43c0.78-3.01,4.28-7.45,6.59-7.49c28.29-0.54,56.58-0.33,87.92-0.33
		c-11.41,45.55-22.48,89.61-34.14,136.06c19.77,0,38.3,0,58.64,0c-6.63,24.71-12.56,46.9-18.82,70.25c-14.25,0-29.16,0.91-43.9-0.29
		c-10.62-0.86-14.74,3.46-17.13,12.77c-16.06,62.14-32.41,124.2-48.55,186.3c-4.82,18.45-9.31,36.98-14,55.55
		c-30.89,0-61.23,0-92.49,0c21.41-84.38,42.66-168.01,64.32-253.46c-14.78,0-27.96,0-42.54,0
		C2493.95,1627.48,2499.84,1605.04,2505.85,1582.14z"/>
	<path class="st1" d="M2142.06,1675.21c-9.68-5.07-17.91-10.25-26.81-13.75c-14.95-5.93-30.02-11.86-45.55-15.73
		c-11.08-2.76-22.24,0.95-31.46,8.24c-12.27,9.68-12.89,21.04-0.74,30.84c8.07,6.55,17.54,11.32,26.44,16.84
		c25.74,15.94,48.35,34.8,56.83,65.39c10.91,39.24,2.22,74.17-25.12,104.43c-28,31.01-63.38,44.89-104.72,42.83
		c-31.71-1.56-61.52-11.98-90.93-23.06c-2.1-0.78-4.57-5.52-3.99-7.7c5.68-22.69,12.02-45.22,17.91-67.82
		c2.35-9.06,7.21-8.24,13.67-4.53c25.12,14.5,52.46,20.22,81.17,19.11c21.13-0.82,35.46-17.54,28.37-34.01
		c-3.75-8.77-11.16-16.88-18.86-22.77c-10.5-8.07-22.4-14.7-34.43-20.38c-37.51-17.71-47.85-55.55-38.34-92.7
		c13.14-51.43,50.69-77.62,99.53-88.66c37.8-8.52,74.78-3.25,109.09,16.27c6.09,3.46,8.44,6.79,6.26,14.5
		C2153.76,1626,2148.36,1649.88,2142.06,1675.21z"/>
	<path class="st1" d="M3058.65,1905.36c-31.67,0-61.4,0-92.33,0c5.93-24.01,11.57-47.48,17.54-70.83
		c20.1-78.49,40.32-156.98,60.49-235.47c4.9-19.07,4.86-19.07,25.16-19.07c23.23,0,46.45,0,71.98,0
		C3113.67,1689.08,3086.2,1797.1,3058.65,1905.36z"/>
	<path class="st1" d="M3117.78,1531.78c-12.56-3.75-24.54-5.6-34.92-10.75c-23.55-11.65-26.03-41.96-5.77-58.64
		c18.53-15.28,59.83-17.95,80.34-5.19c24.17,15.03,23.1,48.88-3.01,62.88C3143.36,1526.05,3130.14,1527.99,3117.78,1531.78z"/>
</g>
<g class="st0">
	<path class="st1" d="M921.01-1071.8c0.83-1.8,1.72-3.58,2.49-5.41c5.79-13.88,13.29-26.72,23.53-37.82
		c14.32-15.52,31.88-25.4,52.56-29.72c19.59-4.1,39.16-4.05,58.58,0.82c25.49,6.39,44.17,22.11,58.15,43.77
		c4.55,7.05,8.22,14.66,12.26,22.04c0.9,1.65,1.69,3.36,2.86,5.7c0.99-1.8,1.78-3,2.35-4.29c17.55-40.11,48.09-63.45,91.32-69.68
		c26.26-3.79,51.57,0.26,75.08,12.88c29.3,15.73,47.15,40.04,53.15,72.86c2.34,12.82,3.49,25.77,3.48,38.8
		c-0.05,101.81-0.12,203.62-0.19,305.43c0,1.91,0.06,3.85-0.2,5.73c-0.99,7.1-5.38,11.78-12.41,13.28
		c-1.67,0.36-3.41,0.54-5.12,0.55c-25.27,0.03-50.54,0.03-75.82,0.01c-1.33,0-2.69-0.06-4-0.28c-7.7-1.32-12.63-6.57-13.41-14.31
		c-0.17-1.71-0.07-3.44-0.07-5.16c0-72.53-0.02-145.06,0.01-217.59c0.01-13.77,0.47-27.55,0.28-41.32
		c-0.13-9.35-0.65-18.74-1.75-28.02c-0.64-5.43-2.26-10.89-4.32-15.97c-6.32-15.53-18.93-22.23-34.92-23.95
		c-32.33-3.47-55.66,18.43-60.6,47.62c-2.3,13.62-3.41,27.32-3.42,41.1c-0.04,79.23-0.02,158.46-0.02,237.69
		c0,1.72,0.07,3.45-0.03,5.17c-0.4,7.33-4.72,12.61-11.87,14.29c-2.21,0.52-4.54,0.72-6.82,0.72c-24.7,0.05-49.4,0.05-74.09-0.01
		c-2.27-0.01-4.61-0.25-6.79-0.87c-6.3-1.78-10.13-5.94-10.94-12.55c-0.28-2.27-0.31-4.58-0.31-6.87
		c-0.02-73.49,0.02-146.98-0.04-220.46c-0.01-16.24-0.11-32.5-0.63-48.73c-0.3-9.38-2.14-18.61-5.25-27.52
		c-7.21-20.63-21.47-30.91-43.32-30.74c-5.3,0.04-10.73,0.68-15.87,1.97c-14.16,3.57-23.54,12.9-29.57,25.92
		c-4.47,9.65-7.07,19.87-8.02,30.36c-1.17,12.93-2.11,25.94-2.14,38.91c-0.19,76.93-0.09,153.87-0.1,230.8
		c0,14.47-5.26,19.79-19.64,19.8c-24.12,0.02-48.25,0.03-72.37-0.03c-2.46-0.01-5-0.2-7.38-0.79c-6.91-1.71-11.03-6.99-11.27-14.07
		c-0.05-1.53-0.01-3.06-0.01-4.59c0-134.15,0-268.31,0-402.46c0-1.91-0.06-3.83,0.05-5.74c0.48-7.99,6.44-13.82,14.49-14.21
		c0.76-0.04,1.53-0.01,2.3-0.01c22.78-0.06,45.56-0.12,68.34-0.18c1.72,0,3.45-0.03,5.17,0.07c9.13,0.55,14.86,6.41,14.92,15.54
		c0.1,15.12,0.03,30.24,0.03,45.36c0,1.99,0,3.99,0,5.98C920.15-1071.93,920.58-1071.86,921.01-1071.8z"/>
	<path class="st1" d="M1667.7-750.78c-10.41,11.01-21.28,20.33-33.23,28.36c-25.03,16.81-52.32,27.85-82.42,30.91
		c-37.95,3.87-72.12-5.16-100.93-31.23c-15.51-14.03-25.54-31.4-30.74-51.46c-6.93-26.76-7.32-53.78-0.74-80.64
		c9.47-38.71,33.12-66.57,67.61-85.61c20.26-11.19,42.27-17.62,64.73-22.65c21.69-4.86,43.69-7.63,65.84-9.36
		c11.24-0.88,22.45-1.99,33.4-2.97c0.46-0.68,0.84-0.97,0.85-1.28c0.53-16.65,0.25-33.23-2.47-49.74
		c-4.26-25.93-21.68-35.72-40.3-38.58c-18.2-2.8-35.42,0.99-51.18,10.66c-13.64,8.37-21.55,20.81-25.26,36.16
		c-0.54,2.22-1.04,4.49-1.9,6.6c-2.23,5.41-7.39,10.62-15.86,9.5c-20.29-2.68-40.62-5.03-60.93-7.52
		c-4.37-0.54-8.74-0.99-13.09-1.67c-9.05-1.42-13.41-6.67-11.8-15.58c6.83-37.86,23.63-69.65,56.66-91.33
		c24.06-15.79,50.57-25.09,78.82-29.75c23.73-3.92,47.58-4.79,71.48-2.19c27.09,2.95,52.91,9.92,76.25,24.69
		c17.06,10.79,30.22,25.16,40.13,42.57c5.47,9.6,7.59,20.37,9.72,31.06c2.59,12.98,3.48,26.13,3.47,39.36
		c-0.03,54.34-0.07,108.68,0.06,163.02c0.02,7.24,0.59,14.53,1.61,21.7c1.61,11.32,5.95,21.75,12.26,31.26
		c4.76,7.16,10.01,14,14.94,21.05c1.74,2.49,3.51,5.06,4.68,7.83c2.56,6.05,1.36,10.55-3.63,14.87
		c-15.03,13.04-30.09,26.05-45.13,39.07c-4.92,4.26-9.8,8.56-14.75,12.78c-8.39,7.15-17.56,6.97-25.81-0.19
		c-10.76-9.33-19.97-20.03-28.45-31.41C1677.15-738.48,1672.58-744.36,1667.7-750.78z M1651.92-910.75c-6.18,0-11.7-0.15-17.22,0.03
		c-13.97,0.45-27.92,1.37-41.49,4.99c-14.02,3.74-27.02,9.66-37.91,19.48c-15.29,13.79-21.6,31.61-22.47,51.65
		c-0.54,12.55,0.86,24.84,6.49,36.32c9.19,18.74,25.3,27.54,43.85,26.41c18.67-1.14,33.52-10.2,44.87-24.69
		c15.09-19.27,22.44-41.67,23.89-65.85c0.88-14.68,0.29-29.45,0.33-44.18C1652.26-907.88,1652.05-909.18,1651.92-910.75z"/>
	<path class="st1" d="M621.16-750.74c-10.63,11.2-21.82,20.72-34.14,28.91c-24.95,16.58-52.1,27.44-82.01,30.38
		c-37.74,3.71-71.73-5.34-100.38-31.23c-15.52-14.02-25.58-31.37-30.75-51.45c-7.24-28.13-7.47-56.48,0.2-84.51
		c9.8-35.81,32.15-62.02,64.05-80.37c19.41-11.16,40.56-17.74,62.2-22.91c23.12-5.52,46.62-8.62,70.29-10.48
		c9.92-0.78,19.82-1.65,29.73-2.53c1.67-0.15,3.31-0.56,5.64-0.97c-0.33-11.86-0.41-23.51-1.08-35.11
		c-0.36-6.27-1.59-12.5-2.72-18.7c-3.45-19.04-15.88-29.79-33.77-34.12c-20.91-5.06-40.67-1.03-58.68,10.73
		c-11.73,7.66-18.96,18.66-22.6,32.1c-0.75,2.77-1.31,5.6-2.29,8.28c-2.95,8.09-8.22,11.47-16.78,10.48
		c-16.91-1.96-33.79-4.11-50.69-6.19c-7.21-0.89-14.43-1.75-21.63-2.74c-2.06-0.28-4.19-0.71-6.07-1.55
		c-4.77-2.14-7.77-5.75-7.15-11.24c0.52-4.54,1.36-9.07,2.43-13.51c5.75-23.85,16.01-45.34,33.2-63.22
		c10.46-10.89,22.77-19.21,36-26.26c22.73-12.09,47.11-18.87,72.52-22.25c20.76-2.77,41.57-3.22,62.4-1
		c31.91,3.4,61.85,12.22,87.58,32.37c12.71,9.95,22.56,22.34,30.2,36.41c4.97,9.15,6.92,19.4,8.95,29.53
		c2.48,12.42,3.43,24.99,3.43,37.64c0.01,54.72,0,109.44,0.01,164.16c0,13.66,0.86,27.3,6.86,39.79
		c4.04,8.39,9.22,16.26,14.18,24.17c2.63,4.2,5.98,7.95,8.85,12.01c1.43,2.01,2.79,4.15,3.72,6.42c2.46,5.99,1.28,10.65-3.62,14.91
		c-14.87,12.93-29.78,25.81-44.67,38.72c-5.06,4.38-10.09,8.8-15.19,13.15c-8.36,7.14-17.59,6.94-25.83-0.11
		c-13.65-11.67-24.34-25.88-35.02-40.12C626.25-744.21,623.89-747.2,621.16-750.74z M605.31-910.88c-1.73-0.11-3.23-0.37-4.71-0.28
		c-12.6,0.72-25.23,1.13-37.77,2.37c-13.03,1.29-25.47,5.06-37.17,11.07c-15.15,7.78-26.86,18.91-33.43,34.84
		c-5.43,13.17-6.84,26.95-5.61,41.07c0.94,10.85,3.8,21.07,9.97,30.15c9.37,13.78,22.68,20.49,39.1,19.86
		c16.39-0.63,30.36-7.64,41.4-19.71c18.2-19.89,26.45-44.1,28.26-70.48c1.02-14.86,0.31-29.83,0.35-44.75
		C605.7-908.02,605.47-909.31,605.31-910.88z"/>
	<path class="st1" d="M2747.83-1065.1c0.78-1.65,1.62-3.29,2.34-4.97c5.77-13.39,12.47-26.25,21.35-37.89
		c14.86-19.47,34-32.17,58.21-36.94c20.01-3.94,40.01-4.03,59.73,1.14c38.89,10.2,63.51,35.24,74.45,73.7
		c5.95,20.92,8.16,42.46,8.23,64.11c0.31,97.59,0.28,195.18,0.57,292.77c0.02,7.88-4.55,14.98-14.43,16.15
		c-1.7,0.2-3.44,0.17-5.16,0.17c-24.12,0.01-48.24,0.01-72.37,0c-1.72,0-3.46,0.03-5.15-0.21c-8.51-1.25-13.6-7.06-13.65-15.66
		c-0.06-10.14-0.01-20.28-0.01-30.43c0-73.87,0.01-147.73-0.01-221.6c0-14.76-0.86-29.46-4.81-43.77c-1.21-4.4-2.84-8.74-4.79-12.86
		c-8.99-19.03-26.66-26.27-46.02-23.74c-19.77,2.59-32.67,14.86-40.89,32.33c-6.75,14.33-10.26,29.62-11.53,45.35
		c-0.83,10.28-1.21,20.62-1.22,30.93c-0.1,72.53-0.05,145.05-0.05,217.58c0,1.53,0.02,3.06-0.01,4.59
		c-0.19,11.13-6.29,17.29-17.57,17.46c-9.19,0.14-18.38,0.03-27.57,0.03c-15.7,0-31.4,0.04-47.09-0.04
		c-2.65-0.02-5.41-0.23-7.91-1.01c-5.75-1.79-9.42-5.72-10.3-11.83c-0.32-2.26-0.4-4.57-0.4-6.86
		c-0.02-134.72-0.02-269.44-0.02-404.16c0-1.15-0.04-2.3,0.02-3.44c0.42-8.32,6.39-14.45,14.73-14.51
		c24.69-0.18,49.39-0.12,74.08-0.24c9.44-0.05,16.55,7.18,16.24,16.76c-0.55,17.01-0.15,34.06-0.15,51.09c0,1.9,0,3.8,0,5.7
		C2747.06-1065.31,2747.44-1065.21,2747.83-1065.1z"/>
	<path class="st1" d="M2216.14-919.02c0.33-37.35,5.22-73.95,18.37-109.14c9.61-25.71,22.98-49.15,41.99-69.17
		c22.94-24.17,50.67-39.83,83.34-46.42c34.32-6.93,68.15-5.05,101.07,7.26c35.2,13.16,61.76,36.86,81.7,68.32
		c16.93,26.69,27.1,55.98,33.06,86.84c6.35,32.9,7.81,66.09,4.48,99.38c-4.35,43.5-17,84.26-42.53,120.31
		c-22.95,32.42-52.83,55.94-91.46,66.46c-48.94,13.33-96,8.55-139.56-18.82c-24.68-15.51-42.98-37.17-57.13-62.46
		c-14.94-26.68-23.74-55.43-28.73-85.46C2217.6-880.82,2216.33-899.88,2216.14-919.02z M2463.02-915.01
		c-0.57-24.6-0.93-48.87-4.51-72.95c-2.11-14.2-4.86-28.25-10.16-41.67c-7.51-19.04-20.99-30.62-41.73-32.92
		c-21.64-2.4-39.13,4.48-51.37,23.06c-4.66,7.08-7.96,14.79-10.51,22.83c-6.02,18.93-8.26,38.5-8.83,58.21
		c-0.59,20.25-0.6,40.54-0.19,60.8c0.42,20.84,2.18,41.61,6.76,62.03c3.2,14.25,7.59,28.05,15.95,40.26
		c12.61,18.42,32.09,25.51,53.68,19.7c14.37-3.87,24.42-13.02,31.74-25.54c8.14-13.92,12.03-29.25,14.67-44.98
		C2462.37-869.09,2462.59-892.22,2463.02-915.01z"/>
	<path class="st1" d="M2013.1-841.35c10.36,0,19.33-0.36,28.27,0.06c42.13,1.99,82.56,10.57,120.12,30.69
		c11.23,6.02,16.4,15.1,16.5,27.36c0.15,19.33,0.18,38.66-0.08,57.98c-0.05,3.47-1.08,7.28-2.78,10.3
		c-3.86,6.86-10.54,8.47-17.75,5.19c-10.09-4.58-20.06-9.5-30.38-13.48c-31.31-12.08-63.82-18.38-97.39-19.58
		c-52.53-1.87-102.21,8.88-149.02,32.85c-8.61,4.41-16.57,1.38-19.87-7.49c-0.65-1.74-0.84-3.73-0.85-5.6
		c-0.06-22.39-0.16-44.78,0.01-67.17c0.1-12.92,3.73-24.77,11.23-35.52c50.95-72.92,101.79-145.92,152.66-218.9
		c1.17-1.68,2.23-3.43,4.02-6.18c-3.2,0-5.4,0-7.59,0c-41.73,0-83.47,0-125.2,0c-1.34,0-2.68-0.03-4.02,0
		c-10,0.26-16.5-6.7-16.32-16.49c0.35-18.75,0.06-37.5,0.12-56.26c0.04-10.73,5.6-16.31,16.26-16.31
		c87.49-0.02,174.97-0.02,262.46,0c10.49,0,16.4,5.8,16.47,16.31c0.11,15.88,0.01,31.76,0.04,47.65c0.01,5.54-1.77,10.58-4.49,15.23
		c-3.28,5.61-6.73,11.13-10.46,16.45c-45.98,65.66-92.02,131.28-138.04,196.91C2015.94-845.82,2014.97-844.22,2013.1-841.35z"/>
	<path class="st1" d="M761.41-644.71c0,0,313.41,184.24,692.47,175.76c385.41-6.35,491.29-97.41,491.29-97.41
		s40.24-25.41,48.71,4.24c8.47,29.65-122.82,93.18-122.82,93.18S1636-352.47,1379.76-365.18
		c-256.24-12.71-474.35-127.06-573.88-203.29s-69.88-82.59-57.18-82.59s0-4.24,12.71,0"/>
	<path class="st1" d="M2048.24-608c0,0,16.94,20.47-17.65,104.47s-24,74.82-18.35,81.18c5.65,6.35,77.65-52.24,96-146.12
		c15.68-80.19,5.06-90.54,2.33-92.93c-0.74-0.65-1.4-1.14-2.15-1.62c-5.58-3.54-28.15-14.97-78.53-15.57
		c-59.29-0.71-105.18,9.88-148.94,32.47c-43.76,22.59-14.82,30.35-13.41,30.35c0,0,79.76,1.41,117.88-3.53
		S2043.29-619.29,2048.24-608z"/>
</g>
<g class="st0">
	<g class="st2">
		<path class="st3" d="M124,443.76c2.43-15.91,5.17-31.78,7.26-47.73C154.23,220.79,295.71,73.19,469.98,40.63
			c192.46-35.97,374.01,59.53,458.56,222.91c26.52,51.25,42.38,105.85,44.83,163.89c7.6,180.02-69.41,313.54-224.79,402.45
			C697.51,859.1,641.17,874.17,582,877.51c-6.35,0.36-12.58,2.78-18.87,4.24c-8.19,0-16.38,0-24.57,0
			c-5.29-1.43-10.49-3.45-15.88-4.17c-17.66-2.38-35.55-3.38-53.06-6.53c-173.94-31.32-316.65-181.37-338.36-355.15
			c-1.99-15.93-4.82-31.75-7.26-47.63C124,460.1,124,451.93,124,443.76z M683.71,203.88c-5.08,0.69-8.25,0.49-10.87,1.59
			c-24.96,10.49-50.16,20.5-74.66,32c-52.33,24.57-104.48,49.66-148.6,88.01c-12.79,11.12-25.16,23.34-25.96,41.66
			c-1.54,35.14-2.31,70.31-3.2,105.48c-0.43,16.83,1.4,33.94-1.08,50.43c-2.39,15.82,1.74,28.09,11.52,39.43
			c7.67,8.89,15.03,18.19,23.64,26.11c69.2,63.59,138.64,126.93,208.11,190.23c3.51,3.2,7.97,5.36,13.56,9.04
			c0.95-5.76,1.91-9.1,1.99-12.45c1.12-46.39,1.19-92.83,3.62-139.14c0.98-18.63-6.19-30-19.52-41.5
			c-46.79-40.38-92.72-81.76-138.89-122.87c-3.93-3.5-7.16-7.79-11.45-12.53c5.86-3.52,9.6-6.21,13.69-8.15
			c46.61-22.09,93.06-44.55,140.08-65.74c11.56-5.21,16.02-11.15,15.91-23.82c-0.24-26.99,1.59-53.99,2.02-81
			C684.02,255.41,683.71,230.14,683.71,203.88z M483.55,123.71c-37.14-0.05-66.27,28.76-66.22,65.48
			c0.05,36.42,30.15,66.3,66.45,65.96c35.77-0.33,65.25-29.8,65.46-65.44C549.46,152.87,520.49,123.76,483.55,123.71z"/>
		<path class="st3" d="M1915.44,324.41c0-10.88,0.5-21.79-0.14-32.63c-0.65-11.01,3.08-15.77,14.78-15.32
			c18.89,0.72,37.84,0.65,56.74,0.02c11.04-0.37,15.4,3.06,15.36,14.71c-0.33,109.64-0.31,219.29-0.02,328.93
			c0.03,10.93-2.93,15.81-14.71,15.35c-18.89-0.74-37.86-0.83-56.74,0.03c-12.6,0.57-16.17-4.7-15.43-16.24
			c0.7-10.8,0.15-21.67,0.15-32.51c-1.49-0.36-2.99-0.72-4.48-1.08c-2.91,2.38-6.23,4.4-8.66,7.2
			c-62.45,72.22-187.32,65.1-244.93-25.23c-49.39-77.44-38.12-194.9,25.07-254.67c62.5-59.11,159.5-57.14,219.12,4.41
			c2.74,2.83,5.75,5.39,8.63,8.08C1911.94,325.11,1913.69,324.76,1915.44,324.41z M1815.03,564.75
			c45.86,0.01,82.89-25.91,93.74-70.18c5.06-20.64,5.77-43.44,3.21-64.64c-8.38-69.61-88.7-106.66-148.11-69.21
			c-40.81,25.73-50.98,65.48-47.25,110.22C1721.15,525.37,1763.02,564.74,1815.03,564.75z"/>
		<path class="st3" d="M2799.94,635.3c-36.84,0-70.03,0.71-103.14-0.6c-6.57-0.26-14.28-7.13-19.01-12.94
			c-33.51-41.19-66.34-82.93-99.52-124.39c-3.95-4.93-8.68-9.23-16.07-17c-0.7,9.59-1.41,14.83-1.42,20.08
			c-0.09,39.8-0.43,79.61,0.17,119.41c0.19,12.16-3.98,16.23-15.97,15.72c-18.39-0.78-36.86-0.83-55.24,0.01
			c-12.45,0.57-15.68-4.45-15.61-16.12c0.39-71.95,0.19-143.91,0.19-215.86c0-77.06,0.28-154.12-0.26-231.17
			c-0.1-13.67,3.3-19.51,17.98-18.48c16.8,1.18,33.8,1.09,50.62,0.02c14.09-0.9,18.48,3.77,18.37,18.05
			c-0.63,79.09-0.32,158.19-0.27,237.29c0,5.86,0.49,11.73,0.75,17.59c2.19,1.53,4.39,3.07,6.58,4.6
			c2.94-5.18,5.28-10.83,8.92-15.46c33.81-42.92,67.54-85.9,102.16-128.16c4.67-5.7,14-10.38,21.35-10.65
			c31.65-1.16,63.36-0.49,98.85-0.49c-13.57,15.78-25.11,29.44-36.91,42.88c-36.71,41.84-73.23,83.85-110.5,125.19
			c-8.32,9.23-8.35,15.01-0.04,24.15c46.02,50.65,91.46,101.84,137.06,152.87C2791.99,625.21,2794.7,628.85,2799.94,635.3z"/>
		<path class="st3" d="M2321.17,589.04c-7.25,6.89-10.7,10.33-14.32,13.58c-43.62,39.17-93.95,47.26-148.47,29.46
			c-53.16-17.35-81.78-57.07-88.48-110.63c-4.53-36.2-3.09-73.19-3.54-109.84c-0.5-40.29,0.14-80.6-0.28-120.89
			c-0.11-10.61,3.6-14.56,14.27-14.23c18.9,0.58,37.87,0.76,56.75-0.05c12.29-0.53,15.83,4.17,15.74,15.99
			c-0.45,58.15-0.45,116.3-0.01,174.45c0.1,13.15,1.26,26.61,4.26,39.38c9.87,41.99,45.04,65.52,89.71,61.21
			c43.65-4.21,73.71-35.49,74.14-79.06c0.63-64.27,0.59-128.55-0.09-192.82c-0.15-14.51,3.75-20.1,18.88-19.14
			c18.85,1.2,37.83,0.61,56.75,0.16c9.59-0.22,13.88,2.81,13.86,13.06c-0.22,110.69-0.2,221.39-0.01,332.08
			c0.02,9.66-3.08,13.9-13.26,13.66c-20.96-0.49-41.94-0.5-62.9,0c-10.32,0.25-13.57-4.27-13.11-13.8
			C2321.52,612.26,2321.17,602.87,2321.17,589.04z"/>
		<path class="st3" d="M1318.05,318.5c3.99-3.61,7.9-7.31,11.99-10.81c48.46-41.46,103.4-48.18,160.34-23.62
			c53.26,22.98,76.95,68.73,78.2,124.96c1.55,69.85,0.3,139.75,0.84,209.63c0.09,12.36-3.35,17.52-16.44,16.84
			c-17.85-0.92-35.82-0.87-53.68-0.01c-12.65,0.61-16.86-3.69-16.75-16.49c0.54-61.2,0.47-122.42,0.02-183.62
			c-0.09-11.58-1.6-23.49-4.69-34.64c-10.87-39.2-41.87-58.55-88.52-56.43c-36.7,1.67-64.91,26.13-72.35,63.31
			c-1.78,8.92-2.88,18.13-2.92,27.21c-0.25,60.19-0.12,120.38-0.14,180.57c-0.01,19.84-0.04,19.85-20.57,19.87
			c-16.36,0.02-32.78-0.78-49.08,0.24c-13.81,0.87-17.41-4.56-17.34-17.67c0.45-90.79,0.23-181.59,0.23-272.38
			c0-17.85,0.41-35.72-0.13-53.55c-0.33-10.87,3.06-15.87,14.82-15.45c19.41,0.7,38.87,0.64,58.29,0.02
			c11.04-0.35,14.55,4.31,13.9,14.58c-0.54,8.55-0.11,17.15-0.11,25.74C1315.31,317.37,1316.68,317.93,1318.05,318.5z"/>
		<path class="st3" d="M2944.88,329.34c11.4-11.46,21.09-25.86,34.61-33.65c18.61-10.73,39.97-16.86,60.45-24.13
			c8.11-2.88,12.3,1.51,12.22,10.33c-0.21,22.96-0.32,45.92,0.05,68.88c0.16,9.8-4.75,11.8-13.33,12.04
			c-13.22,0.37-26.69,0.52-39.55,3.21c-36.33,7.61-56.83,32.02-57.67,69c-1.33,58.61-1.8,117.24-2.45,175.86
			c-0.27,24.49-0.06,24.49-23.88,24.5c-16.37,0-32.75-0.33-49.1,0.12c-9.51,0.26-13.97-2.64-13.95-12.97
			c0.22-111.23,0.2-222.45,0.04-333.68c-0.01-9.47,4.13-12.44,13.04-12.28c19.94,0.34,39.91,0.52,59.84-0.06
			c10.97-0.32,14.47,4.37,14.07,14.61c-0.49,12.38-0.12,24.78-0.12,37.18C2941.06,328.63,2942.97,328.98,2944.88,329.34z"/>
		<path class="st3" d="M3187.32,455.89c0,54.05-0.36,108.09,0.26,162.13c0.15,13.14-3.36,18.4-17.21,17.62
			c-18.86-1.05-37.82-0.54-56.72-0.17c-9.2,0.18-12.69-3.4-12.68-12.6c0.17-111.15,0.2-222.3-0.04-333.45
			c-0.02-10.43,4.58-13.09,13.99-12.88c18.91,0.41,37.85,0.69,56.73-0.09c12.06-0.5,16,3.72,15.89,15.78
			C3187.03,346.77,3187.31,401.33,3187.32,455.89z"/>
	</g>
	<path class="st1" d="M3145.25,123.39c29.93,0.22,51.56,22.55,51.21,52.87c-0.32,27.92-24.21,51.47-52.21,51.48
		c-28.23,0.01-52.39-24.55-52.34-53.23C3091.97,145.81,3115.59,123.17,3145.25,123.39z"/>
</g>
<path class="st4" d="M683.71,203.88c0,26.26,0.31,51.53-0.09,76.78c-0.43,27-2.26,54.01-2.02,81c0.11,12.67-4.35,18.61-15.91,23.82
	c-47.02,21.19-93.47,43.65-140.08,65.74c-4.09,1.94-7.83,4.63-13.69,8.15c4.29,4.74,7.52,9.03,11.45,12.53
	c46.16,41.11,92.09,82.49,138.89,122.87c13.32,11.5,20.49,22.87,19.52,41.5c-2.43,46.32-2.5,92.76-3.62,139.14
	c-0.08,3.35-1.04,6.69-1.99,12.45c-5.59-3.68-10.05-5.84-13.56-9.04c-69.47-63.3-138.91-126.63-208.11-190.23
	c-8.61-7.91-15.97-17.22-23.64-26.11c-9.78-11.34-13.91-23.61-11.52-39.43c2.49-16.49,0.66-33.6,1.08-50.43
	c0.89-35.16,1.67-70.34,3.2-105.48c0.8-18.32,13.17-30.54,25.96-41.66c44.11-38.36,96.27-63.44,148.6-88.01
	c24.49-11.5,49.69-21.51,74.66-32C675.45,204.36,678.63,204.57,683.71,203.88z"/>
<path class="st4" d="M483.55,123.71c36.93,0.05,65.91,29.16,65.69,66c-0.21,35.64-29.69,65.1-65.46,65.44
	c-36.3,0.34-66.4-29.55-66.45-65.96C417.28,152.47,446.42,123.66,483.55,123.71z"/>
<g>
	<path class="st3" d="M592.69,13c1.65,0.65,3.25,1.74,4.94,1.89c38.31,3.29,76.9,4.64,114.88,10.16
		c42.51,6.18,84.45,16.18,126.66,24.41c16.76,3.27,25.32,13.84,30.42,29.72c13.34,41.6,26.1,83.33,32.22,126.69
		c2.77,19.6,4.42,39.43,5.29,59.21c0.89,20.39,0.16,40.84,0.23,61.27c0.09,27.03,1.79,54.15,0.07,81.06
		c-2.67,41.96-12,82.79-25.48,122.74c-30.08,89.17-80.43,165.51-145.08,233.3c-51.22,53.71-109.01,98.88-171.83,138.13
		c-12.82,8.01-22.16,7.78-34.93-0.09c-48.05-29.64-92.97-63.15-134.61-101.27c-48.03-43.97-90.04-92.9-124.51-148.09
		c-32.66-52.3-58.09-107.87-70.75-168.49c-5.5-26.34-8.62-53.17-12.85-79.78c-0.29-1.82-0.83-3.6-1.26-5.39
		c0-44.91,0-89.82,0-134.73c0.98-10.03,1.75-20.08,2.97-30.07c6.49-53.28,18.92-105.15,36.97-155.72
		c4.47-12.52,9.95-21.94,24.37-26.37c53.24-16.37,108.07-23.73,163-30.44c27.98-3.42,56.29-4.13,84.45-6.18
		c1.67-0.12,3.26-1.28,4.89-1.96C532.73,13,562.71,13,592.69,13z M340.38,677.69c0.91-0.34,1.83-0.67,2.74-1.01
		c-0.64-2.85-1.25-5.72-1.94-8.56c-6.81-28.33-8.48-57.22-4.33-85.78c6.64-45.67,29.45-83.73,61.3-116.51
		c26.52-27.29,57.05-49.75,88.15-71.48c5.95-4.16,11.24-9.27,16.84-13.94c-0.54-0.7-1.07-1.41-1.61-2.11
		c-16.67,6.3-33.33,12.59-50,18.89c-0.54-0.96-1.07-1.91-1.61-2.87c2.66-2.78,5.17-5.72,8.01-8.3c8.7-7.9,18.11-15.11,26.2-23.58
		c20.76-21.71,34.16-47.99,42.31-76.48c10.77-37.68,11.42-75.46-6.61-111.62c-18.19-36.48-54.6-53.23-91.25-42.12
		c-17.46,5.3-31.15,15.64-37.57,33.33c-4.83,13.31-4.22,13.75,9.15,16.44c1.51,0.3,3.11,0.72,4.38,1.53
		c6.09,3.85,9.02,1.32,12.11-4.45c7.16-13.39,19.34-18.27,33.58-13.95c13.41,4.07,20.68,14.73,25.56,26.71
		c15.39,37.76,2.87,83.35-30.2,107.64c-37.7,27.69-80.6,32.5-124.91,22.9c-33.93-7.35-52.28-2.64-73.14,24.47
		c-1.13,1.47-2.47,2.79-3.67,4.22c-9.83,11.73-24.64,20.59-40.92,11.29c-3.7-2.11-8.41-2.45-13.91-3.94
		C204.98,482.7,259.69,586.38,340.38,677.69z M705.26,180.06c1.48-17.5-7.59-29.68-21.09-38.81c-32.93-22.28-74.12-14.39-98.57,17.5
		c-26.16,34.13-29.4,73.48-20.37,113.95c10.48,47.02,34,86.24,73.96,114.66c2.74,1.95,4.42,5.4,6.59,8.16
		c-0.68,0.72-1.37,1.44-2.05,2.17c-16.83-6.46-33.65-12.92-52.92-20.31c2,3.62,2.24,4.6,2.86,5.1c5.34,4.25,10.57,8.67,16.18,12.55
		c37.43,25.87,73.47,53.42,102.7,88.68c38.98,47.02,53.92,100.94,44.75,161.4c-1.58,10.44-3.23,20.88-4.85,31.32
		c0.82,0.3,1.64,0.61,2.45,0.91c80.81-91.22,135.26-195,151.03-319.39c-7.01,2.24-12.65,3.62-17.94,5.82
		c-11.48,4.78-21.29,1.86-29.96-6.05c-3.88-3.54-7.75-7.38-10.53-11.78c-15.69-24.92-38.96-30.14-65.75-25.09
		c-22.54,4.25-44.97,8.51-67.98,4.44c-31.2-5.52-60.2-15.48-80.64-41.7c-24.09-30.91-29.98-74.05-5.02-106.74
		c14.71-19.27,38.79-17.96,50.93,3c1.35,2.33,5.07,4.92,7.43,4.69C692.46,183.93,698.3,181.82,705.26,180.06z"/>
	<path class="st3" d="M1200.63,261.71c12.62,4.92,23.96,8.31,34.35,13.58c34.28,17.38,46.51,55.64,27.7,88.54
		c-12.74,22.3-34.89,32.32-58.76,37.59c-13.8,3.05-28.27,3.95-42.46,4.14c-39.01,0.53-78.02,0.18-117.04,0.19
		c-3.72,0-7.43,0-11.91,0c0-3.44,0-6.26,0-9.6c4.28-0.33,8.29-0.46,12.25-0.98c14.26-1.88,22.3-10.71,22.31-25
		c0.08-64.83,0.08-129.66,0-194.5c-0.02-15.72-8.81-24.34-26.36-26.33c-2.45-0.28-4.96-0.04-8.39-0.04
		c-0.22-3.35-0.41-6.25-0.67-10.36c4.1,0,7.44,0,10.78,0c40.57,0,81.15-0.24,121.72,0.1c19.58,0.16,38.78,3.22,57.01,10.94
		c21.47,9.1,34.87,24.19,36.63,48.28c1.81,24.81-10.16,41.44-31.2,52.44C1218.74,254.8,1210.26,257.68,1200.63,261.71z
		 M1131.07,326.43c0,15.9-0.01,31.79,0,47.69c0.01,8.59,3.13,15.65,11.96,17.75c15.46,3.67,30.88,2.28,42.95-8.56
		c18.11-16.25,18.37-38.29,16.26-60.41c-1.93-20.21-8.86-38.15-29.27-45.9c-10.41-3.95-22.27-4.16-33.49-5.93
		c-6.67-1.05-8.62,2.34-8.51,8.6C1131.25,295.26,1131.07,310.84,1131.07,326.43z M1131.04,259.51c11.37-1.32,21.03-1.62,30.29-3.7
		c13.45-3.01,23.7-10.61,27.64-24.64c4.97-17.71,4.84-35.49-0.04-53.19c-6.12-22.18-21.83-29.33-44.45-26.12
		c-10.13,1.44-13.48,7.42-13.44,16.77c0.1,21.52,0.02,43.04,0.01,64.55C1131.04,241.25,1131.04,249.3,1131.04,259.51z"/>
	<path class="st3" d="M1320.62,148.72c0-3.14,0-5.83,0-9.15c75.46,0,150.81,0,226.87,0c0,25.99,0,51.71,0,77.74
		c-6.04,2.77-8.42,0.47-10.24-5.67c-2.98-10.01-6.19-20.16-11-29.38c-11.26-21.59-32.31-26.74-54.09-28.94
		c-12.04-1.22-24.32-0.79-36.44-0.17c-12,0.61-15.34,4.61-15.36,16.36c-0.06,30.5-0.02,61.01-0.02,91.4
		c30.86,4.18,48.34-6.89,56.46-30.83c2.18-6.43,4.45-12.93,5.63-19.59c1.11-6.23,3.91-7.86,10.26-5.65c0,43.8,0,87.87,0,132.63
		c-4.93,0.88-9.12,2.19-9.78-5.97c-0.54-6.68-3.14-13.19-4.86-19.77c-6.77-25.89-27.23-36.12-56.76-34.67
		c-0.3,1.65-0.88,3.42-0.89,5.18c-0.06,31.18-0.13,62.36-0.01,93.53c0.04,10.2,4.16,15.93,15.97,16.9
		c30.14,2.46,60.84,2.11,84.87-19.19c12.92-11.46,22.79-26.93,31.82-41.93c4.23-7.03,7.57-8.43,15-6.49
		c-5.03,25.51-9.83,50.91-15.41,76.15c-0.47,2.11-6.17,4.32-9.46,4.35c-36.21,0.31-72.42,0.2-108.64,0.2c-34.34,0-68.68,0-103.02,0
		c-3.38,0-6.77,0-10.12,0c-2.67-7.36-1.09-10.08,6.55-10.36c19.78-0.73,27.83-9.58,27.84-29.47c0.03-61.42,0.01-122.84,0.01-184.26
		c0-22.35-8-30.91-30.27-32.43C1324.01,149.13,1322.51,148.92,1320.62,148.72z"/>
	<path class="st3" d="M2229.13,148.5c0-3.2,0-5.89,0-9.07c75.59,0,150.73,0,226.66,0c0,25.96,0,51.93,0,78.49
		c-2.7,0.2-5.39,0.39-8.06,0.58c-0.62-1.18-1.12-1.94-1.43-2.77c-4.28-11.58-7.45-23.72-13.02-34.64
		c-10.58-20.75-31.17-25.26-51.77-27.74c-12.31-1.48-24.94-0.94-37.38-0.38c-11.2,0.5-16.28,4.49-16.51,15.07
		c-0.68,31.08-0.24,62.18-0.24,93.18c38,3.93,51.26-9.66,60.43-40.12c0.98-3.25,1.48-6.65,2.26-9.96c1.78-7.55,2.19-7.77,11.48-5.94
		c0,43.76,0,87.62,0,132.15c-2.77,0.3-5.42,0.58-8.09,0.87c-0.65-1.11-1.28-1.81-1.53-2.64c-3.31-11.25-5.57-22.92-10.04-33.69
		c-7.84-18.91-28.13-26.67-54.22-24.67c-0.16,2.89-0.46,5.9-0.47,8.91c-0.04,27.13-0.05,54.25-0.01,81.38
		c0.03,19.97,5.98,25.58,26.25,25.92c21.63,0.36,42.9-0.97,62.69-10.91c21.7-10.9,34.36-29.98,44.84-50.68
		c3.17-6.25,6.32-9.65,14.77-6.4c-5.17,26.47-10.39,53.19-15.59,79.81c-77.62,0-154.01,0-230.93,0c0-3.15,0-5.79,0-8.7
		c1.76-0.35,3.25-0.81,4.76-0.93c21.86-1.66,30.16-9.17,30.3-30.46c0.41-61.73,0.41-123.47,0-185.2
		C2264.13,158.21,2256.07,151.54,2229.13,148.5z"/>
	<path class="st3" d="M2105.44,148.24c0-2.98,0-5.44,0-8.6c27.52,0,54.79,0,82.68,0c2.48,5.17,2.25,8.98-4.73,10.49
		c-20.59,4.46-24.82,8.41-24.81,35.16c0.02,72.01,0.01,144.01,0.01,216.02c0,3.67,0,7.34,0,10.97c-7.15,2.24-11.57,1.06-16.13-4.51
		c-54.83-66.99-109.95-133.73-165.03-200.51c-1.28-1.55-2.94-2.8-6.24-5.9c0,5.43,0,8.68,0,11.92c0,48.94,0.57,97.89-0.25,146.81
		c-0.4,23.89,13.04,35.73,33.18,35.56c1.19-0.01,2.38,0.5,4,0.87c0,2.82,0,5.47,0,8.67c-29.52,0-58.76,0-88.55,0
		c-2.32-6-1.82-9.67,6.25-9.72c18.65-0.13,27.44-10.05,27.52-29.92c0.25-59.54,0.22-119.07-0.15-178.61
		c-0.03-4.96-2.31-11-5.64-14.61c-7.68-8.32-16.86-15.25-24.97-23.21c-2.07-2.03-2.39-5.83-4.02-10.16c28.93,0,55.72-0.11,82.5,0.2
		c2.1,0.02,4.58,2.62,6.2,4.58c28.68,34.67,57.23,69.44,85.86,104.15c15.12,18.34,30.33,36.6,47.11,56.83
		c0.28-5.55,0.58-8.78,0.58-12c0.03-33.66,0.02-67.33,0.02-100.99C2140.84,160.04,2136.61,154.75,2105.44,148.24z"/>
	<path class="st3" d="M1796.19,148.43c0-3.18,0-5.85,0-9c27.85,0,55.19,0,82.31,0c3.12,7.21-0.33,9.8-6.37,11.49
		c-20.86,5.85-22.74,8.46-22.74,29.8c0,73.6,0,147.2,0,220.79c0,3.66,0,7.32,0,10.74c-7.68,2.38-12.35,0.94-17.13-4.92
		c-45.31-55.56-90.96-110.83-136.57-166.14c-10.8-13.1-21.81-26.03-34.62-41.28c-0.45,5.56-0.88,8.39-0.88,11.23
		c-0.04,48.03-0.14,96.05,0.09,144.08c0.03,7.03,1.09,14.2,2.79,21.04c3.16,12.78,13.87,16.49,25.12,19.01
		c2.1,0.47,4.77-0.42,6.42,0.58c1.93,1.16,3.81,3.57,4.15,5.7c0.18,1.11-2.95,3.98-4.6,3.99c-28.06,0.25-56.12,0.18-84.86,0.18
		c-0.2-3.31-0.37-5.93-0.55-8.89c1.94-0.49,3.38-1.16,4.83-1.17c25.86-0.24,29.83-13.86,30.07-30.6c0.87-60.49,0.65-121-0.14-181.49
		c-0.08-5.8-6.4-12.1-10.98-17.11c-6.5-7.11-14.07-13.24-21.18-19.79c-0.73,0.63-1.46,1.26-2.19,1.89c0-2.72,0-5.43,0-8.61
		c1.05-0.3,2.17-0.9,3.28-0.91c25.29-0.07,50.59-0.27,75.87,0.16c3.35,0.06,7.58,2.66,9.83,5.38
		c41.78,50.44,83.31,101.08,124.93,151.66c1.91,2.32,4.13,4.39,8.46,6.06c0-3.18,0-6.36,0-9.54c0-33.99,0-67.98,0-101.98
		C1831.56,161.94,1825.52,154.56,1796.19,148.43z"/>
	<path class="st3" d="M2040.14,670.31c329.42,0,658.83-0.01,988.25,0.11c5.55,0,14.62-3.2,14.51,6.52
		c-0.11,9.14-8.94,5.74-14.09,5.74c-659.15,0.15-1318.29,0.14-1977.44,0.14c-2.5,0-5.37,0.75-7.4-0.23
		c-2.89-1.39-5.16-4.06-7.69-6.19c2.71-2.03,5.16-4.68,8.2-5.89c2.42-0.97,5.54-0.2,8.35-0.2
		C1381.93,670.31,1711.04,670.31,2040.14,670.31z"/>
	<path class="st3" d="M2520.72,217.77c0-26.49,0-52.14,0-78.3c79.54,0,157.76,0,237.59,0c0,25.85,0,51.77,0,78.36
		c-2.36,0-5.91,0-9.45,0c-10.95-53.8-38.77-66.93-77.09-64.63c0,3.47,0,7.05,0,10.64c0,65.45,0.36,130.91-0.18,196.36
		c-0.21,25.75,9.25,37.39,34.48,35.43c1.19-0.09,2.43,0.32,4.62,0.65c0.14,2.84,0.27,5.66,0.43,8.99c-47.28,0-93.67,0-140.3,0
		c-1.66-5.81-1.91-9.66,5.96-9.8c28.88-0.51,31.16-12.24,31.51-31.72c1.22-67.93,0.44-135.89,0.56-203.83
		c0.01-5.71-2.2-7.34-7.75-7.52c-36.43-1.16-63.06,20.53-67.95,56.4C2532.01,217.28,2528.83,220.46,2520.72,217.77z"/>
	<path class="st3" d="M2895.48,153.39c-40.49-3.25-67.5,15.19-75.32,57.14c-1.51,8.08-1.43,8.1-11.17,7.46c0-25.89,0-51.79,0-78.37
		c79.6,0,158.05,0,237.09,0c0,25.85,0,51.57,0,77.32c-9.35,2.57-10.14,2.06-11.75-7.58c-6.04-36.31-30.95-57.37-66.83-56.98
		c-6.22,0.07-8.82,1.52-8.79,8.32c0.21,67.01-0.6,134.04,0.55,201.03c0.36,21,2.23,33.16,32.38,34.07c2.36,0.07,4.63,3.23,6.95,4.95
		c-1.71,1.65-3.42,4.72-5.14,4.73c-44.59,0.26-89.17,0.21-133.85,0.21c-3.43-8.22-0.31-10.13,7.15-10.26
		c20.2-0.35,29.04-9.11,29.1-29.31c0.2-69.19,0.07-138.39,0.05-207.58C2895.89,157.03,2895.66,155.51,2895.48,153.39z"/>
	<path class="st3" d="M2197.89,539.5c17.4,22.78,34.3,44.92,51.89,67.96c-13.54,0-27.37,0.22-41.18-0.24
		c-2.06-0.07-4.37-3.02-5.96-5.09c-14.3-18.68-28.47-37.47-43.65-57.5c-0.84,3.02-1.75,4.81-1.78,6.61
		c-0.14,10.29,0.02,20.58-0.11,30.87c-0.12,9.92,1.87,18.05,13.86,19.44c1.67,0.19,3.12,2.26,6.73,5.05c-25.6,0-48.66,0-74.95,0
		c4.08-2.83,5.91-5.05,8.07-5.43c8.73-1.53,11.96-6.91,11.96-15.14c-0.01-33.03-0.05-66.07,0.06-99.1
		c0.03-9.17-3.72-14.75-13.21-15.99c-1.58-0.21-3.01-1.53-6.84-3.6c4.24-1.3,6.28-2.49,8.3-2.46c27.41,0.39,54.86,0.29,82.21,1.84
		c8.57,0.49,17.94,3.95,25.1,8.78c18.97,12.78,17.81,41.72-1.52,54.36C2211.51,533.39,2205.4,535.75,2197.89,539.5z M2157.21,533.18
		c20.69,2.82,33.71-3.11,37.2-16.56c2.87-11.05,2.36-21.99-2.61-32.53c-4.58-9.7-21.55-15.58-30.46-10.04
		c-2,1.25-3.91,4.41-3.96,6.73C2157.06,498.12,2157.21,515.47,2157.21,533.18z"/>
	<path class="st3" d="M1939.33,529.47c24.05,3.74,29.91-12.28,33.83-30.89c5.42,7.73,5.4,65.31,0.03,72.86
		c-2.99-19.68-9.92-34.69-33.78-32.64c0,18.06-0.28,36.05,0.34,54c0.08,2.31,4.53,5.89,7.43,6.46c23.26,4.59,48.23-3.04,60.79-28.23
		c1.57-3.14,4.7-5.5,7.1-8.22c0.81,0.59,1.63,1.17,2.44,1.76c-2.8,14.09-5.6,28.17-8.4,42.27c-41.31,0-81.95,0-122.58,0
		c-0.29-0.72-0.57-1.45-0.86-2.17c2.36-1.2,4.6-3.01,7.1-3.48c8.03-1.51,11.86-6.27,11.87-14.16c0.06-33.66,0.01-67.32,0.04-100.97
		c0.01-8.44-4.21-13.26-12.34-15.02c-2.19-0.47-4.29-1.37-7.14-2.3c5.8-4.47,106.54-5.98,120.88-2.58c0,13.37,0,26.77,0,40.18
		c-0.77,0.26-1.54,0.52-2.3,0.79c-1.19-2.41-2.76-4.72-3.5-7.26c-5.19-17.74-15.41-26.6-34.28-26.91
		c-31.74-0.51-26.29-2.89-26.66,24.79C1939.21,508.28,1939.33,518.79,1939.33,529.47z"/>
	<path class="st3" d="M1321.84,606.92c-17,0-32.6,0-48.2,0c-0.32-0.65-0.64-1.3-0.96-1.95c1.92-1.28,3.78-3.53,5.79-3.68
		c10.88-0.82,13.19-8.68,13.3-16.97c0.4-30.85,0.42-61.7,0.02-92.55c-0.13-10.09-8.48-15.19-15.61-20.65
		c-1.1-0.84-2.04-1.88-4.06-3.77c2.84-1.12,4.57-2.08,6.42-2.44c1.8-0.35,3.79,0.21,5.59-0.15c25.41-5.07,42.05,5.76,56.25,26.59
		c14.41,21.14,32.28,39.91,49.84,61.18c0.55-3.9,1.13-6.12,1.14-8.34c0.08-16.83-0.12-33.66,0.09-50.48
		c0.17-13.05-3.05-21.32-16.89-23.46c-0.69-0.11-1.22-1.23-1.83-1.89c4.87-4.52,35.61-5.25,44.6-0.8c-1.41,1.31-2.46,3.15-3.81,3.4
		c-10.37,1.94-13.04,8.54-12.96,18.28c0.32,36.44,0.13,72.89,0.13,109.33c0,3.98,0,7.96,0,14.95c-4.67-3.22-7.66-4.45-9.49-6.65
		c-28.34-34.12-56.53-68.37-84.78-102.57c-1.13-1.37-2.58-2.47-5.28-5.02c-0.31,4.41-0.69,7.27-0.69,10.14
		c-0.05,23.37-0.04,46.74-0.02,70.11c0.01,14.72,1.64,16.91,15.9,21.83c1.16,0.4,2.32,0.98,3.27,1.73
		C1320.23,603.6,1320.5,604.56,1321.84,606.92z"/>
	<path class="st3" d="M1042.36,467.14c9.64-3.82,66.15-3.11,73.33,1.78c-4.09,0.96-6.78,1.71-9.52,2.21
		c-7.67,1.4-12.19,5.04-12.12,13.69c0.24,28.69-0.12,57.38,0.17,86.06c0.17,16.74,10.12,28.43,24.65,30.14
		c18.85,2.22,34.88-6.8,39.05-22.81c1.85-7.09,2.67-14.61,2.79-21.95c0.36-21.51,0.13-43.03,0.12-64.54
		c-0.01-13.82-1.66-16.04-15.03-20.79c-1.49-0.53-2.72-1.8-3.66-4.74c15.16,0,30.32,0,45.48,0c0.23,0.8,0.47,1.61,0.7,2.41
		c-2.45,1.1-4.81,2.45-7.36,3.24c-6.87,2.13-10.03,6.35-9.94,13.78c0.27,21.51,0.92,43.07-0.23,64.53
		c-0.67,12.43-3.32,25.09-7.23,36.93c-5.18,15.68-18.99,21.97-34.16,23.57c-17.68,1.86-35.56,1.96-51.27-8.81
		c-12.66-8.67-17.7-21.44-17.96-36.05c-0.42-23.69-0.29-47.4-0.04-71.09c0.13-11.91-0.52-22.81-15.8-24.72
		C1043.77,469.91,1043.36,468.62,1042.36,467.14z"/>
	<path class="st3" d="M3001.27,606.75c-23.66,0-47.31,0-70.97,0c-0.31-0.64-0.63-1.27-0.94-1.91c2.54-1.28,4.96-3.13,7.66-3.72
		c7.54-1.64,11.29-5.92,11.28-13.66c-0.02-10.9,2.12-22.29-0.37-32.57c-2.62-10.78-9.45-20.6-14.75-30.67
		c-6.06-11.51-11.89-23.23-18.93-34.14c-5.3-8.21-12.36-15.3-18.76-23.04c3.58-3.31,60.76-4,70.53,1.53
		c-4.9,1.1-8.12,2.22-11.41,2.48c-7.28,0.59-9.56,3.86-6.11,10.41c9.2,17.5,18.5,34.94,28.89,54.56
		c6.6-10.47,12.28-19.09,17.55-27.96c4.1-6.88,8.28-13.82,11.37-21.17c4.3-10.2,1.75-14.01-9.02-15.92
		c-1.98-0.35-3.85-1.29-7.99-2.72c3.56-1.78,5.18-3.28,6.83-3.31c11.85-0.21,23.71-0.23,35.56-0.02c1.8,0.03,3.58,1.59,5.37,2.43
		c-1.36,1.28-2.67,2.62-4.1,3.82c-3.72,3.12-8.56,5.49-11.05,9.37c-12.03,18.82-23.69,37.9-34.89,57.22
		c-2.64,4.55-3.88,10.36-4.19,15.69c-0.62,10.56-0.16,21.18-0.13,31.77c0.02,8.83,3.03,15.07,13.03,16.03
		c2.2,0.21,4.23,2.17,6.34,3.33C3001.8,605.32,3001.53,606.03,3001.27,606.75z"/>
	<path class="st3" d="M2339.84,608.19c0-15.71,0-32,0-48.28c1.01-0.38,2.01-0.76,3.02-1.13c1.98,4.21,4.49,8.26,5.85,12.67
		c4.41,14.33,13.42,24.29,27.18,30.05c10.63,4.45,25.91,1.14,31.52-6.78c9.16-12.92,6.84-25.63-7.11-33.95
		c-11.45-6.83-24.22-11.6-35.13-19.12c-8.41-5.8-16.84-13.35-21.7-22.1c-8.61-15.5-3.55-31.04,7.14-43.97
		c11.06-13.37,26.29-16.62,42.92-13.42c6.95,1.34,13.69,4.51,20.64,4.92c4.82,0.29,9.83-2.72,15.51-4.49c0,13.75,0,28.76,0,43.77
		c-0.76,0.27-1.52,0.54-2.28,0.81c-1.21-2.4-2.49-4.77-3.62-7.2c-6.96-15.01-15.02-28.6-33.57-31.63
		c-9.96-1.62-20.46,2.86-24.88,11.89c-4.36,8.91-2.66,18.55,6.59,24.42c12.53,7.96,25.93,14.62,39.2,21.35
		c25.82,13.09,34.48,39.29,20.05,63.05c-7.33,12.07-18.41,19.48-32.69,20.31c-13.62,0.79-27.15,1.15-40.52-4.27
		C2353.36,603.23,2346.51,606.89,2339.84,608.19z"/>
	<path class="st3" d="M2812.02,506.78c-4.53-8.44-7.39-18.68-14.04-24.82c-6.69-6.17-17.15-8.25-27.89-12.97
		c-0.35,6.17-0.7,9.42-0.7,12.66c-0.04,33.66-0.03,67.31-0.02,100.97c0.01,14.29,0.48,14.8,14.68,19c2.13,0.63,4.05,1.99,5.67,4.84
		c-24.43,0-48.86,0-73.29,0c-0.3-0.55-0.59-1.09-0.89-1.64c2.59-1.26,5.06-3.09,7.79-3.66c7.14-1.47,11.06-5.73,11.29-12.75
		c0.61-18.97,0.97-37.95,1.19-56.93c0.19-16.51,0.08-33.03,0-49.55c-0.02-3.29-0.48-6.58-0.73-9.82
		c-24.99,1.13-34.39,7.77-39.98,29.03c-0.56,2.11-2.98,3.74-4.54,5.59c-0.86-2.03-2.42-4.04-2.47-6.08
		c-0.25-10.28-0.12-20.56-0.07-30.85c0.01-1.2,0.33-2.4,0.6-4.3c2.8-0.23,5.52-0.66,8.25-0.66c36.2-0.04,72.39,0.15,108.59-0.18
		c7.3-0.07,10.14,2.02,9.64,9.48c-0.54,8.07-0.04,16.2-0.17,24.3c-0.05,2.78-0.64,5.55-0.98,8.33
		C2813.29,506.77,2812.65,506.77,2812.02,506.78z"/>
	<path class="st3" d="M1746.22,561.4c2.78-6.7,4.7-11.09,6.44-15.55c7.55-19.36,15.39-38.62,22.44-58.15
		c4.24-11.75,2.03-14.61-10.18-16.96c-1.92-0.37-3.73-1.25-6.1-2.06c6.11-5,38.32-5.38,45.56-1.05c-0.4,0.76-0.69,2.1-1.24,2.22
		c-13.08,2.76-16.83,13.62-20.9,24.07c-12.7,32.63-25.3,65.29-37.92,97.95c-1.68,4.34-2.87,8.92-4.96,13.04
		c-1.24,2.44-3.8,4.21-5.77,6.29c-1.67-1.94-3.94-3.61-4.92-5.85c-12.55-28.68-24.94-57.42-37.32-86.18
		c-4.05-9.4-7.71-18.97-11.95-28.29c-4.31-9.49-7.99-19.74-21.1-21.62c6.3-5.61,63.76-6.11,72.86-0.49
		c-4.84,1.03-8.11,1.88-11.44,2.4c-6.64,1.03-9.71,4.61-7.03,11.04C1723.38,507.87,1734.35,533.42,1746.22,561.4z"/>
	<path class="st3" d="M1318.59,763.05c-13.53,31.29-27.05,62.58-41.69,96.45c-14.9-28.84-28.43-55.05-43.22-83.68
		c0,26.55,0,50.31,0,74.73c4.45,0.55,8.74,1.08,13.03,1.62c-0.06,0.68-0.13,1.37-0.19,2.05c-11.58,0-23.15,0-34.73,0
		c-0.11-0.7-0.21-1.39-0.32-2.09c4.54-0.5,9.08-1.01,14.08-1.56c0-34.63,0-68.78,0-103.66c-4.79-0.46-9.47-0.91-14.15-1.36
		c-0.1-0.85-0.2-1.71-0.3-2.56c3.5-0.43,7.02-0.73,10.49-1.33c14.73-2.53,23.4,2.27,29.31,17.31c8.92,22.7,20.98,44.18,32.75,68.31
		c4.64-10.1,8.82-18.72,12.6-27.52c7.35-17.07,14.2-34.36,21.95-51.25c1.4-3.05,5.89-6.09,9.29-6.52
		c7.68-0.97,15.57-0.41,23.37-0.23c2.02,0.05,4.02,0.96,6.03,1.48c-0.09,0.79-0.18,1.58-0.27,2.37c-4.44,0.33-8.88,0.65-14.05,1.03
		c0,34.37,0,68.77,0,103.82c4.29,0.58,8.66,1.18,13.03,1.77c-0.03,0.59-0.06,1.18-0.09,1.78c-16.55,0-33.09,0-51.6,0
		c2.69-1.42,3.93-2.68,4.94-2.52c10.98,1.79,12.74-3.72,12.46-13.31c-0.65-21.8-0.2-43.64-0.2-65.46c0-3.01,0-6.02,0-9.03
		C1320.26,763.48,1319.43,763.26,1318.59,763.05z"/>
	<path class="st3" d="M2599.28,803.49c0,15.34,0,30.77,0,46.98c4.78,0.54,9.53,1.08,14.28,1.61c-0.02,0.57-0.03,1.14-0.05,1.72
		c-17.51,0-35.03,0-52.54,0c-0.07-0.61-0.13-1.21-0.2-1.82c4.66-0.4,9.32-0.8,14.55-1.26c0-34.74,0-69.14,0-103.99
		c-5.11-0.38-9.85-0.72-14.59-1.07c-0.13-0.7-0.26-1.39-0.4-2.09c1.96-0.62,3.92-1.78,5.89-1.79c19.96-0.13,39.93-0.53,59.88,0.05
		c19.22,0.55,33.79,14.53,32.83,30.84c-0.64,10.83-5.5,19.45-15.58,24.52c-3,1.51-6.01,2.97-10.15,5.02
		c12.42,17.44,19.24,38.25,36.52,52.53c-8.58,0-18.51,0.31-28.39-0.29c-1.79-0.11-3.65-3.78-4.96-6.09
		c-7.17-12.68-14.65-25.22-21.07-38.27C2611.69,802.78,2607.11,800.88,2599.28,803.49z M2598.73,747.29
		c0,15.24-0.11,30.11,0.13,44.98c0.03,2.02,1.35,5.12,2.93,5.84c11.02,5.01,27.63-2.87,31.43-14.44
		C2639.92,763.25,2629.67,740.72,2598.73,747.29z"/>
	<path class="st3" d="M2602.16,606.89c-23.68,0-47.36,0-71.05,0c-0.31-0.67-0.61-1.34-0.92-2c2.27-1.26,4.45-3.41,6.81-3.63
		c8.65-0.81,12.09-6.34,12.15-13.79c0.27-34.25,0.26-68.51,0.01-102.76c-0.05-7.71-4.38-12.61-12.5-13.65
		c-2.16-0.28-4.21-1.37-7.12-2.36c6.67-4.65,63.77-5.46,75.01-1.03c-3.61,1.58-5.65,2.98-7.88,3.37
		c-8.23,1.46-12.76,6.04-12.77,14.48c-0.06,33.94-0.05,67.89,0,101.83c0.01,7.48,3.74,12.07,11.17,13.77
		c2.74,0.63,5.33,1.96,7.98,2.97C2602.76,605.03,2602.46,605.96,2602.16,606.89z"/>
	<path class="st3" d="M1577.64,468.87c-4.08,1-6.75,1.81-9.48,2.29c-7.26,1.26-10.85,5.69-10.87,12.83
		c-0.08,34.87,0.04,69.74-0.1,104.6c-0.03,7.3,3.97,10.58,10.28,12.37c2.98,0.85,5.87,2.01,8.8,3.03c-0.15,0.81-0.3,1.62-0.46,2.42
		c-23.78,0-47.55,0-74.55,0c4.44-2.67,6.52-4.78,8.89-5.18c8.06-1.36,12.11-5.83,12.13-13.88c0.07-34.24,0.22-68.48-0.02-102.72
		c-0.05-7.6-3.96-12.89-12.43-13.63c-2.13-0.19-4.16-1.41-7.08-2.45C1510.35,463.5,1569.54,463.49,1577.64,468.87z"/>
	<path class="st3" d="M2077.88,743.6c1.25-0.62,2.51-1.78,3.75-1.76c21.16,0.32,42.64-1.41,63.4,1.7
		c35.76,5.35,47.98,29.4,47.07,56.84c-1.18,35.51-26.68,53.61-54.61,54.51c-17.76,0.57-35.56,0.14-53.35,0.06
		c-1.94-0.01-3.88-0.59-6.06-0.95c0.73-1.23,0.94-2.07,1.31-2.15c13.94-2.8,13.94-2.8,13.94-17.43c0-25.55,0-51.1,0-76.65
		c0-3.38,0-6.75,0-10.8c-5.53-0.5-10.27-0.93-15.01-1.36C2078.17,744.94,2078.02,744.27,2077.88,743.6z M2116.45,746.57
		c0,35.4,0,69.71,0,104.75c4.47,0,8.16,0,11.85,0c20.59,0.01,31.39-7.53,35.36-27.91c2.57-13.22,3.12-27.11,2.37-40.58
		c-0.46-8.25-3.62-17.2-8.11-24.21C2148.11,743.32,2132,745.95,2116.45,746.57z"/>
	<path class="st3" d="M2738.93,856.6c-30.15,1.2-58.77-20.46-58.63-58.32c0.12-34.21,23.16-57.95,58.91-58.36
		c33.17-0.38,58.48,21.2,58.79,58.97C2798.27,832.03,2769.71,859.67,2738.93,856.6z M2773.62,798.55
		c-1.8-10.53-2.82-20.71-5.36-30.49c-4.15-15.99-14.02-23.39-29.23-23.37c-14.04,0.02-25.5,9.09-29.43,23.88
		c-5.37,20.18-5.17,40.49,0.08,60.64c3.72,14.3,14.35,22.64,28.01,22.76c17.01,0.15,26.09-5.83,30.27-21.67
		C2770.7,819.91,2771.8,809.1,2773.62,798.55z"/>
	<path class="st3" d="M1736.39,797.51c3.04,33.18-26.98,59.66-57.35,59.65c-30.11-0.01-60.5-22.01-59.98-59.28
		c0.47-34.09,24.84-58.27,59.42-57.98C1714.07,740.2,1737.12,763.42,1736.39,797.51z M1644.41,795.83
		c1.12,11.21,1.46,20.25,3.03,29.08c2.77,15.53,13.16,26.09,25.5,27c18.98,1.4,27.97-3.65,33.93-21.77
		c6.94-21.1,6.5-42.88,0.04-63.95c-4.73-15.42-15.09-21.73-29.99-21.46c-13.59,0.24-23.38,7.52-27.87,22.98
		C1646.23,777.4,1645.67,787.76,1644.41,795.83z"/>
	<path class="st3" d="M2515.34,808.44c-6.11-0.41-11.33-0.76-16.55-1.11c0.06-0.92,0.13-1.84,0.2-2.77c17.05,0,34.1,0,51.15,0
		c0.07,0.82,0.14,1.65,0.22,2.47c-3.72,0.52-7.45,1.05-12.38,1.74c0,14.95,0,30.04,0,45.98c-5.19-0.81-9.05-1.8-12.93-1.93
		c-4.72-0.15-9.81-0.59-14.13,0.88c-31.8,10.86-66-3.68-76.26-33.33c-9.5-27.46-1.59-64.11,30.08-75.77
		c9.15-3.37,19.82-3.72,29.76-3.51c12.59,0.26,25.14,2.49,37.78,3.89c0,10.83,0,22.96,0,35.08c-0.81,0.21-1.62,0.42-2.43,0.64
		c-1.7-4.31-3.4-8.63-5.09-12.94c-7.84-19.93-26.96-28.19-46.06-20c-9.61,4.12-15.4,11.75-18.11,21.28
		c-5.61,19.76-5.66,39.77-0.29,59.65c7.23,26.77,36.15,27.77,50.98,17.63c1.98-1.35,3.79-4.44,3.89-6.79
		C2515.59,829.33,2515.34,819.11,2515.34,808.44z"/>
	<path class="st3" d="M1971.92,767.41c0,29.03,0,55.67,0,83.03c4.94,0.61,9.87,1.22,14.8,1.83c-0.05,0.63-0.1,1.26-0.15,1.89
		c-11.57,0-23.14,0-34.71,0c-0.11-0.58-0.22-1.16-0.33-1.73c3.89-0.62,7.78-1.23,12.32-1.95c0-34.4,0-68.81,0-103.73
		c-4.23-0.4-8.31-0.79-13.1-1.24c7.43-6.29,27.55-5.09,33.05,1.45c18.59,22.07,37.07,44.23,55.63,66.33c2.52,3,5.26,5.82,8.93,9.86
		c0-26.15,0-50.84,0-76.36c-4.62-0.35-9.35-0.71-14.51-1.11c4.88-5.15,29.97-5.66,38.37-0.24c-5.82,0.48-10.22,0.85-15.84,1.31
		c0,35.6,0,71.23,0,106.62c-7.05,3.03-10.89,1.56-15.21-3.7C2018.93,822.64,1996.13,796.05,1971.92,767.41z"/>
	<path class="st3" d="M2972.41,806.23c0,15.04,0,29.28,0,44.42c5.96,0.45,11.6,0.87,17.24,1.3c-0.05,0.68-0.09,1.36-0.14,2.04
		c-17.96,0-35.92,0-53.87,0c-0.1-0.64-0.19-1.29-0.29-1.93c4.57-0.44,9.14-0.88,14.17-1.36c0-34.89,0-69.28,0-104.06
		c-5-0.32-9.51-0.61-15.41-0.98c1.74-1.86,2.63-3.63,3.52-3.63c22.11,0,44.35-1.18,66.3,0.76c20.25,1.79,28.67,12.52,28.44,30.06
		c-0.27,19.61-13.01,28.19-30.6,31.19C2992.35,805.64,2982.65,805.52,2972.41,806.23z M2972.8,746.36c0,17.67,0,35.03,0,52.97
		c11.53-0.86,24.29,3.93,31.17-8.16c6.56-11.52,6.89-24.68-0.06-36.3C2996.91,743.15,2984.54,746.51,2972.8,746.36z"/>
	<path class="st3" d="M1485.46,848.31c-1.18,2.5-2.21,4.69-3.25,6.89c-0.71-0.17-1.41-0.34-2.12-0.51c0-12.45,0-24.9,0-40.64
		c2.91,3.21,5.12,4.67,5.9,6.69c1.87,4.88,2.48,10.29,4.66,15c7.87,17.04,25.75,19.87,40.37,13.8c12.78-5.3,15.65-21.6,5.17-30.67
		c-7.59-6.57-17-11.08-25.73-16.3c-4.78-2.86-10.08-4.91-14.72-7.96c-10.58-6.96-17.26-16.31-14.81-29.68
		c2.15-11.76,13.75-21.6,27.13-23.56c13.27-1.94,26.28-1.35,39.17,3.11c3.2,1.11,7.48-0.9,13.06-1.74c0,8.83,0.07,19.08-0.16,29.33
		c-0.02,0.72-3.13,2.18-3.35,1.94c-1.28-1.37-2.57-3.02-3.03-4.79c-4.29-16.62-15.36-25.33-31.43-24.5
		c-7.64,0.4-14.19,3.11-17.3,10.5c-3.17,7.55-1.98,15.22,4.2,20.53c5.78,4.96,12.74,8.61,19.37,12.51
		c6.93,4.08,14.21,7.57,21.1,11.71c11.2,6.72,16.83,16.96,14.57,29.75c-2.23,12.67-11.34,20.36-23.29,24.26
		C1524.74,859.29,1507.72,857.39,1485.46,848.31z"/>
	<path class="st3" d="M1380.75,746.68c-4.9-0.37-9.36-0.72-14.59-1.12c5.21-4.43,77.53-5.84,91.63-2.37c0,10.8,0,21.72,0,33.26
		c-6.73-9.77-11.04-21.92-19.53-26.77c-9-5.14-21.97-3.34-33.98-4.66c0,17.4,0,32.82,0,49.99c12.16,0,24.25,0,36.33,0
		c0,0.98,0,1.95-0.01,2.93c-11.79,0-23.58,0-36.15,0c0,18.09,0,35.01,0,54.62c11.65-1.49,24.83,0.08,33.91-5.28
		c8.57-5.05,12.83-17.39,19.35-27.05c0,11.27,0,22.42,0,34.03c-30.59,0-60.5,0-90.42,0c-0.09-0.68-0.18-1.36-0.26-2.04
		c4.28-0.51,8.56-1.02,13.72-1.64C1380.75,816.36,1380.75,782,1380.75,746.68z"/>
	<path class="st3" d="M1138.21,742.41c0,13.14,0,25.53,0,37.92c-0.75,0.34-1.49,0.67-2.24,1.01c-8.64-13.83-6.96-38.04-33.37-34.71
		c0,34.52,0,68.96,0,103.8c5.08,0.71,9.91,1.39,14.74,2.06c-0.1,0.64-0.19,1.29-0.28,1.93c-18.78,0-37.56,0-56.34,0
		c-0.08-0.75-0.16-1.5-0.23-2.25c4.2-0.29,8.56,0.03,12.53-1.09c2.52-0.71,6.32-3.51,6.35-5.42c0.39-32.68,0.28-65.37,0.28-97.84
		c-15.68-3.92-24.73,2.66-29.78,20.36c-1.26,4.43-3.58,8.56-5.42,12.83c-1.28-0.34-2.57-0.69-3.85-1.03
		c0.76-12.39,1.52-24.79,2.3-37.57C1075.16,742.41,1106.81,742.41,1138.21,742.41z"/>
	<path class="st3" d="M2891.41,743.09c12.35,0,24.69,0,37.04,0c0.05,0.89,0.09,1.78,0.14,2.67c-4.65,0.27-9.3,0.53-15.2,0.87
		c0,20.45,0.38,40.57-0.17,60.68c-0.24,8.88-1.56,17.93-3.83,26.52c-3.32,12.51-12.13,20.07-25.08,21.89
		c-19.83,2.8-42.39,1.77-52.1-15.32c-4.93-8.69-6.85-19.82-7.52-30.02c-1.17-17.68-0.33-35.49-0.33-53.25c0-3.34,0-6.67,0-10.32
		c-5.6-0.44-10.09-0.8-15-1.18c4.73-5.05,44.67-5.65,53.67-0.04c-6.42,0.42-11.03,0.72-15.33,1c0,23.69-0.01,46.91,0.01,70.12
		c0,1.23,0.24,2.47,0.32,3.7c1.26,20.36,8.34,30.45,22.12,31.49c21.04,1.59,33.67-6.49,35.39-27.64
		c2.08-25.57,0.49-51.44,0.49-77.53c-5.3-0.37-9.88-0.68-14.47-1C2891.51,744.86,2891.46,743.98,2891.41,743.09z"/>
	<path class="st3" d="M1751.21,851.99c4.41-0.42,8.82-0.84,13.85-1.31c0-34.75,0-69.14,0-103.92c-4.93-0.39-9.43-0.75-14.33-1.14
		c4.17-4.45,73.76-6.2,91.28-2.57c0,10.82,0,21.83,0,34.27c-6.89-10.29-11.07-22.59-19.56-27.56c-8.93-5.22-21.98-3.43-34.03-4.79
		c0,17.35,0,32.77,0,49.9c12.1,0,24.21,0,36.32,0c0,0.98,0.01,1.95,0.01,2.93c-11.76,0-23.53,0-36.14,0c0,18.12,0,35.04,0,53.55
		c6.94,0,14.08,0,21.21,0c-0.03,0.87-0.07,1.74-0.1,2.61c-19.43,0-38.87,0-58.3,0C1751.35,853.32,1751.28,852.65,1751.21,851.99z"/>
	<path class="st3" d="M2284.4,850.63c5.73,0.56,9.93,0.97,14.14,1.39c0,0.62,0,1.24-0.01,1.86c-10.6,0-21.21,0-31.81,0
		c19.61-4.41,17.21-23.43,23.08-36.38c10.21-22.52,17.92-46.15,27.19-69.11c1.16-2.86,5.43-6.24,8.2-6.18
		c2.71,0.05,6.57,3.67,7.8,6.61c13.18,31.4,25.72,63.08,39.07,94.41c1.89,4.44,7.23,7.42,10.65,10.76c-13.12,0-28.03,0-42.94,0
		c-0.11-0.51-0.22-1.01-0.33-1.52c3.56-0.7,7.12-1.39,12.08-2.36c-4.72-12.01-9.05-23.46-13.86-34.71
		c-0.53-1.25-3.69-1.87-5.66-1.94c-6.86-0.23-13.83,0.67-20.56-0.28c-10.08-1.41-15.29,2.46-17.95,12.01
		C2291.2,833.43,2287.76,841.37,2284.4,850.63z M2318.7,765.59c-0.77,0.13-1.55,0.27-2.32,0.4c-5.23,13.69-10.46,27.39-15.93,41.71
		c12,0,22.8,0,34.63,0C2329.33,792.91,2324.01,779.25,2318.7,765.59z"/>
	<path class="st3" d="M1901.95,746.62c-4.88-0.32-9.36-0.61-14.39-0.94c4.8-4.82,43.65-5.74,52.8-0.21
		c-4.79,0.43-9.58,0.87-14.81,1.34c0,34.73,0,69.07,0,103.73c4.87,0.62,9.15,1.17,13.43,1.72c-0.07,0.67-0.15,1.34-0.22,2.02
		c-16.81,0-33.63,0-50.44,0c-0.11-0.64-0.22-1.28-0.34-1.92c4.39-0.55,8.78-1.09,13.95-1.74
		C1901.95,816.34,1901.95,781.98,1901.95,746.62z"/>
	<path class="st3" d="M2260.8,745.54c-6.84,0.48-11.4,0.81-17.25,1.22c0,3.54,0,6.87,0,10.2c0,25.55,0,51.11,0,76.66
		c0,15.55,0,15.55,13.79,20.25c-16.83,0-33.66,0-50.49,0c-0.11-0.52-0.23-1.04-0.34-1.56c4.46-0.57,8.91-1.13,14.04-1.79
		c0-34.43,0-68.83,0-103.87c-4.68-0.29-9.23-0.58-13.94-0.87C2210.25,740.65,2250.86,739.66,2260.8,745.54z"/>
	<path class="st3" d="M1199.81,854.17c-16.61,0-33.21,0-49.82,0c-0.07-0.68-0.13-1.36-0.2-2.04c4.34-0.46,8.68-0.91,13.83-1.45
		c0-34.27,0-68.64,0-103.85c-4.43-0.38-9.14-0.78-14.3-1.21c4.94-5.08,44.93-5.6,53.55,0c-6.3,0.4-10.93,0.7-16.01,1.03
		c0,34.83,0,69.21,0,104.03c4.65,0.47,8.82,0.89,13,1.31C1199.84,852.71,1199.82,853.44,1199.81,854.17z"/>
	<path class="st3" d="M2318.7,765.59c5.31,13.66,10.63,27.32,16.38,42.11c-11.83,0-22.63,0-34.63,0
		c5.47-14.32,10.7-28.01,15.93-41.71C2317.15,765.86,2317.93,765.72,2318.7,765.59z"/>
</g>
</svg>
