<?xml version="1.0" encoding="utf-8"?>
<!-- Generator: Adobe Illustrator 27.1.1, SVG Export Plug-In . SVG Version: 6.00 Build 0)  -->
<svg version="1.1" id="Layer_1" xmlns="http://www.w3.org/2000/svg" xmlns:xlink="http://www.w3.org/1999/xlink" x="0px" y="0px"
	 viewBox="0 0 3320.5 1046.1" style="enable-background:new 0 0 3320.5 1046.1;" xml:space="preserve">
<style type="text/css">
	.st0{display:none;}
	.st1{display:inline;fill:#FFFFFF;}
	.st2{display:inline;}
	.st3{fill:#FFFFFF;}
	.st4{display:none;fill:#FFFFFF;}
</style>
<g class="st0">
	<path class="st1" d="M885.1-0.5c2.2-0.1,3.9-0.3,5.5-0.3c17.3,0,34.6,0.1,51.8-0.1c3.7,0,5.5,0.9,7,4.6
		c14.8,36.1,49.5,58.3,88.4,57c37.9-1.3,71.3-25.8,83.6-62.2c2.9-8.8,3.8-18.2,4.9-28c-37.2,26.3-78.1,34.3-121.8,26.3
		c-44.3-8.1-77.4-33.5-101.1-71.1c-31.9-50.6-29.8-127.6,17.3-180.5c45-50.7,136.9-72.2,205.3-20.7c0-9.9,0-19.3,0-29.1
		c20.5,0,40.3,0,61,0c0,1.9,0,3.7,0,5.5c0,89.2,0.5,178.4-0.2,267.5c-0.5,66.5-33,113.8-92.5,140.9
		c-53.6,24.5-128.3,16.4-177.4-42.9c-15.4-18.5-26.1-39.3-31.2-62.9C885.5,2.4,885.4,1.3,885.1-0.5z M1034.3-61.3
		c50.8,0.1,91.7-40.6,91.9-91.3c0.1-50.6-40.6-91.4-91.5-91.6c-50.7-0.2-91.7,40.5-91.9,91.3C942.6-102.5,983.7-61.3,1034.3-61.3z"
		/>
	<path class="st1" d="M3190,4.6c0,6,0,11.9,0,18.1c-6,0-11.7,0-17.9,0c0-5.9,0-11.8,0-18.1C3177.9,4.6,3183.8,4.6,3190,4.6z"/>
</g>
<g class="st0">
	<g class="st2">
		<path class="st3" d="M124,575.1c2.4-15.9,5.2-31.8,7.3-47.7c23-175.2,164.4-322.8,338.7-355.4c192.5-36,374,59.5,458.6,222.9
			c26.5,51.2,42.4,105.9,44.8,163.9c7.6,180-69.4,313.5-224.8,402.5c-51.1,29.2-107.4,44.3-166.6,47.6c-6.3,0.4-12.6,2.8-18.9,4.2
			c-8.2,0-16.4,0-24.6,0c-5.3-1.4-10.5-3.5-15.9-4.2c-17.7-2.4-35.5-3.4-53.1-6.5C295.7,971,153,821,131.3,647.2
			c-2-15.9-4.8-31.8-7.3-47.6C124,591.4,124,583.2,124,575.1z M683.7,335.2c-5.1,0.7-8.2,0.5-10.9,1.6c-25,10.5-50.2,20.5-74.7,32
			c-52.3,24.6-104.5,49.7-148.6,88c-12.8,11.1-25.2,23.3-26,41.7c-1.5,35.1-2.3,70.3-3.2,105.5c-0.4,16.8,1.4,33.9-1.1,50.4
			c-2.4,15.8,1.7,28.1,11.5,39.4c7.7,8.9,15,18.2,23.6,26.1c69.2,63.6,138.6,126.9,208.1,190.2c3.5,3.2,8,5.4,13.6,9
			c1-5.8,1.9-9.1,2-12.5c1.1-46.4,1.2-92.8,3.6-139.1c1-18.6-6.2-30-19.5-41.5c-46.8-40.4-92.7-81.8-138.9-122.9
			c-3.9-3.5-7.2-7.8-11.5-12.5c5.9-3.5,9.6-6.2,13.7-8.1c46.6-22.1,93.1-44.5,140.1-65.7c11.6-5.2,16-11.1,15.9-23.8
			c-0.2-27,1.6-54,2-81C684,386.7,683.7,361.4,683.7,335.2z M483.5,255c-37.1-0.1-66.3,28.8-66.2,65.5c0,36.4,30.1,66.3,66.4,66
			c35.8-0.3,65.2-29.8,65.5-65.4C549.5,284.2,520.5,255.1,483.5,255z"/>
		<path class="st3" d="M1915.4,455.7c0-10.9,0.5-21.8-0.1-32.6c-0.7-11,3.1-15.8,14.8-15.3c18.9,0.7,37.8,0.6,56.7,0
			c11-0.4,15.4,3.1,15.4,14.7c-0.3,109.6-0.3,219.3,0,328.9c0,10.9-2.9,15.8-14.7,15.3c-18.9-0.7-37.9-0.8-56.7,0
			c-12.6,0.6-16.2-4.7-15.4-16.2c0.7-10.8,0.2-21.7,0.2-32.5c-1.5-0.4-3-0.7-4.5-1.1c-2.9,2.4-6.2,4.4-8.7,7.2
			c-62.4,72.2-187.3,65.1-244.9-25.2c-49.4-77.4-38.1-194.9,25.1-254.7c62.5-59.1,159.5-57.1,219.1,4.4c2.7,2.8,5.8,5.4,8.6,8.1
			C1911.9,456.4,1913.7,456.1,1915.4,455.7z M1815,696c45.9,0,82.9-25.9,93.7-70.2c5.1-20.6,5.8-43.4,3.2-64.6
			c-8.4-69.6-88.7-106.7-148.1-69.2c-40.8,25.7-51,65.5-47.2,110.2C1721.2,656.7,1763,696,1815,696z"/>
		<path class="st3" d="M2799.9,766.6c-36.8,0-70,0.7-103.1-0.6c-6.6-0.3-14.3-7.1-19-12.9c-33.5-41.2-66.3-82.9-99.5-124.4
			c-3.9-4.9-8.7-9.2-16.1-17c-0.7,9.6-1.4,14.8-1.4,20.1c-0.1,39.8-0.4,79.6,0.2,119.4c0.2,12.2-4,16.2-16,15.7
			c-18.4-0.8-36.9-0.8-55.2,0c-12.4,0.6-15.7-4.5-15.6-16.1c0.4-72,0.2-143.9,0.2-215.9c0-77.1,0.3-154.1-0.3-231.2
			c-0.1-13.7,3.3-19.5,18-18.5c16.8,1.2,33.8,1.1,50.6,0c14.1-0.9,18.5,3.8,18.4,18.1c-0.6,79.1-0.3,158.2-0.3,237.3
			c0,5.9,0.5,11.7,0.8,17.6c2.2,1.5,4.4,3.1,6.6,4.6c2.9-5.2,5.3-10.8,8.9-15.5c33.8-42.9,67.5-85.9,102.2-128.2
			c4.7-5.7,14-10.4,21.4-10.6c31.6-1.2,63.4-0.5,98.9-0.5c-13.6,15.8-25.1,29.4-36.9,42.9c-36.7,41.8-73.2,83.9-110.5,125.2
			c-8.3,9.2-8.4,15,0,24.2c46,50.7,91.5,101.8,137.1,152.9C2792,756.5,2794.7,760.1,2799.9,766.6z"/>
		<path class="st3" d="M2321.2,720.3c-7.2,6.9-10.7,10.3-14.3,13.6c-43.6,39.2-93.9,47.3-148.5,29.5
			c-53.2-17.3-81.8-57.1-88.5-110.6c-4.5-36.2-3.1-73.2-3.5-109.8c-0.5-40.3,0.1-80.6-0.3-120.9c-0.1-10.6,3.6-14.6,14.3-14.2
			c18.9,0.6,37.9,0.8,56.8,0c12.3-0.5,15.8,4.2,15.7,16c-0.4,58.1-0.4,116.3,0,174.4c0.1,13.1,1.3,26.6,4.3,39.4
			c9.9,42,45,65.5,89.7,61.2c43.6-4.2,73.7-35.5,74.1-79.1c0.6-64.3,0.6-128.5-0.1-192.8c-0.1-14.5,3.8-20.1,18.9-19.1
			c18.9,1.2,37.8,0.6,56.8,0.2c9.6-0.2,13.9,2.8,13.9,13.1c-0.2,110.7-0.2,221.4,0,332.1c0,9.7-3.1,13.9-13.3,13.7
			c-21-0.5-41.9-0.5-62.9,0c-10.3,0.2-13.6-4.3-13.1-13.8C2321.5,743.6,2321.2,734.2,2321.2,720.3z"/>
		<path class="st3" d="M1318.1,449.8c4-3.6,7.9-7.3,12-10.8c48.5-41.5,103.4-48.2,160.3-23.6c53.3,23,76.9,68.7,78.2,125
			c1.6,69.9,0.3,139.8,0.8,209.6c0.1,12.4-3.3,17.5-16.4,16.8c-17.8-0.9-35.8-0.9-53.7,0c-12.7,0.6-16.9-3.7-16.8-16.5
			c0.5-61.2,0.5-122.4,0-183.6c-0.1-11.6-1.6-23.5-4.7-34.6c-10.9-39.2-41.9-58.5-88.5-56.4c-36.7,1.7-64.9,26.1-72.3,63.3
			c-1.8,8.9-2.9,18.1-2.9,27.2c-0.2,60.2-0.1,120.4-0.1,180.6c0,19.8,0,19.8-20.6,19.9c-16.4,0-32.8-0.8-49.1,0.2
			c-13.8,0.9-17.4-4.6-17.3-17.7c0.4-90.8,0.2-181.6,0.2-272.4c0-17.9,0.4-35.7-0.1-53.5c-0.3-10.9,3.1-15.9,14.8-15.5
			c19.4,0.7,38.9,0.6,58.3,0c11-0.4,14.6,4.3,13.9,14.6c-0.5,8.5-0.1,17.1-0.1,25.7C1315.3,448.7,1316.7,449.2,1318.1,449.8z"/>
		<path class="st3" d="M2944.9,460.6c11.4-11.5,21.1-25.9,34.6-33.6c18.6-10.7,40-16.9,60.4-24.1c8.1-2.9,12.3,1.5,12.2,10.3
			c-0.2,23-0.3,45.9,0.1,68.9c0.2,9.8-4.8,11.8-13.3,12c-13.2,0.4-26.7,0.5-39.6,3.2c-36.3,7.6-56.8,32-57.7,69
			c-1.3,58.6-1.8,117.2-2.4,175.9c-0.3,24.5-0.1,24.5-23.9,24.5c-16.4,0-32.8-0.3-49.1,0.1c-9.5,0.3-14-2.6-13.9-13
			c0.2-111.2,0.2-222.5,0-333.7c0-9.5,4.1-12.4,13-12.3c19.9,0.3,39.9,0.5,59.8-0.1c11-0.3,14.5,4.4,14.1,14.6
			c-0.5,12.4-0.1,24.8-0.1,37.2C2941.1,459.9,2943,460.3,2944.9,460.6z"/>
		<path class="st3" d="M3187.3,587.2c0,54-0.4,108.1,0.3,162.1c0.1,13.1-3.4,18.4-17.2,17.6c-18.9-1-37.8-0.5-56.7-0.2
			c-9.2,0.2-12.7-3.4-12.7-12.6c0.2-111.2,0.2-222.3,0-333.5c0-10.4,4.6-13.1,14-12.9c18.9,0.4,37.9,0.7,56.7-0.1
			c12.1-0.5,16,3.7,15.9,15.8C3187,478.1,3187.3,532.6,3187.3,587.2z"/>
	</g>
	<path class="st1" d="M3145.2,254.7c29.9,0.2,51.6,22.6,51.2,52.9c-0.3,27.9-24.2,51.5-52.2,51.5c-28.2,0-52.4-24.6-52.3-53.2
		C3092,277.1,3115.6,254.5,3145.2,254.7z"/>
</g>
<path class="st4" d="M683.7,335.2c0,26.3,0.3,51.5-0.1,76.8c-0.4,27-2.3,54-2,81c0.1,12.7-4.3,18.6-15.9,23.8
	c-47,21.2-93.5,43.7-140.1,65.7c-4.1,1.9-7.8,4.6-13.7,8.2c4.3,4.7,7.5,9,11.5,12.5c46.2,41.1,92.1,82.5,138.9,122.9
	c13.3,11.5,20.5,22.9,19.5,41.5c-2.4,46.3-2.5,92.8-3.6,139.1c-0.1,3.3-1,6.7-2,12.5c-5.6-3.7-10-5.8-13.6-9
	c-69.5-63.3-138.9-126.6-208.1-190.2c-8.6-7.9-16-17.2-23.6-26.1c-9.8-11.3-13.9-23.6-11.5-39.4c2.5-16.5,0.7-33.6,1.1-50.4
	c0.9-35.2,1.7-70.3,3.2-105.5c0.8-18.3,13.2-30.5,26-41.7c44.1-38.4,96.3-63.4,148.6-88c24.5-11.5,49.7-21.5,74.7-32
	C675.5,335.7,678.6,335.9,683.7,335.2z"/>
<path class="st4" d="M483.5,255c36.9,0.1,65.9,29.2,65.7,66c-0.2,35.6-29.7,65.1-65.5,65.4c-36.3,0.3-66.4-29.6-66.4-66
	C417.3,283.8,446.4,255,483.5,255z"/>
<g class="st0">
	<path class="st1" d="M592.7,144.3c1.7,0.7,3.2,1.7,4.9,1.9c38.3,3.3,76.9,4.6,114.9,10.2c42.5,6.2,84.5,16.2,126.7,24.4
		c16.8,3.3,25.3,13.8,30.4,29.7c13.3,41.6,26.1,83.3,32.2,126.7c2.8,19.6,4.4,39.4,5.3,59.2c0.9,20.4,0.2,40.8,0.2,61.3
		c0.1,27,1.8,54.1,0.1,81.1c-2.7,42-12,82.8-25.5,122.7c-30.1,89.2-80.4,165.5-145.1,233.3c-51.2,53.7-109,98.9-171.8,138.1
		c-12.8,8-22.2,7.8-34.9-0.1c-48-29.6-93-63.2-134.6-101.3c-48-44-90-92.9-124.5-148.1c-32.7-52.3-58.1-107.9-70.8-168.5
		c-5.5-26.3-8.6-53.2-12.9-79.8c-0.3-1.8-0.8-3.6-1.3-5.4c0-44.9,0-89.8,0-134.7c1-10,1.8-20.1,3-30.1c6.5-53.3,18.9-105.1,37-155.7
		c4.5-12.5,9.9-21.9,24.4-26.4c53.2-16.4,108.1-23.7,163-30.4c28-3.4,56.3-4.1,84.5-6.2c1.7-0.1,3.3-1.3,4.9-2
		C532.7,144.3,562.7,144.3,592.7,144.3z M340.4,809c0.9-0.3,1.8-0.7,2.7-1c-0.6-2.8-1.2-5.7-1.9-8.6c-6.8-28.3-8.5-57.2-4.3-85.8
		c6.6-45.7,29.5-83.7,61.3-116.5c26.5-27.3,57-49.8,88.1-71.5c6-4.2,11.2-9.3,16.8-13.9c-0.5-0.7-1.1-1.4-1.6-2.1
		c-16.7,6.3-33.3,12.6-50,18.9c-0.5-1-1.1-1.9-1.6-2.9c2.7-2.8,5.2-5.7,8-8.3c8.7-7.9,18.1-15.1,26.2-23.6
		c20.8-21.7,34.2-48,42.3-76.5c10.8-37.7,11.4-75.5-6.6-111.6c-18.2-36.5-54.6-53.2-91.2-42.1c-17.5,5.3-31.1,15.6-37.6,33.3
		c-4.8,13.3-4.2,13.8,9.1,16.4c1.5,0.3,3.1,0.7,4.4,1.5c6.1,3.9,9,1.3,12.1-4.4c7.2-13.4,19.3-18.3,33.6-14
		c13.4,4.1,20.7,14.7,25.6,26.7c15.4,37.8,2.9,83.4-30.2,107.6c-37.7,27.7-80.6,32.5-124.9,22.9c-33.9-7.4-52.3-2.6-73.1,24.5
		c-1.1,1.5-2.5,2.8-3.7,4.2c-9.8,11.7-24.6,20.6-40.9,11.3c-3.7-2.1-8.4-2.5-13.9-3.9C205,614,259.7,717.7,340.4,809z M705.3,311.4
		c1.5-17.5-7.6-29.7-21.1-38.8c-32.9-22.3-74.1-14.4-98.6,17.5c-26.2,34.1-29.4,73.5-20.4,114c10.5,47,34,86.2,74,114.7
		c2.7,2,4.4,5.4,6.6,8.2c-0.7,0.7-1.4,1.4-2,2.2c-16.8-6.5-33.7-12.9-52.9-20.3c2,3.6,2.2,4.6,2.9,5.1c5.3,4.2,10.6,8.7,16.2,12.5
		c37.4,25.9,73.5,53.4,102.7,88.7c39,47,53.9,100.9,44.8,161.4c-1.6,10.4-3.2,20.9-4.8,31.3c0.8,0.3,1.6,0.6,2.5,0.9
		c80.8-91.2,135.3-195,151-319.4c-7,2.2-12.7,3.6-17.9,5.8c-11.5,4.8-21.3,1.9-30-6c-3.9-3.5-7.8-7.4-10.5-11.8
		c-15.7-24.9-39-30.1-65.8-25.1c-22.5,4.2-45,8.5-68,4.4c-31.2-5.5-60.2-15.5-80.6-41.7c-24.1-30.9-30-74.1-5-106.7
		c14.7-19.3,38.8-18,50.9,3c1.3,2.3,5.1,4.9,7.4,4.7C692.5,315.2,698.3,313.1,705.3,311.4z"/>
	<path class="st1" d="M1200.6,393c12.6,4.9,24,8.3,34.3,13.6c34.3,17.4,46.5,55.6,27.7,88.5c-12.7,22.3-34.9,32.3-58.8,37.6
		c-13.8,3-28.3,4-42.5,4.1c-39,0.5-78,0.2-117,0.2c-3.7,0-7.4,0-11.9,0c0-3.4,0-6.3,0-9.6c4.3-0.3,8.3-0.5,12.2-1
		c14.3-1.9,22.3-10.7,22.3-25c0.1-64.8,0.1-129.7,0-194.5c0-15.7-8.8-24.3-26.4-26.3c-2.4-0.3-5,0-8.4,0c-0.2-3.4-0.4-6.2-0.7-10.4
		c4.1,0,7.4,0,10.8,0c40.6,0,81.2-0.2,121.7,0.1c19.6,0.2,38.8,3.2,57,10.9c21.5,9.1,34.9,24.2,36.6,48.3
		c1.8,24.8-10.2,41.4-31.2,52.4C1218.7,386.1,1210.3,389,1200.6,393z M1131.1,457.7c0,15.9,0,31.8,0,47.7c0,8.6,3.1,15.6,12,17.8
		c15.5,3.7,30.9,2.3,42.9-8.6c18.1-16.2,18.4-38.3,16.3-60.4c-1.9-20.2-8.9-38.1-29.3-45.9c-10.4-4-22.3-4.2-33.5-5.9
		c-6.7-1-8.6,2.3-8.5,8.6C1131.2,426.6,1131.1,442.1,1131.1,457.7z M1131,390.8c11.4-1.3,21-1.6,30.3-3.7
		c13.4-3,23.7-10.6,27.6-24.6c5-17.7,4.8-35.5,0-53.2c-6.1-22.2-21.8-29.3-44.4-26.1c-10.1,1.4-13.5,7.4-13.4,16.8
		c0.1,21.5,0,43,0,64.6C1131,372.5,1131,380.6,1131,390.8z"/>
	<path class="st1" d="M1320.6,280c0-3.1,0-5.8,0-9.1c75.5,0,150.8,0,226.9,0c0,26,0,51.7,0,77.7c-6,2.8-8.4,0.5-10.2-5.7
		c-3-10-6.2-20.2-11-29.4c-11.3-21.6-32.3-26.7-54.1-28.9c-12-1.2-24.3-0.8-36.4-0.2c-12,0.6-15.3,4.6-15.4,16.4
		c-0.1,30.5,0,61,0,91.4c30.9,4.2,48.3-6.9,56.5-30.8c2.2-6.4,4.4-12.9,5.6-19.6c1.1-6.2,3.9-7.9,10.3-5.6c0,43.8,0,87.9,0,132.6
		c-4.9,0.9-9.1,2.2-9.8-6c-0.5-6.7-3.1-13.2-4.9-19.8c-6.8-25.9-27.2-36.1-56.8-34.7c-0.3,1.6-0.9,3.4-0.9,5.2
		c-0.1,31.2-0.1,62.4,0,93.5c0,10.2,4.2,15.9,16,16.9c30.1,2.5,60.8,2.1,84.9-19.2c12.9-11.5,22.8-26.9,31.8-41.9
		c4.2-7,7.6-8.4,15-6.5c-5,25.5-9.8,50.9-15.4,76.1c-0.5,2.1-6.2,4.3-9.5,4.4c-36.2,0.3-72.4,0.2-108.6,0.2c-34.3,0-68.7,0-103,0
		c-3.4,0-6.8,0-10.1,0c-2.7-7.4-1.1-10.1,6.6-10.4c19.8-0.7,27.8-9.6,27.8-29.5c0-61.4,0-122.8,0-184.3c0-22.4-8-30.9-30.3-32.4
		C1324,280.4,1322.5,280.2,1320.6,280z"/>
	<path class="st1" d="M2229.1,279.8c0-3.2,0-5.9,0-9.1c75.6,0,150.7,0,226.7,0c0,26,0,51.9,0,78.5c-2.7,0.2-5.4,0.4-8.1,0.6
		c-0.6-1.2-1.1-1.9-1.4-2.8c-4.3-11.6-7.4-23.7-13-34.6c-10.6-20.8-31.2-25.3-51.8-27.7c-12.3-1.5-24.9-0.9-37.4-0.4
		c-11.2,0.5-16.3,4.5-16.5,15.1c-0.7,31.1-0.2,62.2-0.2,93.2c38,3.9,51.3-9.7,60.4-40.1c1-3.2,1.5-6.6,2.3-10
		c1.8-7.5,2.2-7.8,11.5-5.9c0,43.8,0,87.6,0,132.2c-2.8,0.3-5.4,0.6-8.1,0.9c-0.6-1.1-1.3-1.8-1.5-2.6c-3.3-11.2-5.6-22.9-10-33.7
		c-7.8-18.9-28.1-26.7-54.2-24.7c-0.2,2.9-0.5,5.9-0.5,8.9c0,27.1-0.1,54.2,0,81.4c0,20,6,25.6,26.2,25.9c21.6,0.4,42.9-1,62.7-10.9
		c21.7-10.9,34.4-30,44.8-50.7c3.2-6.2,6.3-9.6,14.8-6.4c-5.2,26.5-10.4,53.2-15.6,79.8c-77.6,0-154,0-230.9,0c0-3.1,0-5.8,0-8.7
		c1.8-0.3,3.2-0.8,4.8-0.9c21.9-1.7,30.2-9.2,30.3-30.5c0.4-61.7,0.4-123.5,0-185.2C2264.1,289.5,2256.1,282.8,2229.1,279.8z"/>
	<path class="st1" d="M2105.4,279.5c0-3,0-5.4,0-8.6c27.5,0,54.8,0,82.7,0c2.5,5.2,2.2,9-4.7,10.5c-20.6,4.5-24.8,8.4-24.8,35.2
		c0,72,0,144,0,216c0,3.7,0,7.3,0,11c-7.1,2.2-11.6,1.1-16.1-4.5c-54.8-67-109.9-133.7-165-200.5c-1.3-1.5-2.9-2.8-6.2-5.9
		c0,5.4,0,8.7,0,11.9c0,48.9,0.6,97.9-0.2,146.8c-0.4,23.9,13,35.7,33.2,35.6c1.2,0,2.4,0.5,4,0.9c0,2.8,0,5.5,0,8.7
		c-29.5,0-58.8,0-88.6,0c-2.3-6-1.8-9.7,6.2-9.7c18.7-0.1,27.4-10,27.5-29.9c0.2-59.5,0.2-119.1-0.2-178.6c0-5-2.3-11-5.6-14.6
		c-7.7-8.3-16.9-15.2-25-23.2c-2.1-2-2.4-5.8-4-10.2c28.9,0,55.7-0.1,82.5,0.2c2.1,0,4.6,2.6,6.2,4.6
		c28.7,34.7,57.2,69.4,85.9,104.1c15.1,18.3,30.3,36.6,47.1,56.8c0.3-5.5,0.6-8.8,0.6-12c0-33.7,0-67.3,0-101
		C2140.8,291.3,2136.6,286,2105.4,279.5z"/>
	<path class="st1" d="M1796.2,279.7c0-3.2,0-5.9,0-9c27.8,0,55.2,0,82.3,0c3.1,7.2-0.3,9.8-6.4,11.5c-20.9,5.9-22.7,8.5-22.7,29.8
		c0,73.6,0,147.2,0,220.8c0,3.7,0,7.3,0,10.7c-7.7,2.4-12.3,0.9-17.1-4.9c-45.3-55.6-91-110.8-136.6-166.1
		c-10.8-13.1-21.8-26-34.6-41.3c-0.4,5.6-0.9,8.4-0.9,11.2c0,48-0.1,96.1,0.1,144.1c0,7,1.1,14.2,2.8,21c3.2,12.8,13.9,16.5,25.1,19
		c2.1,0.5,4.8-0.4,6.4,0.6c1.9,1.2,3.8,3.6,4.2,5.7c0.2,1.1-2.9,4-4.6,4c-28.1,0.2-56.1,0.2-84.9,0.2c-0.2-3.3-0.4-5.9-0.6-8.9
		c1.9-0.5,3.4-1.2,4.8-1.2c25.9-0.2,29.8-13.9,30.1-30.6c0.9-60.5,0.7-121-0.1-181.5c-0.1-5.8-6.4-12.1-11-17.1
		c-6.5-7.1-14.1-13.2-21.2-19.8c-0.7,0.6-1.5,1.3-2.2,1.9c0-2.7,0-5.4,0-8.6c1.1-0.3,2.2-0.9,3.3-0.9c25.3-0.1,50.6-0.3,75.9,0.2
		c3.3,0.1,7.6,2.7,9.8,5.4c41.8,50.4,83.3,101.1,124.9,151.7c1.9,2.3,4.1,4.4,8.5,6.1c0-3.2,0-6.4,0-9.5c0-34,0-68,0-102
		C1831.6,293.2,1825.5,285.9,1796.2,279.7z"/>
	<path class="st1" d="M2040.1,801.6c329.4,0,658.8,0,988.3,0.1c5.6,0,14.6-3.2,14.5,6.5c-0.1,9.1-8.9,5.7-14.1,5.7
		c-659.1,0.2-1318.3,0.1-1977.4,0.1c-2.5,0-5.4,0.8-7.4-0.2c-2.9-1.4-5.2-4.1-7.7-6.2c2.7-2,5.2-4.7,8.2-5.9c2.4-1,5.5-0.2,8.3-0.2
		C1381.9,801.6,1711,801.6,2040.1,801.6z"/>
	<path class="st1" d="M2520.7,349.1c0-26.5,0-52.1,0-78.3c79.5,0,157.8,0,237.6,0c0,25.9,0,51.8,0,78.4c-2.4,0-5.9,0-9.4,0
		c-10.9-53.8-38.8-66.9-77.1-64.6c0,3.5,0,7,0,10.6c0,65.5,0.4,130.9-0.2,196.4c-0.2,25.8,9.2,37.4,34.5,35.4
		c1.2-0.1,2.4,0.3,4.6,0.6c0.1,2.8,0.3,5.7,0.4,9c-47.3,0-93.7,0-140.3,0c-1.7-5.8-1.9-9.7,6-9.8c28.9-0.5,31.2-12.2,31.5-31.7
		c1.2-67.9,0.4-135.9,0.6-203.8c0-5.7-2.2-7.3-7.8-7.5c-36.4-1.2-63.1,20.5-67.9,56.4C2532,348.6,2528.8,351.8,2520.7,349.1z"/>
	<path class="st1" d="M2895.5,284.7c-40.5-3.2-67.5,15.2-75.3,57.1c-1.5,8.1-1.4,8.1-11.2,7.5c0-25.9,0-51.8,0-78.4
		c79.6,0,158.1,0,237.1,0c0,25.9,0,51.6,0,77.3c-9.4,2.6-10.1,2.1-11.8-7.6c-6-36.3-30.9-57.4-66.8-57c-6.2,0.1-8.8,1.5-8.8,8.3
		c0.2,67-0.6,134,0.6,201c0.4,21,2.2,33.2,32.4,34.1c2.4,0.1,4.6,3.2,6.9,5c-1.7,1.7-3.4,4.7-5.1,4.7c-44.6,0.3-89.2,0.2-133.9,0.2
		c-3.4-8.2-0.3-10.1,7.1-10.3c20.2-0.3,29-9.1,29.1-29.3c0.2-69.2,0.1-138.4,0.1-207.6C2895.9,288.3,2895.7,286.8,2895.5,284.7z"/>
	<path class="st1" d="M2197.9,670.8c17.4,22.8,34.3,44.9,51.9,68c-13.5,0-27.4,0.2-41.2-0.2c-2.1-0.1-4.4-3-6-5.1
		c-14.3-18.7-28.5-37.5-43.6-57.5c-0.8,3-1.8,4.8-1.8,6.6c-0.1,10.3,0,20.6-0.1,30.9c-0.1,9.9,1.9,18,13.9,19.4
		c1.7,0.2,3.1,2.3,6.7,5c-25.6,0-48.7,0-74.9,0c4.1-2.8,5.9-5,8.1-5.4c8.7-1.5,12-6.9,12-15.1c0-33-0.1-66.1,0.1-99.1
		c0-9.2-3.7-14.8-13.2-16c-1.6-0.2-3-1.5-6.8-3.6c4.2-1.3,6.3-2.5,8.3-2.5c27.4,0.4,54.9,0.3,82.2,1.8c8.6,0.5,17.9,4,25.1,8.8
		c19,12.8,17.8,41.7-1.5,54.4C2211.5,664.7,2205.4,667,2197.9,670.8z M2157.2,664.5c20.7,2.8,33.7-3.1,37.2-16.6
		c2.9-11,2.4-22-2.6-32.5c-4.6-9.7-21.6-15.6-30.5-10c-2,1.2-3.9,4.4-4,6.7C2157.1,629.4,2157.2,646.8,2157.2,664.5z"/>
	<path class="st1" d="M1939.3,660.8c24.1,3.7,29.9-12.3,33.8-30.9c5.4,7.7,5.4,65.3,0,72.9c-3-19.7-9.9-34.7-33.8-32.6
		c0,18.1-0.3,36,0.3,54c0.1,2.3,4.5,5.9,7.4,6.5c23.3,4.6,48.2-3,60.8-28.2c1.6-3.1,4.7-5.5,7.1-8.2c0.8,0.6,1.6,1.2,2.4,1.8
		c-2.8,14.1-5.6,28.2-8.4,42.3c-41.3,0-81.9,0-122.6,0c-0.3-0.7-0.6-1.5-0.9-2.2c2.4-1.2,4.6-3,7.1-3.5c8-1.5,11.9-6.3,11.9-14.2
		c0.1-33.7,0-67.3,0-101c0-8.4-4.2-13.3-12.3-15c-2.2-0.5-4.3-1.4-7.1-2.3c5.8-4.5,106.5-6,120.9-2.6c0,13.4,0,26.8,0,40.2
		c-0.8,0.3-1.5,0.5-2.3,0.8c-1.2-2.4-2.8-4.7-3.5-7.3c-5.2-17.7-15.4-26.6-34.3-26.9c-31.7-0.5-26.3-2.9-26.7,24.8
		C1939.2,639.6,1939.3,650.1,1939.3,660.8z"/>
	<path class="st1" d="M1321.8,738.2c-17,0-32.6,0-48.2,0c-0.3-0.7-0.6-1.3-1-2c1.9-1.3,3.8-3.5,5.8-3.7c10.9-0.8,13.2-8.7,13.3-17
		c0.4-30.8,0.4-61.7,0-92.5c-0.1-10.1-8.5-15.2-15.6-20.7c-1.1-0.8-2-1.9-4.1-3.8c2.8-1.1,4.6-2.1,6.4-2.4c1.8-0.4,3.8,0.2,5.6-0.2
		c25.4-5.1,42.1,5.8,56.2,26.6c14.4,21.1,32.3,39.9,49.8,61.2c0.6-3.9,1.1-6.1,1.1-8.3c0.1-16.8-0.1-33.7,0.1-50.5
		c0.2-13-3.1-21.3-16.9-23.5c-0.7-0.1-1.2-1.2-1.8-1.9c4.9-4.5,35.6-5.2,44.6-0.8c-1.4,1.3-2.5,3.1-3.8,3.4
		c-10.4,1.9-13,8.5-13,18.3c0.3,36.4,0.1,72.9,0.1,109.3c0,4,0,8,0,15c-4.7-3.2-7.7-4.5-9.5-6.7c-28.3-34.1-56.5-68.4-84.8-102.6
		c-1.1-1.4-2.6-2.5-5.3-5c-0.3,4.4-0.7,7.3-0.7,10.1c-0.1,23.4,0,46.7,0,70.1c0,14.7,1.6,16.9,15.9,21.8c1.2,0.4,2.3,1,3.3,1.7
		C1320.2,734.9,1320.5,735.9,1321.8,738.2z"/>
	<path class="st1" d="M1042.4,598.4c9.6-3.8,66.2-3.1,73.3,1.8c-4.1,1-6.8,1.7-9.5,2.2c-7.7,1.4-12.2,5-12.1,13.7
		c0.2,28.7-0.1,57.4,0.2,86.1c0.2,16.7,10.1,28.4,24.7,30.1c18.8,2.2,34.9-6.8,39.1-22.8c1.8-7.1,2.7-14.6,2.8-22
		c0.4-21.5,0.1-43,0.1-64.5c0-13.8-1.7-16-15-20.8c-1.5-0.5-2.7-1.8-3.7-4.7c15.2,0,30.3,0,45.5,0c0.2,0.8,0.5,1.6,0.7,2.4
		c-2.4,1.1-4.8,2.5-7.4,3.2c-6.9,2.1-10,6.4-9.9,13.8c0.3,21.5,0.9,43.1-0.2,64.5c-0.7,12.4-3.3,25.1-7.2,36.9
		c-5.2,15.7-19,22-34.2,23.6c-17.7,1.9-35.6,2-51.3-8.8c-12.7-8.7-17.7-21.4-18-36c-0.4-23.7-0.3-47.4,0-71.1
		c0.1-11.9-0.5-22.8-15.8-24.7C1043.8,601.2,1043.4,599.9,1042.4,598.4z"/>
	<path class="st1" d="M3001.3,738c-23.7,0-47.3,0-71,0c-0.3-0.6-0.6-1.3-0.9-1.9c2.5-1.3,5-3.1,7.7-3.7c7.5-1.6,11.3-5.9,11.3-13.7
		c0-10.9,2.1-22.3-0.4-32.6c-2.6-10.8-9.4-20.6-14.8-30.7c-6.1-11.5-11.9-23.2-18.9-34.1c-5.3-8.2-12.4-15.3-18.8-23
		c3.6-3.3,60.8-4,70.5,1.5c-4.9,1.1-8.1,2.2-11.4,2.5c-7.3,0.6-9.6,3.9-6.1,10.4c9.2,17.5,18.5,34.9,28.9,54.6
		c6.6-10.5,12.3-19.1,17.6-28c4.1-6.9,8.3-13.8,11.4-21.2c4.3-10.2,1.8-14-9-15.9c-2-0.3-3.9-1.3-8-2.7c3.6-1.8,5.2-3.3,6.8-3.3
		c11.9-0.2,23.7-0.2,35.6,0c1.8,0,3.6,1.6,5.4,2.4c-1.4,1.3-2.7,2.6-4.1,3.8c-3.7,3.1-8.6,5.5-11.1,9.4
		c-12,18.8-23.7,37.9-34.9,57.2c-2.6,4.5-3.9,10.4-4.2,15.7c-0.6,10.6-0.2,21.2-0.1,31.8c0,8.8,3,15.1,13,16
		c2.2,0.2,4.2,2.2,6.3,3.3C3001.8,736.6,3001.5,737.3,3001.3,738z"/>
	<path class="st1" d="M2339.8,739.5c0-15.7,0-32,0-48.3c1-0.4,2-0.8,3-1.1c2,4.2,4.5,8.3,5.9,12.7c4.4,14.3,13.4,24.3,27.2,30
		c10.6,4.5,25.9,1.1,31.5-6.8c9.2-12.9,6.8-25.6-7.1-34c-11.4-6.8-24.2-11.6-35.1-19.1c-8.4-5.8-16.8-13.3-21.7-22.1
		c-8.6-15.5-3.6-31,7.1-44c11.1-13.4,26.3-16.6,42.9-13.4c6.9,1.3,13.7,4.5,20.6,4.9c4.8,0.3,9.8-2.7,15.5-4.5c0,13.8,0,28.8,0,43.8
		c-0.8,0.3-1.5,0.5-2.3,0.8c-1.2-2.4-2.5-4.8-3.6-7.2c-7-15-15-28.6-33.6-31.6c-10-1.6-20.5,2.9-24.9,11.9
		c-4.4,8.9-2.7,18.5,6.6,24.4c12.5,8,25.9,14.6,39.2,21.4c25.8,13.1,34.5,39.3,20.1,63c-7.3,12.1-18.4,19.5-32.7,20.3
		c-13.6,0.8-27.1,1.2-40.5-4.3C2353.4,734.5,2346.5,738.2,2339.8,739.5z"/>
	<path class="st1" d="M2812,638.1c-4.5-8.4-7.4-18.7-14-24.8c-6.7-6.2-17.1-8.2-27.9-13c-0.4,6.2-0.7,9.4-0.7,12.7
		c0,33.7,0,67.3,0,101c0,14.3,0.5,14.8,14.7,19c2.1,0.6,4.1,2,5.7,4.8c-24.4,0-48.9,0-73.3,0c-0.3-0.5-0.6-1.1-0.9-1.6
		c2.6-1.3,5.1-3.1,7.8-3.7c7.1-1.5,11.1-5.7,11.3-12.8c0.6-19,1-38,1.2-56.9c0.2-16.5,0.1-33,0-49.5c0-3.3-0.5-6.6-0.7-9.8
		c-25,1.1-34.4,7.8-40,29c-0.6,2.1-3,3.7-4.5,5.6c-0.9-2-2.4-4-2.5-6.1c-0.2-10.3-0.1-20.6-0.1-30.8c0-1.2,0.3-2.4,0.6-4.3
		c2.8-0.2,5.5-0.7,8.2-0.7c36.2,0,72.4,0.2,108.6-0.2c7.3-0.1,10.1,2,9.6,9.5c-0.5,8.1,0,16.2-0.2,24.3c-0.1,2.8-0.6,5.5-1,8.3
		C2813.3,638.1,2812.6,638.1,2812,638.1z"/>
	<path class="st1" d="M1746.2,692.7c2.8-6.7,4.7-11.1,6.4-15.5c7.6-19.4,15.4-38.6,22.4-58.2c4.2-11.8,2-14.6-10.2-17
		c-1.9-0.4-3.7-1.2-6.1-2.1c6.1-5,38.3-5.4,45.6-1c-0.4,0.8-0.7,2.1-1.2,2.2c-13.1,2.8-16.8,13.6-20.9,24.1
		c-12.7,32.6-25.3,65.3-37.9,98c-1.7,4.3-2.9,8.9-5,13c-1.2,2.4-3.8,4.2-5.8,6.3c-1.7-1.9-3.9-3.6-4.9-5.8
		c-12.6-28.7-24.9-57.4-37.3-86.2c-4.1-9.4-7.7-19-11.9-28.3c-4.3-9.5-8-19.7-21.1-21.6c6.3-5.6,63.8-6.1,72.9-0.5
		c-4.8,1-8.1,1.9-11.4,2.4c-6.6,1-9.7,4.6-7,11C1723.4,639.2,1734.3,664.7,1746.2,692.7z"/>
	<path class="st1" d="M1318.6,894.3c-13.5,31.3-27.1,62.6-41.7,96.5c-14.9-28.8-28.4-55-43.2-83.7c0,26.5,0,50.3,0,74.7
		c4.4,0.5,8.7,1.1,13,1.6c-0.1,0.7-0.1,1.4-0.2,2c-11.6,0-23.2,0-34.7,0c-0.1-0.7-0.2-1.4-0.3-2.1c4.5-0.5,9.1-1,14.1-1.6
		c0-34.6,0-68.8,0-103.7c-4.8-0.5-9.5-0.9-14.2-1.4c-0.1-0.8-0.2-1.7-0.3-2.6c3.5-0.4,7-0.7,10.5-1.3c14.7-2.5,23.4,2.3,29.3,17.3
		c8.9,22.7,21,44.2,32.8,68.3c4.6-10.1,8.8-18.7,12.6-27.5c7.3-17.1,14.2-34.4,21.9-51.2c1.4-3,5.9-6.1,9.3-6.5
		c7.7-1,15.6-0.4,23.4-0.2c2,0,4,1,6,1.5c-0.1,0.8-0.2,1.6-0.3,2.4c-4.4,0.3-8.9,0.7-14.1,1c0,34.4,0,68.8,0,103.8
		c4.3,0.6,8.7,1.2,13,1.8c0,0.6-0.1,1.2-0.1,1.8c-16.6,0-33.1,0-51.6,0c2.7-1.4,3.9-2.7,4.9-2.5c11,1.8,12.7-3.7,12.5-13.3
		c-0.7-21.8-0.2-43.6-0.2-65.5c0-3,0-6,0-9C1320.3,894.8,1319.4,894.6,1318.6,894.3z"/>
	<path class="st1" d="M2599.3,934.8c0,15.3,0,30.8,0,47c4.8,0.5,9.5,1.1,14.3,1.6c0,0.6,0,1.1-0.1,1.7c-17.5,0-35,0-52.5,0
		c-0.1-0.6-0.1-1.2-0.2-1.8c4.7-0.4,9.3-0.8,14.6-1.3c0-34.7,0-69.1,0-104c-5.1-0.4-9.9-0.7-14.6-1.1c-0.1-0.7-0.3-1.4-0.4-2.1
		c2-0.6,3.9-1.8,5.9-1.8c20-0.1,39.9-0.5,59.9,0c19.2,0.5,33.8,14.5,32.8,30.8c-0.6,10.8-5.5,19.5-15.6,24.5c-3,1.5-6,3-10.1,5
		c12.4,17.4,19.2,38.2,36.5,52.5c-8.6,0-18.5,0.3-28.4-0.3c-1.8-0.1-3.6-3.8-5-6.1c-7.2-12.7-14.6-25.2-21.1-38.3
		C2611.7,934.1,2607.1,932.2,2599.3,934.8z M2598.7,878.6c0,15.2-0.1,30.1,0.1,45c0,2,1.4,5.1,2.9,5.8c11,5,27.6-2.9,31.4-14.4
		C2639.9,894.5,2629.7,872,2598.7,878.6z"/>
	<path class="st1" d="M2602.2,738.2c-23.7,0-47.4,0-71.1,0c-0.3-0.7-0.6-1.3-0.9-2c2.3-1.3,4.4-3.4,6.8-3.6
		c8.6-0.8,12.1-6.3,12.1-13.8c0.3-34.2,0.3-68.5,0-102.8c-0.1-7.7-4.4-12.6-12.5-13.7c-2.2-0.3-4.2-1.4-7.1-2.4
		c6.7-4.6,63.8-5.5,75-1c-3.6,1.6-5.6,3-7.9,3.4c-8.2,1.5-12.8,6-12.8,14.5c-0.1,33.9-0.1,67.9,0,101.8c0,7.5,3.7,12.1,11.2,13.8
		c2.7,0.6,5.3,2,8,3C2602.8,736.3,2602.5,737.3,2602.2,738.2z"/>
	<path class="st1" d="M1577.6,600.2c-4.1,1-6.8,1.8-9.5,2.3c-7.3,1.3-10.8,5.7-10.9,12.8c-0.1,34.9,0,69.7-0.1,104.6
		c0,7.3,4,10.6,10.3,12.4c3,0.8,5.9,2,8.8,3c-0.2,0.8-0.3,1.6-0.5,2.4c-23.8,0-47.6,0-74.6,0c4.4-2.7,6.5-4.8,8.9-5.2
		c8.1-1.4,12.1-5.8,12.1-13.9c0.1-34.2,0.2-68.5,0-102.7c-0.1-7.6-4-12.9-12.4-13.6c-2.1-0.2-4.2-1.4-7.1-2.5
		C1510.3,594.8,1569.5,594.8,1577.6,600.2z"/>
	<path class="st1" d="M2077.9,874.9c1.2-0.6,2.5-1.8,3.8-1.8c21.2,0.3,42.6-1.4,63.4,1.7c35.8,5.3,48,29.4,47.1,56.8
		c-1.2,35.5-26.7,53.6-54.6,54.5c-17.8,0.6-35.6,0.1-53.4,0.1c-1.9,0-3.9-0.6-6.1-1c0.7-1.2,0.9-2.1,1.3-2.2
		c13.9-2.8,13.9-2.8,13.9-17.4c0-25.5,0-51.1,0-76.7c0-3.4,0-6.8,0-10.8c-5.5-0.5-10.3-0.9-15-1.4
		C2078.2,876.2,2078,875.6,2077.9,874.9z M2116.4,877.9c0,35.4,0,69.7,0,104.8c4.5,0,8.2,0,11.9,0c20.6,0,31.4-7.5,35.4-27.9
		c2.6-13.2,3.1-27.1,2.4-40.6c-0.5-8.2-3.6-17.2-8.1-24.2C2148.1,874.6,2132,877.2,2116.4,877.9z"/>
	<path class="st1" d="M2738.9,987.9c-30.1,1.2-58.8-20.5-58.6-58.3c0.1-34.2,23.2-58,58.9-58.4c33.2-0.4,58.5,21.2,58.8,59
		C2798.3,963.3,2769.7,991,2738.9,987.9z M2773.6,929.8c-1.8-10.5-2.8-20.7-5.4-30.5c-4.1-16-14-23.4-29.2-23.4
		c-14,0-25.5,9.1-29.4,23.9c-5.4,20.2-5.2,40.5,0.1,60.6c3.7,14.3,14.4,22.6,28,22.8c17,0.2,26.1-5.8,30.3-21.7
		C2770.7,951.2,2771.8,940.4,2773.6,929.8z"/>
	<path class="st1" d="M1736.4,928.8c3,33.2-27,59.7-57.3,59.7c-30.1,0-60.5-22-60-59.3c0.5-34.1,24.8-58.3,59.4-58
		C1714.1,871.5,1737.1,894.7,1736.4,928.8z M1644.4,927.1c1.1,11.2,1.5,20.2,3,29.1c2.8,15.5,13.2,26.1,25.5,27
		c19,1.4,28-3.7,33.9-21.8c6.9-21.1,6.5-42.9,0-64c-4.7-15.4-15.1-21.7-30-21.5c-13.6,0.2-23.4,7.5-27.9,23
		C1646.2,908.7,1645.7,919.1,1644.4,927.1z"/>
	<path class="st1" d="M2515.3,939.7c-6.1-0.4-11.3-0.8-16.6-1.1c0.1-0.9,0.1-1.8,0.2-2.8c17.1,0,34.1,0,51.1,0
		c0.1,0.8,0.1,1.7,0.2,2.5c-3.7,0.5-7.4,1-12.4,1.7c0,15,0,30,0,46c-5.2-0.8-9.1-1.8-12.9-1.9c-4.7-0.2-9.8-0.6-14.1,0.9
		c-31.8,10.9-66-3.7-76.3-33.3c-9.5-27.5-1.6-64.1,30.1-75.8c9.1-3.4,19.8-3.7,29.8-3.5c12.6,0.3,25.1,2.5,37.8,3.9
		c0,10.8,0,23,0,35.1c-0.8,0.2-1.6,0.4-2.4,0.6c-1.7-4.3-3.4-8.6-5.1-12.9c-7.8-19.9-27-28.2-46.1-20c-9.6,4.1-15.4,11.8-18.1,21.3
		c-5.6,19.8-5.7,39.8-0.3,59.7c7.2,26.8,36.1,27.8,51,17.6c2-1.3,3.8-4.4,3.9-6.8C2515.6,960.6,2515.3,950.4,2515.3,939.7z"/>
	<path class="st1" d="M1971.9,898.7c0,29,0,55.7,0,83c4.9,0.6,9.9,1.2,14.8,1.8c-0.1,0.6-0.1,1.3-0.2,1.9c-11.6,0-23.1,0-34.7,0
		c-0.1-0.6-0.2-1.2-0.3-1.7c3.9-0.6,7.8-1.2,12.3-2c0-34.4,0-68.8,0-103.7c-4.2-0.4-8.3-0.8-13.1-1.2c7.4-6.3,27.6-5.1,33.1,1.5
		c18.6,22.1,37.1,44.2,55.6,66.3c2.5,3,5.3,5.8,8.9,9.9c0-26.2,0-50.8,0-76.4c-4.6-0.3-9.3-0.7-14.5-1.1c4.9-5.2,30-5.7,38.4-0.2
		c-5.8,0.5-10.2,0.8-15.8,1.3c0,35.6,0,71.2,0,106.6c-7.1,3-10.9,1.6-15.2-3.7C2018.9,953.9,1996.1,927.3,1971.9,898.7z"/>
	<path class="st1" d="M2972.4,937.5c0,15,0,29.3,0,44.4c6,0.5,11.6,0.9,17.2,1.3c-0.1,0.7-0.1,1.4-0.1,2c-18,0-35.9,0-53.9,0
		c-0.1-0.6-0.2-1.3-0.3-1.9c4.6-0.4,9.1-0.9,14.2-1.4c0-34.9,0-69.3,0-104.1c-5-0.3-9.5-0.6-15.4-1c1.7-1.9,2.6-3.6,3.5-3.6
		c22.1,0,44.4-1.2,66.3,0.8c20.2,1.8,28.7,12.5,28.4,30.1c-0.3,19.6-13,28.2-30.6,31.2C2992.4,936.9,2982.6,936.8,2972.4,937.5z
		 M2972.8,877.7c0,17.7,0,35,0,53c11.5-0.9,24.3,3.9,31.2-8.2c6.6-11.5,6.9-24.7-0.1-36.3C2996.9,874.4,2984.5,877.8,2972.8,877.7z"
		/>
	<path class="st1" d="M1485.5,979.6c-1.2,2.5-2.2,4.7-3.2,6.9c-0.7-0.2-1.4-0.3-2.1-0.5c0-12.5,0-24.9,0-40.6
		c2.9,3.2,5.1,4.7,5.9,6.7c1.9,4.9,2.5,10.3,4.7,15c7.9,17,25.8,19.9,40.4,13.8c12.8-5.3,15.7-21.6,5.2-30.7
		c-7.6-6.6-17-11.1-25.7-16.3c-4.8-2.9-10.1-4.9-14.7-8c-10.6-7-17.3-16.3-14.8-29.7c2.2-11.8,13.8-21.6,27.1-23.6
		c13.3-1.9,26.3-1.3,39.2,3.1c3.2,1.1,7.5-0.9,13.1-1.7c0,8.8,0.1,19.1-0.2,29.3c0,0.7-3.1,2.2-3.3,1.9c-1.3-1.4-2.6-3-3-4.8
		c-4.3-16.6-15.4-25.3-31.4-24.5c-7.6,0.4-14.2,3.1-17.3,10.5c-3.2,7.5-2,15.2,4.2,20.5c5.8,5,12.7,8.6,19.4,12.5
		c6.9,4.1,14.2,7.6,21.1,11.7c11.2,6.7,16.8,17,14.6,29.8c-2.2,12.7-11.3,20.4-23.3,24.3C1524.7,990.6,1507.7,988.7,1485.5,979.6z"
		/>
	<path class="st1" d="M1380.8,878c-4.9-0.4-9.4-0.7-14.6-1.1c5.2-4.4,77.5-5.8,91.6-2.4c0,10.8,0,21.7,0,33.3
		c-6.7-9.8-11-21.9-19.5-26.8c-9-5.1-22-3.3-34-4.7c0,17.4,0,32.8,0,50c12.2,0,24.2,0,36.3,0c0,1,0,2,0,2.9c-11.8,0-23.6,0-36.2,0
		c0,18.1,0,35,0,54.6c11.7-1.5,24.8,0.1,33.9-5.3c8.6-5,12.8-17.4,19.3-27c0,11.3,0,22.4,0,34c-30.6,0-60.5,0-90.4,0
		c-0.1-0.7-0.2-1.4-0.3-2c4.3-0.5,8.6-1,13.7-1.6C1380.8,947.7,1380.8,913.3,1380.8,878z"/>
	<path class="st1" d="M1138.2,873.7c0,13.1,0,25.5,0,37.9c-0.8,0.3-1.5,0.7-2.2,1c-8.6-13.8-7-38-33.4-34.7c0,34.5,0,69,0,103.8
		c5.1,0.7,9.9,1.4,14.7,2.1c-0.1,0.6-0.2,1.3-0.3,1.9c-18.8,0-37.6,0-56.3,0c-0.1-0.8-0.2-1.5-0.2-2.2c4.2-0.3,8.6,0,12.5-1.1
		c2.5-0.7,6.3-3.5,6.3-5.4c0.4-32.7,0.3-65.4,0.3-97.8c-15.7-3.9-24.7,2.7-29.8,20.4c-1.3,4.4-3.6,8.6-5.4,12.8
		c-1.3-0.3-2.6-0.7-3.8-1c0.8-12.4,1.5-24.8,2.3-37.6C1075.2,873.7,1106.8,873.7,1138.2,873.7z"/>
	<path class="st1" d="M2891.4,874.4c12.4,0,24.7,0,37,0c0.1,0.9,0.1,1.8,0.1,2.7c-4.6,0.3-9.3,0.5-15.2,0.9
		c0,20.5,0.4,40.6-0.2,60.7c-0.2,8.9-1.6,17.9-3.8,26.5c-3.3,12.5-12.1,20.1-25.1,21.9c-19.8,2.8-42.4,1.8-52.1-15.3
		c-4.9-8.7-6.9-19.8-7.5-30c-1.2-17.7-0.3-35.5-0.3-53.2c0-3.3,0-6.7,0-10.3c-5.6-0.4-10.1-0.8-15-1.2c4.7-5,44.7-5.7,53.7,0
		c-6.4,0.4-11,0.7-15.3,1c0,23.7,0,46.9,0,70.1c0,1.2,0.2,2.5,0.3,3.7c1.3,20.4,8.3,30.5,22.1,31.5c21,1.6,33.7-6.5,35.4-27.6
		c2.1-25.6,0.5-51.4,0.5-77.5c-5.3-0.4-9.9-0.7-14.5-1C2891.5,876.2,2891.5,875.3,2891.4,874.4z"/>
	<path class="st1" d="M1751.2,983.3c4.4-0.4,8.8-0.8,13.8-1.3c0-34.8,0-69.1,0-103.9c-4.9-0.4-9.4-0.8-14.3-1.1
		c4.2-4.5,73.8-6.2,91.3-2.6c0,10.8,0,21.8,0,34.3c-6.9-10.3-11.1-22.6-19.6-27.6c-8.9-5.2-22-3.4-34-4.8c0,17.3,0,32.8,0,49.9
		c12.1,0,24.2,0,36.3,0c0,1,0,2,0,2.9c-11.8,0-23.5,0-36.1,0c0,18.1,0,35,0,53.5c6.9,0,14.1,0,21.2,0c0,0.9-0.1,1.7-0.1,2.6
		c-19.4,0-38.9,0-58.3,0C1751.3,984.6,1751.3,983.9,1751.2,983.3z"/>
	<path class="st1" d="M2284.4,981.9c5.7,0.6,9.9,1,14.1,1.4c0,0.6,0,1.2,0,1.9c-10.6,0-21.2,0-31.8,0c19.6-4.4,17.2-23.4,23.1-36.4
		c10.2-22.5,17.9-46.2,27.2-69.1c1.2-2.9,5.4-6.2,8.2-6.2c2.7,0,6.6,3.7,7.8,6.6c13.2,31.4,25.7,63.1,39.1,94.4
		c1.9,4.4,7.2,7.4,10.6,10.8c-13.1,0-28,0-42.9,0c-0.1-0.5-0.2-1-0.3-1.5c3.6-0.7,7.1-1.4,12.1-2.4c-4.7-12-9.1-23.5-13.9-34.7
		c-0.5-1.2-3.7-1.9-5.7-1.9c-6.9-0.2-13.8,0.7-20.6-0.3c-10.1-1.4-15.3,2.5-17.9,12C2291.2,964.7,2287.8,972.7,2284.4,981.9z
		 M2318.7,896.9c-0.8,0.1-1.6,0.3-2.3,0.4c-5.2,13.7-10.5,27.4-15.9,41.7c12,0,22.8,0,34.6,0C2329.3,924.2,2324,910.5,2318.7,896.9z
		"/>
	<path class="st1" d="M1901.9,877.9c-4.9-0.3-9.4-0.6-14.4-0.9c4.8-4.8,43.7-5.7,52.8-0.2c-4.8,0.4-9.6,0.9-14.8,1.3
		c0,34.7,0,69.1,0,103.7c4.9,0.6,9.2,1.2,13.4,1.7c-0.1,0.7-0.2,1.3-0.2,2c-16.8,0-33.6,0-50.4,0c-0.1-0.6-0.2-1.3-0.3-1.9
		c4.4-0.5,8.8-1.1,13.9-1.7C1901.9,947.6,1901.9,913.3,1901.9,877.9z"/>
	<path class="st1" d="M2260.8,876.8c-6.8,0.5-11.4,0.8-17.2,1.2c0,3.5,0,6.9,0,10.2c0,25.5,0,51.1,0,76.7c0,15.5,0,15.5,13.8,20.2
		c-16.8,0-33.7,0-50.5,0c-0.1-0.5-0.2-1-0.3-1.6c4.5-0.6,8.9-1.1,14-1.8c0-34.4,0-68.8,0-103.9c-4.7-0.3-9.2-0.6-13.9-0.9
		C2210.2,871.9,2250.9,871,2260.8,876.8z"/>
	<path class="st1" d="M1199.8,985.5c-16.6,0-33.2,0-49.8,0c-0.1-0.7-0.1-1.4-0.2-2c4.3-0.5,8.7-0.9,13.8-1.5c0-34.3,0-68.6,0-103.8
		c-4.4-0.4-9.1-0.8-14.3-1.2c4.9-5.1,44.9-5.6,53.6,0c-6.3,0.4-10.9,0.7-16,1c0,34.8,0,69.2,0,104c4.7,0.5,8.8,0.9,13,1.3
		C1199.8,984,1199.8,984.7,1199.8,985.5z"/>
	<path class="st1" d="M2318.7,896.9c5.3,13.7,10.6,27.3,16.4,42.1c-11.8,0-22.6,0-34.6,0c5.5-14.3,10.7-28,15.9-41.7
		C2317.1,897.2,2317.9,897,2318.7,896.9z"/>
</g>
<path class="st3" d="M1052.4,715.3c50.2,8.4,99.4,14.4,149.2,9.5c52.1-5.1,102.9-15.8,150.6-38.1c25.7-12,49.5-27.1,68.5-48.4
	c40.8-45.9,46.9-98.6,28.2-155.3c-14.1-42.9-40.7-78.1-71.8-110.1c-56.2-58.1-123-101.6-194.3-138.6
	c-90.7-47.1-186.4-79.3-287.3-95.3c-69.5-11.1-139.2-14.3-208.8-0.6c-9.2,1.8-18.2,4.5-27.2,7.2c-3.5,1.1-6.6,3.4-12.3,6.5
	c12.8,3.6,23,5.9,32.8,9.6c5.4,2.1,13.7,6.4,13.9,10c0.4,7.8-8.3,8.8-14.8,10.4c-18,4.4-36,5.1-53.8-0.7c-20-6.5-25.7-20.6-15-38.8
	c6.6-11.2,14.5-21.6,22.3-32c7.1-9.5,17.7-12.9,28.9-15.5c22.7-5.3,44.9-12.4,67.8-16.7c54.9-10.5,110.3-10.6,165.7-4.9
	c111.3,11.5,217.3,42.4,317.9,90.7c87.6,42.1,168.1,95.1,235.4,166.2c36.5,38.6,66,81.7,86.5,131c39.3,94.5,3.4,205.8-77.2,263.5
	c-44.9,32.1-95,51.5-148.3,63.3c-81.9,18.2-163.5,16.1-244.9-3c-3.2-0.8-6.4-1.4-10.1-2.2c-0.7,5.8-1.4,11.2-2.1,16.5
	c-3,22.7-13.6,32.6-36.7,34.3c-17.5,1.3-31.8-6.4-37.8-23.6c-5.3-15.3-8.4-31.4-11.4-47.4c-1.5-8-3.9-12.8-11.9-16.7
	c-77-37-143.7-87.1-195.5-155.8c-19.1-25.4-16.6-55.9,7.8-78.1c23.2-21.2,51.5-33.8,80.2-45.2c37.5-14.9,76.3-25.5,116-32.5
	c5.7-1,7-3.4,7.6-8.7c4.4-40.6,8.8-81.1,14-121.6c1.3-9.7,4.9-19.4,8.8-28.5c5.5-12.9,13-13.7,22.8-3.8
	c19.1,19.2,27.7,42.9,30.1,69.3c2.2,24.4,4,48.8,5.9,73.2c0.3,3.3,0.4,6.6,0.7,10.6c5.5,0,10.6,0.1,15.6,0
	c64.1-1.2,126.8,7.8,187.7,27.8c23.2,7.6,44.1,20,60.9,38.2c18.1,19.6,24.8,42.2,15.8,67.8c-9.3,26.7-28.7,43.6-56,49.2
	c-18.1,3.8-35.1-4.4-51-12.8c-5.5-2.9-4.4-7.8,0.4-10.8c6.1-3.8,12.7-6.9,19.1-10.4c5.5-3.1,11.4-5.7,16.3-9.6
	c10-8,10.3-17.8-0.4-24.6c-9.5-6.1-20.2-11-31.1-14.4c-36-11.3-73.4-15.4-110.9-18.2c-20.2-1.5-40.6-1.7-60.8-2.4
	c-3-0.1-5.9,0-10.4,0C1049.6,575.4,1051,645.1,1052.4,715.3z M970.1,508.2c-3.3-0.6-4.2-0.9-5-0.9c-49.2,3.9-98.3,9.5-145.9,23.4
	c-11.6,3.4-23.1,7.5-33.9,12.7c-14.4,7-16.5,19.6-6.3,32.1c1.5,1.9,3.2,3.6,4.9,5.3c42.8,44.1,93.3,76.7,149.8,100.5
	c9.1,3.8,18.4,7.3,29.9,11.8C965.8,630.4,967.9,569.2,970.1,508.2z"/>
<path class="st3" d="M2653.3,614.2c13.5-18.9,26.6-38.1,40.6-56.6c26.8-35.6,55.1-70.1,91.2-96.9c11.5-8.5,24.5-15.9,37.8-21.1
	c29.4-11.4,54.8-1.1,69.4,26.9c13,24.9,16.1,52,13.7,79.4c-7.3,84.6-54.3,142.8-125.6,183.5c-24.3,13.8-51.5,17-79.3,12
	c-5.3-1-8,0.3-10.1,5.6c-33.5,81.8-56.8,166.4-67.9,254.1c-2.6,20.4-13.7,26.2-30.5,14.6c-30.5-21-46.1-50.8-47.4-87.5
	c-1.4-40.7,7.6-80.1,20.6-118.2c13.5-39.4,29.7-77.8,45.2-116.5c2.1-5.3,2.2-9-0.5-14.1c-21.2-40.3-19.9-82.2-6.5-124.2
	c18.2-56.9,51.3-104.4,95.1-144.7c0.7-0.6,1.3-1.4,2.1-1.7c5.2-1.9,10.4-3.6,15.6-5.4c1.5,4.9,5,10.2,4.2,14.7
	c-2.4,13.8-4.4,28.3-10.3,40.8c-11.2,23.7-25.1,46.2-37.7,69.3c-11.8,21.7-19.9,44.7-21.5,69.6c-0.3,5.4,0,10.8,0,16.2
	C2652,614.1,2652.6,614.1,2653.3,614.2z M2729.6,660.5c34-6.4,64.1-16.7,88.1-39.8c28.4-27.3,48.2-59,47.4-100.3
	c-0.1-7.5,0.7-16.5-7.6-19.9c-8.8-3.6-14.9,3.6-20.1,9.2c-12.9,14-25.7,28.2-37.7,43C2773.1,585.6,2749.8,620.5,2729.6,660.5z"/>
<path class="st3" d="M1809,671.6c37.9-0.8,71.9-4.6,104-17.5c12.2-4.9,24-11.7,34.3-19.8c14.9-11.8,13.2-28.5-4.3-36
	c-16.2-6.9-33.8-12.3-51.2-14.5c-35.4-4.6-71.1-6.2-106.6-9.7c-22.2-2.2-44.7-4.3-66.4-9c-23.8-5.1-30.6-16.1-30-40.4
	c1-36.7,15.6-64.2,50.9-79.6c49.4-21.6,100.9-32.4,154.5-31.3c32.6,0.7,65.1,4.7,97.5,8.3c8.4,0.9,16.9,5.1,24.2,9.5
	c3.3,2,6.3,8.9,5.5,12.6c-4.1,18.2-14.2,30.3-34,32.2c-59.7,5.7-119.3,11.7-179,18c-12.9,1.4-25.6,4.5-38.4,7.1
	c-3.5,0.7-7.4,1.6-10.2,3.6c-2.6,1.9-5.8,5.6-5.5,8.1c0.2,2.3,4.6,5.5,7.6,5.9c18.2,2.9,36.5,5.9,54.9,7.6c31.9,3,64.1,4,95.9,7.9
	c16.3,2,32.6,7,48,12.8c32.3,12.1,47.4,37.5,48.9,70.8c0.7,16.5-1,33.2-3.4,49.6c-2.4,16.9-11.1,31.8-26.2,39.6
	c-63,32.6-128.5,43.9-197.2,19.2c-24-8.6-44.5-23.2-62.1-41.6c-30.4-31.8-19.4-78.3,22.2-92.9c27.9-9.8,56.8-8.7,85.4-4.6
	c19.4,2.8,38.8,6.9,57.7,12.2c9.9,2.8,19.4,8.4,28.1,14.2c8.5,5.7,9,13.8,0.5,19.3c-9.9,6.4-21.2,11.9-32.7,14.4
	c-29.1,6.3-56.9,0.4-83.6-12.7c-10.4-5.1-22-8.3-33.4-10.9c-9.2-2.2-17.1,1.4-22.8,9.6c-7.2,10.5-7.1,19.4,4.4,25.1
	c11.6,5.8,24.9,8.6,37.8,11.2C1793.5,671.9,1803.1,671.3,1809,671.6z"/>
<path class="st3" d="M2452.4,498.1c-4,13.1-8,25.9-11.8,38.2c16.1,0,31.5-0.2,46.9,0.1c13.3,0.2,26.6,0.8,39.9,1.5
	c8.8,0.5,13.3,4.9,13.7,13.7c0.3,7.8,0.2,15.7-0.3,23.6c-0.7,11.6-5.1,16.5-16.8,17.3c-30.5,2.1-61,3.9-91.6,5.6
	c-16.1,0.9-16.1,0.7-20.6,15.8c-3.6,12.2-7.3,24.3-10.9,36.5c-2.9,9.7-1.4,11.3,8.8,9.4c32.2-5.8,64.3-11.6,96.5-17.3
	c4.8-0.8,9.6-1,14.4-1.7c16.2-2.1,26.6,2.9,34.9,16.9c7.4,12.6,6.5,23.4-3.9,33.7c-21.4,21.1-47.2,35.7-74.2,48.3
	c-25.6,11.9-52,21.5-80.8,21.8c-14.6,0.2-27.3-4.6-38.7-13.3c-31.4-24.1-40.1-56.3-32.2-93.7c3.5-16.2,9.1-31.9,13.3-47.9
	c1.1-4,0.9-8.7,0.2-12.9c-1.5-9.2-4.6-18.2-5.3-27.4c-1-13.5,2.7-19,16.1-20.5c12.5-1.4,17.9-8,22.2-18.4
	c4.8-11.6,10.8-22.7,16.7-34.9c-5.5-0.8-10-1.2-14.3-2c-19.1-3.7-31.5-15.8-40-32.5c-5.4-10.6-3.3-16.8,8.5-19.8
	c17.8-4.6,35.9-8.4,54.1-11.4c49.1-8.1,98.4-13.2,148.2-12.7c14.4,0.1,26.5,4.7,35.6,15c8.3,9.4,15.7,19.9,21.9,30.9
	c7.8,13.8,3.2,23-12.7,25c-35.7,4.4-71.6,7.8-107.4,11.4C2472.8,497,2462.8,497.4,2452.4,498.1z"/>
<path class="st3" d="M2105.3,550.9c-1.4,16.5-3.2,32.9-4,49.4c-1.6,29-2.3,58-4,87c-0.5,9.3-2.3,18.6-4.6,27.7
	c-3.8,15.2-13.3,22.8-27.2,23.5c-12.9,0.6-27.3-7.8-31.3-20.6c-3.7-12-6.6-24.7-7.2-37.2c-2.9-66.4,4.7-131.6,23.5-195.4
	c3.4-11.5,8.4-22.8,14.7-33c12.2-19.7,28.7-21.1,45-4.6c28.8,29.3,51,63.6,72.6,98.4c12.5,20,25,40,37.5,60c1.8,2.8,3.5,5.8,6,8
	c2.3,2,5.4,3.1,8.1,4.6c1.2-2.6,3.5-5.3,3.4-7.8c-0.7-13.2-0.5-26.8-3.4-39.6c-12.6-54.7-26.3-109.2-39.2-163.9
	c-2.1-8.7-3.3-17.9-3.1-26.8c0.3-12.7,9.4-17.9,19.7-10.5c13.4,9.7,26.7,20.2,37.3,32.7c30.7,35.7,45.3,78.7,52.7,124.5
	c7.6,47.2,6,94-6.4,140.3c-4.5,16.8-12.8,31.3-26.9,42c-19,14.3-42.9,14-59.6-2.9c-12.4-12.6-24.1-26.6-33.3-41.7
	c-18.5-30.4-35.1-62.1-52.6-93.1c-4.2-7.5-8.9-14.6-13.4-21.9C2108.3,550.2,2106.8,550.6,2105.3,550.9z"/>
<path class="st3" d="M1582.7,353c-5.6,7.6-10,15-15.7,21.2c-8.6,9.5-18.3,9.8-26.6,0.2c-12.1-14.1-21.3-29.5-15.3-49.5
	c0.7-2.2-0.4-5.8-2-7.7c-24.7-29-28.8-60.3-10.8-94.1c30.1-56.4,78.8-87.8,140.2-101.1c26.6-5.8,53.3-8,79.9,0
	c12.2,3.7,22.9,9.5,29.1,21.5c1,1.8,4,3,6.3,3.6c2.6,0.8,5.4,0.4,8.1,0.9c41.1,7.3,58.8,35.7,47.7,76.4c-6,21.8-17.9,40.2-32.4,57.2
	c-22,25.9-48.2,47.1-78.9,61.6C1670.8,362.8,1627.7,372.2,1582.7,353z M1605.9,300.8c22.5,4.4,41.9,5,61.5,2.6
	c44.5-5.4,80.8-24.3,103.8-64.2c3.7-6.4,6-13.9,7.1-21.2c2.6-17-7.6-27.8-24.8-25.9c-9.8,1.1-19.8,3.3-28.8,7.1
	c-28.9,12.1-53,31.4-75,53.3C1634.8,267.4,1621.4,283.6,1605.9,300.8z M1635.7,185.7c-37.3-0.3-79.8,34.3-85.3,68.3
	c-0.9,5.4,0.6,11.2,1,16.9c1,0.1,1.9,0.3,2.9,0.4C1576.3,238.7,1602.3,210.1,1635.7,185.7z"/>
<path class="st3" d="M1662.4,613.1c-1,37.1-1.3,74.3-3.3,111.3c-1,18.2-8.8,23.9-27.3,24.2c-6.9,0.1-13.9-0.7-20.6-2.3
	c-12.6-3-20.8-11.2-22.6-24.3c-2.2-16.2-5.5-32.5-5.1-48.6c1.6-67.7,4.1-135.4,6.9-203c0.5-11,4-21.9,6.8-32.7
	c2.3-8.8,8.4-14.6,17.7-16.2c8.9-1.5,13.9,4.4,18.8,10.4c13.8,16.9,19.2,36.4,20.1,58c1.7,41.1,4.2,82.2,6.4,123.2
	C1660.9,613,1661.6,613.1,1662.4,613.1z"/>
</svg>
