<?xml version="1.0" encoding="utf-8"?>
<!-- Generator: Adobe Illustrator 27.1.1, SVG Export Plug-In . SVG Version: 6.00 Build 0)  -->
<svg version="1.1" id="Layer_1" xmlns="http://www.w3.org/2000/svg" xmlns:xlink="http://www.w3.org/1999/xlink" x="0px" y="0px"
	 viewBox="0 0 3320.47 677.65" style="enable-background:new 0 0 3320.47 677.65;" xml:space="preserve">
<style type="text/css">
	.st0{display:none;}
	.st1{display:inline;fill:#FFFFFF;}
	.st2{fill:#FFFFFF;}
</style>
<g class="st0">
	<path class="st1" d="M885.07-131.81c2.23-0.14,3.88-0.32,5.53-0.33c17.28-0.02,34.56,0.07,51.84-0.09
		c3.65-0.03,5.52,0.88,7.04,4.56c14.85,36.05,49.53,58.29,88.35,57.01c37.9-1.26,71.34-25.82,83.58-62.18
		c2.95-8.76,3.85-18.21,4.94-28.01c-37.23,26.27-78.06,34.35-121.8,26.33c-44.3-8.12-77.41-33.49-101.06-71.07
		c-31.88-50.63-29.75-127.56,17.27-180.54c45.03-50.73,136.93-72.16,205.34-20.7c0-9.93,0-19.34,0-29.14c20.53,0,40.34,0,60.97,0
		c0,1.88,0,3.68,0,5.48c0,89.18,0.47,178.35-0.15,267.52c-0.46,66.47-32.97,113.77-92.54,140.95
		C1040.78,2.45,966.06-5.66,916.94-64.92c-15.36-18.54-26.14-39.26-31.24-62.85C885.47-128.86,885.36-129.97,885.07-131.81z
		 M1034.33-192.56c50.77,0.07,91.74-40.65,91.86-91.32c0.12-50.62-40.59-91.37-91.52-91.63c-50.65-0.25-91.7,40.53-91.89,91.29
		C942.58-233.75,983.66-192.63,1034.33-192.56z"/>
	<path class="st1" d="M300.53-396.71c12.84-9.19,24.23-19.25,37.25-26.34c47.07-25.61,108.93-14.05,145.02,25.42
		c22.14,24.21,32.81,52.3,32.71,84.96c-0.19,58.2-0.05,116.4-0.05,174.59c0,1.85,0,3.7,0,5.92c-20.25,0-40.08,0-60.82,0
		c0-2.02,0-4.18,0-6.33c0-58.39,0.08-116.77-0.03-175.16c-0.06-30.61-20.4-55.34-49.75-60.98c-36.34-6.98-71.51,19.91-72.04,56.75
		c-0.85,59.31-0.34,118.64-0.4,177.97c0,2.42,0,4.83,0,7.69c-20.4,0-40.33,0-60.9,0c0-2.84,0-5.42,0-8
		c0-56.88-0.19-113.77,0.09-170.65c0.13-26.14-10.61-45.94-33.53-58.11c-39.72-21.08-88.08,8.08-88.78,53.39
		c-0.48,31.16-0.11,62.33-0.12,93.49c0,27.79,0,55.57,0,83.36c0,2.04,0,4.08,0,6.55c-20.32,0-40.27,0-60.52,0
		c0-101.26,0-202.35,0-303.81c20.1,0,39.91,0,60.42,0c0,4.83,0,9.58,0,15.51c26.12-14.56,53.14-18.46,81.38-14.34
		C258.96-430.66,282.19-416.67,300.53-396.71z"/>
	<path class="st1" d="M1687.58-164.04c0,10.31,0,19.6,0,29.36c-20.33,0-40.11,0-60.47,0c-0.09-1.97-0.27-3.96-0.27-5.96
		c-0.01-137.8,0.03-275.6-0.15-413.4c-0.01-5.81,1.6-7.28,7.22-7.15c15.58,0.36,31.18,0.1,46.77,0.12c2.01,0,4.03,0.19,6.59,0.31
		c0,50.48,0,100.52,0,151.79c46.73-32.4,96.27-38.8,148.34-19.51c33,12.23,57.75,35.39,75.86,65.28
		c31.48,51.98,28.49,130.13-22.54,183.07C1838.59-127.91,1749.08-117.22,1687.58-164.04z M1779.3-194.71
		c51.03,0,92.05-40.91,92.11-91.84c0.06-50.81-41.04-91.89-92.03-92.01c-50.64-0.11-91.91,40.87-91.98,91.36
		C1687.31-235.61,1727.96-194.71,1779.3-194.71z"/>
	<path class="st1" d="M790.43-406.15c0-10.69,0-20.13,0-29.88c20.48,0,40.29,0,60.47,0c0,101.28,0,202.35,0,303.85
		c-19.93,0-39.87,0-60.47,0c0-9.56,0-18.99,0-29.56c-40.71,29.33-84.8,36.47-131.84,24.93c-34.52-8.47-61.5-28.91-82.83-56.9
		c-40.96-53.77-39.55-131.95,3.51-184.99c25.77-31.74,58.54-51.79,99.72-56.44C719.29-439.7,756.53-431.41,790.43-406.15z
		 M698.72-375.5c-50.76,0.07-91.86,41.07-91.68,91.48c0.17,50.78,41.1,91.58,91.73,91.46c50.86-0.12,91.72-40.92,91.65-91.51
		C790.35-334.84,749.5-375.57,698.72-375.5z"/>
	<path class="st1" d="M2618.43-283.33c6.15-8.4,12.33-16.79,18.45-25.21c30.56-42.04,61.15-84.07,91.6-126.2
		c2.35-3.25,4.76-4.49,8.77-4.45c20.09,0.21,40.19,0.09,60.29,0.09c1.65,0,3.3,0,6.24,0c-3.63,5.29-6.59,9.7-9.66,14.03
		c-24.86,35.05-49.68,70.13-74.7,105.06c-2.51,3.5-2.24,6.06-0.43,9.57c28.88,56.22,57.65,112.5,86.44,168.76
		c1.1,2.14,2.14,4.31,3.52,7.08c-2.29,0.15-4.05,0.36-5.81,0.36c-19.35,0.03-38.69-0.12-58.04,0.13c-4.22,0.06-6.22-1.37-8.01-5.07
		c-19.61-40.5-39.41-80.92-59.16-121.35c-0.65-1.34-1.41-2.62-2.49-4.62c-1.31,1.49-2.45,2.58-3.34,3.83
		c-17.51,24.61-35.06,49.21-52.4,73.95c-1.59,2.26-2.54,5.44-2.6,8.22c-0.28,12.76-0.14,25.53-0.15,38.29c0,2.01,0,4.02,0,6.33
		c-20.34,0-39.97,0-60.17,0c-0.11-2.13-0.3-4.13-0.3-6.12c-0.01-137.97,0.01-275.95-0.12-413.92c0-5.1,1.31-6.75,6.54-6.64
		c15.96,0.33,31.93,0.31,47.89,0.02c5.04-0.09,6.25,1.52,6.24,6.41c-0.14,88.04-0.1,176.08-0.1,264.12c0,2.32,0,4.64,0,6.97
		C2617.45-283.56,2617.94-283.44,2618.43-283.33z"/>
	<path class="st1" d="M1540.85-236.54c17.34,10.38,34.38,20.58,51.42,30.79c-28.5,48.47-84.54,82.08-153.38,72.51
		c-67.22-9.35-122.29-66.56-128.71-133.25c-7.03-73,34.43-139.63,101.75-161.81c64.46-21.24,137.75-2.36,180.87,65.6
		c-17.28,10.36-34.54,20.71-51.78,31.05c-37.59-56.53-107.69-53.9-144.16-17.12c-36.02,36.34-36.44,98.8,6.15,135.02
		C1438.33-183.72,1503.13-180.97,1540.85-236.54z"/>
	<path class="st1" d="M2470.18-238.66c17.26,10.34,34.25,20.53,51.24,30.71c-32.56,53.5-93.65,84.37-163.58,70.48
		c-58.69-11.66-119.12-69.49-119.66-147.95c-0.56-80.06,60.37-137.41,116.86-149.64c69.68-15.09,132.72,14.13,166.43,69.8
		c-16.98,10.18-33.97,20.36-51.35,30.78c-19.95-28.39-46.28-44.77-81.64-43.99c-26.62,0.59-48.46,11.49-66.41,30.94
		c-32.16,34.84-32.51,95.81,9.92,131.7C2367.62-185.71,2432.36-183.39,2470.18-238.66z"/>
	<path class="st1" d="M3044.54-408.75c-9.36,17.44-18.3,34.1-27.39,51.02c-9.95-5.02-19.46-10.18-29.28-14.68
		c-19.43-8.9-39.52-15.49-61.32-14.08c-5.2,0.34-10.52,1.11-15.46,2.69c-19,6.08-24.61,28.23-10.37,42.28
		c5.21,5.14,11.76,9.64,18.53,12.38c21.19,8.56,42.79,16.09,64.19,24.12c9.47,3.55,19,7.01,28.23,11.13
		c21.16,9.46,32.9,26.2,35.71,48.97c4.8,38.78-7.99,72.2-44.96,93.69c-14.98,8.7-31.69,12.29-48.69,14.79
		c-33.79,4.98-65.04-4.46-95.86-16.44c-8.73-3.39-17.26-7.27-26.23-11.08c0.74-1.71,1.23-3.07,1.89-4.34
		c7.58-14.44,15.31-28.81,22.72-43.35c1.77-3.47,3.31-3.72,6.92-2.5c20.58,6.92,41.15,13.93,62.02,19.89
		c10.96,3.13,22.52,4.27,34.01,1.82c14.71-3.14,23.72-12.55,27.65-26.6c2.41-8.6-1.48-15.8-7.74-21.67
		c-9.92-9.3-22.1-14.67-34.54-19.58c-24.4-9.63-48.86-19.13-73.18-28.95c-23.25-9.39-34.24-28.08-39.73-51.6
		c-8.73-37.41,15.1-89.79,70.5-98.5c43.35-6.82,83.92,1.4,122.84,20.34C3031.37-415.9,3037.56-412.42,3044.54-408.75z"/>
	<path class="st1" d="M1963.62-438.75c19.87,0,39.48,0,60,0c0,9.72,0,19.13,0,30.21c27.94-20.54,57.83-30.35,91.37-30.26
		c0,19.97,0,39.72,0,59.43c-7.71,1.3-15.33,2.18-22.75,3.91c-36.3,8.49-66.18,43.42-67.9,80.56c-1.1,23.78-0.69,47.64-0.78,71.47
		c-0.1,27.77-0.12,55.55,0.09,83.32c0.04,4.68-1.29,6.09-5.99,6.02c-17.82-0.25-35.65-0.1-54.04-0.1
		C1963.62-235.86,1963.62-337.2,1963.62-438.75z"/>
	<path class="st1" d="M2206.72-438.74c0,101.46,0,202.55,0,304.1c-19.88,0-39.66,0-59.83,0c0-101.28,0-202.51,0-304.1
		C2166.7-438.74,2186.34-438.74,2206.72-438.74z"/>
	<path class="st1" d="M1217.91-132.09c0-101.4,0-202.33,0-303.77c20.12,0,40.04,0,60.29,0c0,101.28,0,202.35,0,303.77
		C1258.14-132.09,1238.33-132.09,1217.91-132.09z"/>
	<path class="st1" d="M3190.14-417.4c0,6.69,0,12.28,0,18.51c-2.14,0.1-4.13,0.28-6.12,0.28c-16.34,0.02-32.67-0.07-49.01,0.05
		c-10.61,0.07-18.44,6.02-20.38,15.12c-2.51,11.82,6.08,22.85,18.4,23.04c16.71,0.25,33.42,0.08,50.14,0.09c2.04,0,4.08,0,6.68,0
		c0,6.26,0,12.13,0,18.47c-31.14,0-62.39,0-93.69,0c-2.56-9.59-1.2-17.69,3.47-19.18c-7.44-17.19-5.51-32.87,6.98-45.52
		c-3.67-7.91-8.47-14.91-10.21-22.6c-5.26-23.36,12.2-44.75,36.18-45.12c18.4-0.28,36.8-0.06,55.21-0.04c0.54,0,1.08,0.21,2.11,0.42
		c0,5.81,0,11.67,0,18.33c-2.32,0-4.51-0.01-6.7,0c-17.09,0.06-34.18-0.1-51.26,0.27c-8.4,0.18-14.95,6.02-17.06,13.95
		c-2.03,7.59,0.63,16.27,7.51,20.2c4,2.29,9.14,3.45,13.8,3.58c15.76,0.43,31.54,0.16,47.32,0.16
		C3185.52-417.4,3187.55-417.4,3190.14-417.4z"/>
	<path class="st1" d="M3143.13-331.51c26.61,0.12,47.31,21.06,47.18,47.75c-0.13,26.15-21.26,47.15-47.38,47.09
		c-26.72-0.06-47.78-21.38-47.56-48.14C3095.57-310.79,3116.88-331.63,3143.13-331.51z M3143.17-255.61
		c15.68-0.08,28.62-13.22,28.4-28.82c-0.22-15.7-13.4-28.6-28.96-28.35c-15.86,0.26-28.4,13.08-28.29,28.9
		C3114.44-268.08,3127.26-255.52,3143.17-255.61z"/>
	<path class="st1" d="M3118.52-225.34c3.04,5.05,6.1,10.12,9.12,15.15c-15.96,16.93-17.56,33.38-4.6,45.74
		c11.72,11.18,29.87,10.63,40.85-1.24c11.9-12.86,9.89-29.47-5.82-44.34c1.41-2.37,2.91-4.9,4.42-7.42
		c1.53-2.56,3.08-5.11,4.59-7.61c15.84,6.55,25.97,28.59,22.64,48.66c-3.45,20.76-22.59,37.71-43.82,38.79
		c-22.71,1.16-42.9-13.15-48.84-34.61C3091.33-192.87,3100.31-215.51,3118.52-225.34z"/>
	<path class="st1" d="M1218.15-558.28c20.11,0,39.74,0,59.87,0c0,20.07,0,39.96,0,60.23c-19.84,0-39.63,0-59.87,0
		C1218.15-517.93,1218.15-537.83,1218.15-558.28z"/>
	<path class="st1" d="M2146.81-501.07c0-19.99,0-39.59,0-59.58c20.06,0,39.82,0,59.9,0c0,20.02,0,39.61,0,59.58
		C2186.61-501.07,2166.82-501.07,2146.81-501.07z"/>
	<path class="st1" d="M3190-126.68c0,6.03,0,11.91,0,18.13c-5.96,0-11.69,0-17.88,0c0-5.9,0-11.78,0-18.13
		C3177.91-126.68,3183.76-126.68,3190-126.68z"/>
</g>
<path class="st2" d="M2627.93,539.1c5.11-20.1,9.8-38.87,14.66-57.57c16.47-63.46,33.03-126.88,49.5-190.33
	c19.73-76.02,39.29-152.04,59.34-227.97c0.91-3.5,6.01-8.36,9.22-8.44c28.25-0.66,56.5-0.37,86.81-0.37
	c-15.57,59.55-30.72,117.61-46.08,176.46c11.94-3.95,23.39-8.73,35.33-11.57c34.39-8.15,67.33-7.12,92.86,21.7
	c15.98,18.04,19.93,40.56,17.91,63.75c-6.3,71.32-35.54,137.21-50.16,206.6c-5.97,28.17-7.12,27.92-35.99,27.92
	c-21.04,0-42.09,0-64.65,0c5.64-20.96,11.24-40.89,16.43-60.91c12.72-49.21,25.28-98.5,37.72-147.8c1.4-5.56,1.94-11.41,2.1-17.13
	c0.58-18.7-14.25-28.58-31.5-20.51c-29.65,13.84-48.35,36.65-55.92,68.85c-10.67,45.26-22.2,90.35-33.27,135.52
	c-2.84,11.53-5.19,23.18-8.44,34.63c-0.78,2.76-4.12,6.84-6.34,6.88C2688.17,539.27,2658.81,539.1,2627.93,539.1z"/>
<path class="st2" d="M213.5,576.99c13.55,1.48,26.48,4.82,39,3.83c18.49-1.48,29.94-14.45,38.54-30.06
	c14.7-26.68,19.27-56.5,26.89-85.37c11.74-44.23,22.73-88.66,34.39-132.93c18.41-69.68,37.19-139.27,55.59-208.99
	c7.74-29.28,14.87-58.68,22.36-88.04c0.62-2.35,1.77-4.57,2.72-6.92c32.7,0,65.02,0,98.34,0c-8.28,33.27-16.14,66.09-24.54,98.71
	C492,184.46,476.76,241.58,461.9,298.78c-14.25,54.77-27.88,109.7-42.54,164.35c-9.88,36.86-19.6,73.88-32.08,109.87
	c-11.78,33.97-31.01,63.75-62.88,83.31c-16.02,9.8-33.27,15.24-52.18,15.9c-26.6,0.91-52.92,0.7-77.71-10.95
	c-0.66-0.29-1.44-0.33-2.1-0.58c-21-8.73-22.65-13.67-10.71-32.9C192.58,610.34,203.49,592.97,213.5,576.99z"/>
<path class="st2" d="M2451.35,213.82c-6.26,25.66-12.19,50.45-18.33,75.24c-11.57,46.49-23.31,92.94-34.88,139.48
	c-1.56,6.3-2.59,12.72-3.46,19.15c-1.69,12.11,3.87,17.17,16.43,15.4c4.2-0.58,8.4-1.11,15.61-2.06
	c-3.46,11.74-7.87,21.29-8.89,31.21c-3.17,31.09-24.09,41.92-50.86,45.87c-22.07,3.25-44.23,4.04-63.71-9.8
	c-5.23-3.71-9.59-8.69-15.03-13.71c-18.04,14-39.45,22.36-63.13,22.24c-54.56-0.25-79.85-27.76-86.6-75.44
	c-12.07-85.08,16.02-157.51,76.72-217.14c24.96-24.5,55.72-36.77,91.83-33.4c15.81,1.48,25.86,11.82,37.1,20.67
	c2.8,2.22,5.31,4.74,8.52,7.58c3.01-8.89,5.72-16.92,8.57-25.28C2390.65,213.82,2420.01,213.82,2451.35,213.82z M2305.65,279.63
	c-11.12,5.97-22.03,9.68-30.14,16.64c-24.54,21.04-36.2,49.87-44.31,80.26c-6.14,23.02-7.78,46.29-0.25,69.39
	c4.45,13.59,13.84,18.45,26.85,13.38c6.55-2.55,13.05-6.47,18.16-11.24c26.15-24.26,39.57-55.59,47.32-89.53
	c5.23-22.73,6.42-45.75-5.68-67.12C2315.29,287.29,2310.63,284.4,2305.65,279.63z"/>
<path class="st2" d="M1409.04,514.68c-12.48,6.14-25.33,13.75-39.12,18.98c-42.25,15.98-87.38-4.37-103.03-48.76
	c-13.22-37.56-12.68-75.15-3.58-112.96c11.94-49.54,34.22-93.73,72.85-127.99c22.07-19.6,47.97-32,78.37-32.74
	c21.41-0.49,39.49,7.12,54.65,22.03c1.28,1.24,2.72,2.31,4.16,3.38c0.21,0.16,0.66,0.04,1.85,0.04c2.39-7.41,4.86-15.11,7.37-22.85
	c29.73,0,59.09,0,90.31,0c-5.72,23.39-11.2,46-16.84,68.56c-13.1,52.42-26.52,104.76-39.29,157.27c-4.98,20.59-1.03,24.3,20.38,22.2
	c2.84-0.29,5.77-0.04,10.67-0.04c-5.48,19.15-10.09,37.84-16.43,55.88c-1.61,4.57-8.24,8.15-13.34,10.54
	c-29.44,13.96-59.55,17.54-89.61,2.18C1421.6,526.91,1416.2,520.61,1409.04,514.68z M1346.03,418.65c2.1,8.11,4.41,20.47,8.61,32.12
	c2.55,7,9.68,12.68,17.34,9.84c10.67-3.95,23.56-8.03,29.98-16.27c27.67-35.62,48.88-74.49,46.62-121.77
	c-0.7-14.58-2.02-30.23-18.04-36.65c-15.36-6.18-27.47,3.01-37.68,13.18C1361.1,330.73,1350.4,370.96,1346.03,418.65z"/>
<path class="st2" d="M1721.59,539.14c7-22.36,13.96-43.57,20.22-64.94c13.84-47.4,27.34-94.88,40.93-142.36
	c3.17-11.04,3.5-22.28-6.42-29.77c-10.71-8.15-23.64-6.51-35.33-2.26c-21.04,7.58-31.54,25.57-37.56,45.17
	c-10.01,32.7-17.58,66.14-26.56,99.12c-8.61,31.59-17.75,63.05-26.68,94.71c-30.8,0-60.91,0-92.33,0
	c6.84-26.81,13.55-53.12,20.3-79.44c18.98-74.33,38.01-148.66,56.95-222.99c5.31-20.8,5.23-20.8,26.77-20.8c23.6,0,47.19,0,71.82,0
	c-1.28,5.64-2.39,10.42-4.32,18.98c10.87-4.45,19.85-7.82,28.58-11.74c25.41-11.45,51.48-11.53,76.76-1.48
	c29.73,11.82,41.76,36.86,45.05,67.25c2.76,25.37-6.84,48.22-13.05,71.94c-14.37,55.06-28.13,110.28-41.43,165.59
	c-2.47,10.29-6.51,13.67-17.21,13.34C1779.78,538.57,1751.45,539.14,1721.59,539.14z"/>
<path class="st2" d="M829.31,430.39c-2.64,17.83,13.59,37.39,31.42,37.72c20.3,0.37,38.05-7.33,54.81-17.91
	c6.67-4.2,13.38-8.28,22.53-13.88c-4.41,18.12-8.19,33.93-12.07,49.7c-1.03,4.2-3.29,8.24-3.46,12.44
	c-1.24,27.71-21.91,35.46-43.28,40.15c-42.25,9.27-100.15-4.98-123.95-50.45c-8.52-16.27-15.69-34.92-17.09-52.96
	c-6.51-84.05,23.6-152.78,94.47-200.09c39.62-26.44,83.39-31.38,127.78-9.51c26.15,12.89,40.6,35,44.1,63.01
	c5.72,46-12.27,82.57-49,110.16c-31.67,23.76-67.54,33.52-106.86,31.67C842.19,430.14,835.73,430.39,829.31,430.39z M835.03,369.81
	c29.2,6.05,54.98,0.66,78.04-17.21c12.72-9.84,19.85-22.03,18.78-38.96c-1.32-21.08-14.66-30.47-35.04-25.37
	C863.4,296.68,838.53,341.97,835.03,369.81z"/>
<path class="st2" d="M668.17,436.61c-6.79,26.03-14.12,51.93-20.14,78.16c-2.31,10.09-9.51,12.19-17.05,15.77
	c-31.05,14.7-62.47,13.71-93.6,1.65c-39.16-15.2-59.96-45.79-68.19-85.82c-17.67-85.74,33.03-180,104.6-217.8
	c31.34-16.55,64.61-21.08,98.63-10.38c50.53,15.94,75.15,63.09,58.02,113.37c-19.35,56.79-61.03,89.03-119.55,98.63
	c-17.38,2.84-35.66,0.45-53.7,0.45c-2.22,16.06,10.46,33.56,27.47,35.13c28.21,2.64,52.5-7.21,73.96-25
	c2.59-2.14,5.27-4.16,7.91-6.22C667.14,435.29,667.63,435.95,668.17,436.61z M564.19,368.74c18.2,3.34,44.56,1.65,59.34-4.45
	c15.57-6.42,30.56-14.08,37.06-31.13c5.02-13.14,5.48-26.81-4.08-37.93c-8.32-9.68-19.93-9.14-32.04-6.79
	C596.64,293.79,565.42,343.17,564.19,368.74z"/>
<path class="st2" d="M1316.51,213.37c-12.81,23.02-24.5,44.47-36.57,65.72c-28.17,49.62-56.38,99.2-84.79,148.7
	c-20.34,35.37-40.97,70.58-61.77,105.67c-1.56,2.64-5.52,5.35-8.4,5.39c-27.55,0.41-55.14,0.25-83.64,0.25
	c-6.01-108.51-12.02-216.28-18.04-324.91c28.62,0,56.75,0,87.92,0c3.58,57.78,7.21,115.88,11.04,177.32
	c4.49-5.39,8.03-8.61,10.29-12.52c20.34-34.96,40.48-70.01,60.66-105.05c10.46-18.16,20.71-36.4,31.63-54.28
	c1.81-2.96,6.47-5.93,9.84-5.97C1261.2,213.16,1287.72,213.37,1316.51,213.37z"/>
<path class="st2" d="M2483.26,215.55c11.9,0,23.14-0.29,34.39,0.12c5.81,0.21,8.36-1.98,9.76-7.49
	c10.38-40.85,20.92-81.7,31.75-122.43c0.78-3.01,4.28-7.45,6.59-7.49c28.29-0.54,56.58-0.33,87.92-0.33
	c-11.41,45.55-22.48,89.61-34.14,136.06c19.77,0,38.3,0,58.64,0c-6.63,24.71-12.56,46.9-18.82,70.25c-14.25,0-29.16,0.91-43.9-0.29
	c-10.62-0.86-14.74,3.46-17.13,12.77c-16.06,62.14-32.41,124.2-48.55,186.3c-4.82,18.45-9.31,36.98-14,55.55
	c-30.89,0-61.23,0-92.49,0c21.41-84.38,42.66-168.01,64.32-253.46c-14.78,0-27.96,0-42.54,0
	C2471.36,260.89,2477.25,238.45,2483.26,215.55z"/>
<path class="st2" d="M2119.48,308.62c-9.68-5.07-17.91-10.25-26.81-13.75c-14.95-5.93-30.02-11.86-45.55-15.73
	c-11.08-2.76-22.24,0.95-31.46,8.24c-12.27,9.68-12.89,21.04-0.74,30.84c8.07,6.55,17.54,11.32,26.44,16.84
	c25.74,15.94,48.35,34.8,56.83,65.39c10.91,39.24,2.22,74.17-25.12,104.43c-28,31.01-63.38,44.89-104.72,42.83
	c-31.71-1.56-61.52-11.98-90.93-23.06c-2.1-0.78-4.57-5.52-3.99-7.7c5.68-22.69,12.02-45.22,17.91-67.82
	c2.35-9.06,7.21-8.24,13.67-4.53c25.12,14.5,52.46,20.22,81.17,19.11c21.13-0.82,35.46-17.54,28.37-34.01
	c-3.75-8.77-11.16-16.88-18.86-22.77c-10.5-8.07-22.4-14.7-34.43-20.38c-37.51-17.71-47.85-55.55-38.34-92.7
	c13.14-51.43,50.69-77.62,99.53-88.66c37.8-8.52,74.78-3.25,109.09,16.27c6.09,3.46,8.44,6.79,6.26,14.5
	C2131.17,259.41,2125.78,283.29,2119.48,308.62z"/>
<path class="st2" d="M3036.06,538.77c-31.67,0-61.4,0-92.33,0c5.93-24.01,11.57-47.48,17.54-70.83
	c20.1-78.49,40.32-156.98,60.49-235.47c4.9-19.07,4.86-19.07,25.16-19.07c23.23,0,46.45,0,71.98,0
	C3091.08,322.5,3063.61,430.51,3036.06,538.77z"/>
<path class="st2" d="M3095.2,165.19c-12.56-3.75-24.54-5.6-34.92-10.75c-23.55-11.65-26.03-41.96-5.77-58.64
	c18.53-15.28,59.83-17.95,80.34-5.19c24.17,15.03,23.1,48.88-3.01,62.88C3120.77,159.46,3107.55,161.4,3095.2,165.19z"/>
</svg>
