<?xml version="1.0" encoding="utf-8"?>
<!-- Generator: Adobe Illustrator 27.1.1, SVG Export Plug-In . SVG Version: 6.00 Build 0)  -->
<svg version="1.1" id="Layer_1" xmlns="http://www.w3.org/2000/svg" xmlns:xlink="http://www.w3.org/1999/xlink" x="0px" y="0px"
	 viewBox="0 0 1825.41 1825.41" style="enable-background:new 0 0 1825.41 1825.41;" xml:space="preserve">
<style type="text/css">
	.st0{fill:#FFFFFF;}
</style>
<path class="st0" d="M554.96,386.61c109.15-85.62,262.87-84.68,370.98,0.14c54.45-41.72,116.01-63.9,185.14-63.95
	c69.15-0.06,130.77,21.94,185.66,63.97c72.82-55.02,154.01-75.32,243.33-58.36c71.28,13.53,129.77,49.77,175.44,106.15
	c91.04,112.37,87.49,276.36-8.56,384.59c-52.62,59.29-118.69,93.23-197.78,100.37c-78.74,7.11-149.34-14.76-212.38-62.76
	c-54.8,42.01-116.42,64.07-185.56,64.03c-68.89-0.03-130.3-21.96-185.34-64.07c-54.59,41.92-116.17,64.02-185.26,64.07
	c-69.18,0.05-130.83-21.99-185.48-63.89c-129.01,102.09-313.24,77.99-414.51-42.21c-95.28-113.09-93.5-279.79,4.98-391.4
	C247.86,307.43,427.64,286.65,554.96,386.61z M1346.42,436.64c42.24,54.51,64.1,116.36,64,185.37
	c-0.1,68.91-22.16,130.69-64.14,185.2c83.39,63.79,218.76,64.83,305.66-29.25c85.41-92.48,80.58-236.89-10.71-323.3
	C1549.07,367.43,1419.01,378.96,1346.42,436.64z M505.42,436.17c-87.31-65.85-223.77-62.81-308.87,32.98
	c-83.03,93.46-75.77,237.03,16.41,322.01c92.38,85.17,221.08,72.65,292.2,15.94C420.04,698.26,419.9,544.89,505.42,436.17z
	 M604.43,807.29c79.88,62.04,199.31,57.66,271.88-0.23c-41.98-54.66-63.98-116.42-64.02-185.47
	c-0.04-69.01,22.02-130.7,64.09-185.19c-78.4-61.24-198.63-58.7-271.68,0C691.36,546.72,688.24,700.16,604.43,807.29z
	 M1247.22,436.19c-84.08-64.76-206.05-54.52-271.54,0.65c41.82,54.52,63.73,115.96,63.67,184.87c-0.06,69.13-22.14,130.78-64,185.48
	c79.34,62.13,199.64,57.75,271.61,0.04C1160.4,697.29,1163.47,541.75,1247.22,436.19z M925.71,757.53
	c61.41-76.32,59.13-199.25-0.16-271.46C864.83,564.65,866.85,682.3,925.71,757.53z M1296.6,757.85
	c27.27-32.98,51.11-94.91,44.23-160.61c-3.93-37.59-27.25-97.82-44.57-111C1237.23,563.77,1236.5,678.42,1296.6,757.85z
	 M554.93,486.02c-62.23,78.26-57.91,200.61,0.29,271.46C616.52,678.33,613.27,559.47,554.93,486.02z"/>
<path class="st0" d="M742.97,1373.31c-4.12,0.18-6.39,0.37-8.65,0.38c-30.74,0.02-61.49-0.1-92.23,0.13
	c-5.04,0.04-8.01-1.37-10.63-5.83c-8.96-15.26-18.41-30.23-27.96-45.77c-65.7,0-131.81,0-197.9,0
	c-9.11,15.06-18.5,30.31-27.57,45.74c-2.35,3.99-4.87,5.9-9.79,5.86c-30.48-0.23-60.96-0.11-91.44-0.13c-1.72,0-3.44-0.18-6.73-0.37
	c61.04-91.57,121.32-181.99,181.66-272.51c-10.04-11.95-20.23-24.07-30.57-36.37c5.98-1.78,98.57-2.45,115.25-0.95
	C604.85,1166.12,673.44,1269.01,742.97,1373.31z M566.74,1262.29c-21.06-34.47-42.19-69.05-63.18-103.4
	c-20.25,34.92-41.16,69.4-62.32,103.4C483.14,1262.29,525.16,1262.29,566.74,1262.29z"/>
<path class="st0" d="M1241.72,1148.77c-25.29-28.08-50.5-56.07-76.6-85.05c3.03-0.35,4.68-0.7,6.33-0.7
	c31.8-0.03,63.6,0.06,95.4-0.12c4.35-0.02,7.1,1.37,9.77,4.78c25.7,32.83,51.67,65.46,77.35,98.31
	c12.56,16.05,23.57,33.11,31.12,52.18c19.5,49.29,2.01,103.68-42.66,132.19c-19.82,12.65-41.8,19.82-64.68,24.38
	c-48.6,9.68-96.86,8.45-144.63-5.23c-14.08-4.03-27.55-9.65-39.95-17.48c-26-16.42-43.96-39.11-51.07-69.26
	c-10.07-42.71,6.7-83.86,43.79-108.79c24.44-16.43,51.69-25.59,80.68-29.65c9.01-1.26,18.14-1.79,27.24-2.29
	c14.71-0.81,29.11,1.06,43.08,5.91c1.22,0.43,2.48,0.77,3.73,1.11C1240.82,1149.11,1241.1,1148.94,1241.72,1148.77z M1221.7,1321.9
	c4.96-0.57,13.58-1.06,22-2.64c17.83-3.36,33.67-10.92,45.98-24.63c17.76-19.79,18.16-46.57,1.13-66.94
	c-9.43-11.28-21.3-19.31-35.25-23.59c-23.91-7.32-48.23-8.17-72.45-1.6c-15.35,4.16-28.85,11.87-39.58,23.91
	c-18.45,20.73-18.52,47.11-0.2,67.96c6.64,7.56,14.66,13.24,23.81,17.35C1183.35,1319.01,1200.47,1321.68,1221.7,1321.9z"/>
<path class="st0" d="M924.83,1150.47c30.41,0,60,0,90.5,0c0.1,2.68,0.3,5.45,0.3,8.21c0.02,39.61-0.68,79.24,0.18,118.84
	c1.1,50.56-29.23,78.58-64.82,92.12c-15.97,6.08-32.65,9.01-49.57,10.17c-29.7,2.05-59.38,2.2-88.71-4.11
	c-15.61-3.36-30.66-8.29-44.39-16.64c-26.44-16.07-40.95-39.5-42.44-70.49c-0.67-14.04-0.45-28.14-0.48-42.21
	c-0.06-28.67-0.02-57.33-0.02-86c0-3.08,0-6.16,0-9.78c30.78,0,60.83,0,91.37,0c0.17,2.52,0.45,4.79,0.45,7.06
	c-0.03,33.36-0.2,66.72-0.1,100.07c0.02,8.32,0.49,16.67,1.39,24.94c2.34,21.57,14.28,34.46,35.72,38.65
	c13.49,2.63,27,2.55,40.13-1.97c16.97-5.85,27.86-16.93,29.17-35.67c0.49-7.01,1.15-14.03,1.18-21.05
	c0.15-34.4,0.11-68.8,0.14-103.2C924.83,1156.59,924.83,1153.79,924.83,1150.47z"/>
<path class="st0" d="M1511.29,1373.34c-30.78,0-61.17,0-91.46,0c-1.64-5.84-2.22-214.4-0.72-225.74c5.44-1.51,81.54-1.98,91.74-0.56
	C1512.46,1152.43,1513,1361.97,1511.29,1373.34z"/>
</svg>
