<?xml version="1.0" encoding="utf-8"?>
<!-- Generator: Adobe Illustrator 27.1.1, SVG Export Plug-In . SVG Version: 6.00 Build 0)  -->
<svg version="1.1" id="Layer_1" xmlns="http://www.w3.org/2000/svg" xmlns:xlink="http://www.w3.org/1999/xlink" x="0px" y="0px"
	 viewBox="0 0 3320.47 677.65" style="enable-background:new 0 0 3320.47 677.65;" xml:space="preserve">
<style type="text/css">
	.st0{fill:#FFFFFF;}
</style>
<path class="st0" d="M885.07,503.48c2.23-0.14,3.88-0.32,5.53-0.33c17.28-0.02,34.56,0.07,51.84-0.09c3.65-0.03,5.52,0.88,7.04,4.56
	c14.85,36.05,49.53,58.29,88.35,57.01c37.9-1.26,71.34-25.82,83.58-62.18c2.95-8.76,3.85-18.21,4.94-28.01
	c-37.23,26.27-78.06,34.35-121.8,26.33c-44.3-8.12-77.41-33.49-101.06-71.07c-31.88-50.63-29.75-127.56,17.27-180.54
	c45.03-50.73,136.93-72.16,205.34-20.7c0-9.93,0-19.34,0-29.14c20.53,0,40.34,0,60.97,0c0,1.88,0,3.68,0,5.48
	c0,89.17,0.47,178.35-0.15,267.52c-0.46,66.47-32.97,113.77-92.54,140.95c-53.59,24.45-128.31,16.34-177.42-42.92
	c-15.36-18.54-26.14-39.26-31.24-62.85C885.47,506.44,885.36,505.33,885.07,503.48z M1034.33,442.74
	c50.77,0.07,91.74-40.65,91.86-91.32c0.12-50.62-40.59-91.37-91.52-91.63c-50.65-0.25-91.7,40.53-91.89,91.29
	C942.58,401.54,983.66,442.66,1034.33,442.74z"/>
<path class="st0" d="M300.53,238.59c12.84-9.19,24.23-19.25,37.25-26.34c47.07-25.61,108.93-14.05,145.02,25.42
	c22.14,24.21,32.81,52.3,32.71,84.96c-0.19,58.2-0.05,116.4-0.05,174.59c0,1.85,0,3.7,0,5.92c-20.25,0-40.08,0-60.82,0
	c0-2.02,0-4.18,0-6.33c0-58.39,0.08-116.77-0.03-175.16c-0.06-30.61-20.4-55.34-49.75-60.98c-36.34-6.98-71.51,19.91-72.04,56.75
	c-0.85,59.31-0.34,118.64-0.4,177.97c0,2.42,0,4.83,0,7.69c-20.4,0-40.33,0-60.9,0c0-2.84,0-5.42,0-8
	c0-56.88-0.19-113.77,0.09-170.65c0.13-26.14-10.61-45.94-33.53-58.11c-39.72-21.08-88.08,8.08-88.78,53.39
	c-0.48,31.16-0.11,62.33-0.12,93.49c0,27.79,0,55.57,0,83.36c0,2.04,0,4.08,0,6.55c-20.32,0-40.27,0-60.52,0
	c0-101.26,0-202.35,0-303.81c20.1,0,39.91,0,60.42,0c0,4.83,0,9.58,0,15.51c26.12-14.56,53.14-18.46,81.38-14.34
	C258.96,204.64,282.19,218.62,300.53,238.59z"/>
<path class="st0" d="M1687.58,471.25c0,10.31,0,19.6,0,29.36c-20.33,0-40.11,0-60.47,0c-0.09-1.97-0.27-3.96-0.27-5.96
	c-0.01-137.8,0.03-275.6-0.15-413.4c-0.01-5.81,1.6-7.28,7.22-7.15c15.58,0.36,31.18,0.1,46.77,0.12c2.01,0,4.03,0.19,6.59,0.31
	c0,50.48,0,100.52,0,151.79c46.73-32.4,96.27-38.8,148.34-19.51c33,12.23,57.75,35.39,75.86,65.28
	c31.48,51.98,28.49,130.13-22.54,183.07C1838.59,507.38,1749.08,518.08,1687.58,471.25z M1779.3,440.59
	c51.03,0,92.05-40.91,92.11-91.84c0.06-50.81-41.04-91.89-92.03-92.01c-50.64-0.11-91.91,40.87-91.98,91.36
	C1687.31,399.68,1727.96,440.59,1779.3,440.59z"/>
<path class="st0" d="M790.43,229.14c0-10.69,0-20.13,0-29.88c20.48,0,40.29,0,60.47,0c0,101.28,0,202.35,0,303.85
	c-19.93,0-39.87,0-60.47,0c0-9.56,0-18.99,0-29.56c-40.71,29.33-84.8,36.47-131.84,24.93c-34.52-8.47-61.5-28.91-82.83-56.9
	c-40.96-53.77-39.55-131.95,3.51-184.99c25.77-31.74,58.54-51.79,99.72-56.44C719.29,195.59,756.53,203.89,790.43,229.14z
	 M698.72,259.8c-50.76,0.07-91.86,41.07-91.68,91.48c0.17,50.78,41.1,91.58,91.73,91.46c50.86-0.12,91.72-40.92,91.65-91.51
	C790.35,300.46,749.5,259.73,698.72,259.8z"/>
<path class="st0" d="M2618.43,351.97c6.15-8.4,12.33-16.79,18.45-25.21c30.56-42.04,61.15-84.07,91.6-126.2
	c2.35-3.25,4.76-4.49,8.77-4.45c20.09,0.21,40.19,0.09,60.29,0.09c1.65,0,3.3,0,6.24,0c-3.63,5.29-6.59,9.7-9.66,14.03
	c-24.86,35.05-49.68,70.13-74.7,105.06c-2.51,3.5-2.24,6.06-0.43,9.57c28.88,56.22,57.65,112.5,86.44,168.76
	c1.1,2.14,2.14,4.31,3.52,7.08c-2.29,0.15-4.05,0.36-5.81,0.36c-19.35,0.03-38.69-0.12-58.04,0.13c-4.22,0.06-6.22-1.37-8.01-5.07
	c-19.61-40.5-39.41-80.92-59.16-121.35c-0.65-1.34-1.41-2.62-2.49-4.62c-1.31,1.49-2.45,2.58-3.34,3.83
	c-17.51,24.61-35.06,49.21-52.4,73.95c-1.59,2.26-2.54,5.44-2.6,8.22c-0.28,12.76-0.14,25.53-0.15,38.29c0,2.01,0,4.02,0,6.33
	c-20.34,0-39.97,0-60.17,0c-0.11-2.13-0.3-4.13-0.3-6.12c-0.01-137.98,0.01-275.95-0.12-413.92c0-5.1,1.31-6.75,6.54-6.64
	c15.96,0.33,31.93,0.31,47.89,0.02c5.04-0.09,6.25,1.52,6.24,6.41c-0.14,88.04-0.1,176.08-0.1,264.12c0,2.32,0,4.64,0,6.97
	C2617.45,351.73,2617.94,351.85,2618.43,351.97z"/>
<path class="st0" d="M1540.85,398.76c17.34,10.38,34.38,20.58,51.42,30.79c-28.5,48.47-84.54,82.08-153.38,72.51
	c-67.22-9.35-122.29-66.56-128.71-133.25c-7.03-73,34.43-139.63,101.75-161.81c64.46-21.24,137.75-2.36,180.87,65.6
	c-17.28,10.36-34.54,20.71-51.78,31.05c-37.59-56.53-107.69-53.9-144.16-17.12c-36.02,36.34-36.44,98.8,6.15,135.02
	C1438.33,451.58,1503.13,454.32,1540.85,398.76z"/>
<path class="st0" d="M2470.18,396.64c17.26,10.34,34.25,20.53,51.24,30.71c-32.56,53.5-93.65,84.37-163.58,70.48
	c-58.69-11.66-119.12-69.49-119.66-147.95c-0.56-80.06,60.37-137.41,116.86-149.64c69.68-15.09,132.72,14.13,166.43,69.8
	c-16.98,10.18-33.97,20.36-51.35,30.78c-19.95-28.39-46.28-44.77-81.64-43.99c-26.62,0.59-48.46,11.49-66.41,30.94
	c-32.16,34.84-32.51,95.81,9.92,131.7C2367.62,449.59,2432.36,451.9,2470.18,396.64z"/>
<path class="st0" d="M3044.54,226.55c-9.36,17.44-18.3,34.1-27.39,51.02c-9.95-5.02-19.46-10.18-29.28-14.68
	c-19.43-8.9-39.52-15.49-61.32-14.08c-5.2,0.34-10.52,1.11-15.46,2.69c-19,6.08-24.61,28.23-10.37,42.28
	c5.21,5.14,11.76,9.64,18.53,12.38c21.19,8.56,42.79,16.09,64.19,24.12c9.47,3.55,19,7.01,28.23,11.13
	c21.16,9.46,32.9,26.2,35.71,48.97c4.8,38.78-7.99,72.2-44.96,93.69c-14.98,8.7-31.69,12.29-48.69,14.79
	c-33.79,4.98-65.04-4.46-95.86-16.44c-8.73-3.39-17.26-7.27-26.23-11.08c0.74-1.71,1.23-3.07,1.89-4.34
	c7.58-14.44,15.31-28.81,22.72-43.35c1.77-3.47,3.31-3.72,6.92-2.5c20.58,6.92,41.15,13.93,62.02,19.89
	c10.96,3.13,22.52,4.27,34.01,1.82c14.71-3.14,23.72-12.55,27.65-26.6c2.41-8.6-1.48-15.8-7.74-21.67
	c-9.92-9.3-22.1-14.67-34.54-19.58c-24.4-9.63-48.86-19.13-73.18-28.95c-23.25-9.39-34.24-28.08-39.73-51.6
	c-8.73-37.41,15.1-89.79,70.5-98.5c43.35-6.82,83.92,1.4,122.84,20.34C3031.37,219.4,3037.56,222.87,3044.54,226.55z"/>
<path class="st0" d="M1963.62,196.54c19.87,0,39.48,0,60,0c0,9.72,0,19.13,0,30.21c27.94-20.54,57.83-30.35,91.37-30.26
	c0,19.97,0,39.72,0,59.43c-7.71,1.3-15.33,2.18-22.75,3.91c-36.3,8.49-66.18,43.42-67.9,80.56c-1.1,23.78-0.69,47.64-0.78,71.47
	c-0.1,27.77-0.12,55.55,0.09,83.32c0.04,4.68-1.29,6.09-5.99,6.02c-17.82-0.25-35.65-0.1-54.04-0.1
	C1963.62,399.43,1963.62,298.09,1963.62,196.54z"/>
<path class="st0" d="M2206.72,196.55c0,101.46,0,202.55,0,304.1c-19.88,0-39.66,0-59.83,0c0-101.28,0-202.51,0-304.1
	C2166.7,196.55,2186.34,196.55,2206.72,196.55z"/>
<path class="st0" d="M1217.91,503.2c0-101.4,0-202.33,0-303.77c20.12,0,40.04,0,60.29,0c0,101.28,0,202.35,0,303.77
	C1258.14,503.2,1238.33,503.2,1217.91,503.2z"/>
<path class="st0" d="M3190.14,217.89c0,6.69,0,12.28,0,18.51c-2.14,0.1-4.13,0.28-6.12,0.28c-16.34,0.02-32.67-0.07-49.01,0.05
	c-10.61,0.07-18.44,6.02-20.38,15.12c-2.51,11.82,6.08,22.85,18.4,23.04c16.71,0.25,33.42,0.08,50.14,0.09c2.04,0,4.08,0,6.68,0
	c0,6.26,0,12.13,0,18.47c-31.14,0-62.39,0-93.69,0c-2.56-9.59-1.2-17.69,3.47-19.18c-7.44-17.19-5.51-32.87,6.98-45.52
	c-3.67-7.91-8.47-14.91-10.21-22.6c-5.26-23.36,12.2-44.75,36.18-45.12c18.4-0.28,36.8-0.06,55.21-0.04c0.54,0,1.08,0.21,2.11,0.42
	c0,5.81,0,11.67,0,18.33c-2.32,0-4.51-0.01-6.7,0c-17.09,0.06-34.18-0.1-51.26,0.27c-8.4,0.18-14.95,6.02-17.06,13.95
	c-2.03,7.59,0.63,16.27,7.51,20.2c4,2.29,9.14,3.45,13.8,3.58c15.76,0.43,31.54,0.16,47.32,0.16
	C3185.52,217.89,3187.55,217.89,3190.14,217.89z"/>
<path class="st0" d="M3143.13,303.78c26.61,0.12,47.31,21.06,47.18,47.75c-0.13,26.15-21.26,47.15-47.38,47.09
	c-26.72-0.06-47.78-21.38-47.56-48.14C3095.57,324.5,3116.88,303.67,3143.13,303.78z M3143.17,379.69
	c15.68-0.08,28.62-13.22,28.4-28.82c-0.22-15.7-13.4-28.6-28.96-28.35c-15.86,0.26-28.4,13.08-28.29,28.9
	C3114.44,367.22,3127.26,379.77,3143.17,379.69z"/>
<path class="st0" d="M3118.52,409.96c3.04,5.05,6.1,10.12,9.12,15.15c-15.96,16.93-17.56,33.38-4.6,45.74
	c11.72,11.18,29.87,10.63,40.85-1.24c11.9-12.86,9.89-29.47-5.82-44.34c1.41-2.37,2.91-4.9,4.42-7.42c1.53-2.56,3.08-5.11,4.59-7.61
	c15.84,6.55,25.97,28.59,22.64,48.66c-3.45,20.76-22.59,37.71-43.82,38.79c-22.71,1.16-42.9-13.15-48.84-34.61
	C3091.33,442.43,3100.31,419.78,3118.52,409.96z"/>
<path class="st0" d="M1218.15,77.01c20.11,0,39.74,0,59.87,0c0,20.07,0,39.96,0,60.23c-19.84,0-39.63,0-59.87,0
	C1218.15,117.37,1218.15,97.46,1218.15,77.01z"/>
<path class="st0" d="M2146.81,134.22c0-19.99,0-39.59,0-59.58c20.06,0,39.82,0,59.9,0c0,20.02,0,39.61,0,59.58
	C2186.61,134.22,2166.82,134.22,2146.81,134.22z"/>
<path class="st0" d="M3190,508.61c0,6.03,0,11.91,0,18.13c-5.96,0-11.69,0-17.88,0c0-5.9,0-11.78,0-18.13
	C3177.91,508.61,3183.76,508.61,3190,508.61z"/>
</svg>
