<?xml version="1.0" encoding="utf-8"?>
<!-- Generator: Adobe Illustrator 27.1.1, SVG Export Plug-In . SVG Version: 6.00 Build 0)  -->
<svg version="1.1" id="Layer_1" xmlns="http://www.w3.org/2000/svg" xmlns:xlink="http://www.w3.org/1999/xlink" x="0px" y="0px"
	 viewBox="0 0 3320.47 914.82" style="enable-background:new 0 0 3320.47 914.82;" xml:space="preserve">
<style type="text/css">
	.st0{display:none;}
	.st1{display:inline;fill:#FFFFFF;}
	.st2{fill:#FFFFFF;}
	.st3{display:none;fill:#FFFFFF;}
</style>
<g class="st0">
	<path class="st1" d="M885.07-131.81c2.23-0.14,3.88-0.32,5.53-0.33c17.28-0.02,34.56,0.07,51.84-0.09
		c3.65-0.03,5.52,0.88,7.04,4.56c14.85,36.05,49.53,58.29,88.35,57.01c37.9-1.26,71.34-25.82,83.58-62.18
		c2.95-8.76,3.85-18.21,4.94-28.01c-37.23,26.27-78.06,34.35-121.8,26.33c-44.3-8.12-77.41-33.49-101.06-71.07
		c-31.88-50.63-29.75-127.56,17.27-180.54c45.03-50.73,136.93-72.16,205.34-20.7c0-9.93,0-19.34,0-29.14c20.53,0,40.34,0,60.97,0
		c0,1.88,0,3.68,0,5.48c0,89.18,0.47,178.35-0.15,267.52c-0.46,66.47-32.97,113.77-92.54,140.95
		C1040.78,2.45,966.06-5.66,916.94-64.92c-15.36-18.54-26.14-39.26-31.24-62.85C885.47-128.86,885.36-129.97,885.07-131.81z
		 M1034.33-192.56c50.77,0.07,91.74-40.65,91.86-91.32c0.12-50.62-40.59-91.37-91.52-91.63c-50.65-0.25-91.7,40.53-91.89,91.29
		C942.58-233.75,983.66-192.63,1034.33-192.56z"/>
	<path class="st1" d="M300.53-396.71c12.84-9.19,24.23-19.25,37.25-26.34c47.07-25.61,108.93-14.05,145.02,25.42
		c22.14,24.21,32.81,52.3,32.71,84.96c-0.19,58.2-0.05,116.4-0.05,174.59c0,1.85,0,3.7,0,5.92c-20.25,0-40.08,0-60.82,0
		c0-2.02,0-4.18,0-6.33c0-58.39,0.08-116.77-0.03-175.16c-0.06-30.61-20.4-55.34-49.75-60.98c-36.34-6.98-71.51,19.91-72.04,56.75
		c-0.85,59.31-0.34,118.64-0.4,177.97c0,2.42,0,4.83,0,7.69c-20.4,0-40.33,0-60.9,0c0-2.84,0-5.42,0-8
		c0-56.88-0.19-113.77,0.09-170.65c0.13-26.14-10.61-45.94-33.53-58.11c-39.72-21.08-88.08,8.08-88.78,53.39
		c-0.48,31.16-0.11,62.33-0.12,93.49c0,27.79,0,55.57,0,83.36c0,2.04,0,4.08,0,6.55c-20.32,0-40.27,0-60.52,0
		c0-101.26,0-202.35,0-303.81c20.1,0,39.91,0,60.42,0c0,4.83,0,9.58,0,15.51c26.12-14.56,53.14-18.46,81.38-14.34
		C258.96-430.66,282.19-416.67,300.53-396.71z"/>
	<path class="st1" d="M1687.58-164.04c0,10.31,0,19.6,0,29.36c-20.33,0-40.11,0-60.47,0c-0.09-1.97-0.27-3.96-0.27-5.96
		c-0.01-137.8,0.03-275.6-0.15-413.4c-0.01-5.81,1.6-7.28,7.22-7.15c15.58,0.36,31.18,0.1,46.77,0.12c2.01,0,4.03,0.19,6.59,0.31
		c0,50.48,0,100.52,0,151.79c46.73-32.4,96.27-38.8,148.34-19.51c33,12.23,57.75,35.39,75.86,65.28
		c31.48,51.98,28.49,130.13-22.54,183.07C1838.59-127.91,1749.08-117.22,1687.58-164.04z M1779.3-194.71
		c51.03,0,92.05-40.91,92.11-91.84c0.06-50.81-41.04-91.89-92.03-92.01c-50.64-0.11-91.91,40.87-91.98,91.36
		C1687.31-235.61,1727.96-194.71,1779.3-194.71z"/>
	<path class="st1" d="M790.43-406.15c0-10.69,0-20.13,0-29.88c20.48,0,40.29,0,60.47,0c0,101.28,0,202.35,0,303.85
		c-19.93,0-39.87,0-60.47,0c0-9.56,0-18.99,0-29.56c-40.71,29.33-84.8,36.47-131.84,24.93c-34.52-8.47-61.5-28.91-82.83-56.9
		c-40.96-53.77-39.55-131.95,3.51-184.99c25.77-31.74,58.54-51.79,99.72-56.44C719.29-439.7,756.53-431.41,790.43-406.15z
		 M698.72-375.5c-50.76,0.07-91.86,41.07-91.68,91.48c0.17,50.78,41.1,91.58,91.73,91.46c50.86-0.12,91.72-40.92,91.65-91.51
		C790.35-334.84,749.5-375.57,698.72-375.5z"/>
	<path class="st1" d="M2618.43-283.33c6.15-8.4,12.33-16.79,18.45-25.21c30.56-42.04,61.15-84.07,91.6-126.2
		c2.35-3.25,4.76-4.49,8.77-4.45c20.09,0.21,40.19,0.09,60.29,0.09c1.65,0,3.3,0,6.24,0c-3.63,5.29-6.59,9.7-9.66,14.03
		c-24.86,35.05-49.68,70.13-74.7,105.06c-2.51,3.5-2.24,6.06-0.43,9.57c28.88,56.22,57.65,112.5,86.44,168.76
		c1.1,2.14,2.14,4.31,3.52,7.08c-2.29,0.15-4.05,0.36-5.81,0.36c-19.35,0.03-38.69-0.12-58.04,0.13c-4.22,0.06-6.22-1.37-8.01-5.07
		c-19.61-40.5-39.41-80.92-59.16-121.35c-0.65-1.34-1.41-2.62-2.49-4.62c-1.31,1.49-2.45,2.58-3.34,3.83
		c-17.51,24.61-35.06,49.21-52.4,73.95c-1.59,2.26-2.54,5.44-2.6,8.22c-0.28,12.76-0.14,25.53-0.15,38.29c0,2.01,0,4.02,0,6.33
		c-20.34,0-39.97,0-60.17,0c-0.11-2.13-0.3-4.13-0.3-6.12c-0.01-137.97,0.01-275.95-0.12-413.92c0-5.1,1.31-6.75,6.54-6.64
		c15.96,0.33,31.93,0.31,47.89,0.02c5.04-0.09,6.25,1.52,6.24,6.41c-0.14,88.04-0.1,176.08-0.1,264.12c0,2.32,0,4.64,0,6.97
		C2617.45-283.56,2617.94-283.44,2618.43-283.33z"/>
	<path class="st1" d="M1540.85-236.54c17.34,10.38,34.38,20.58,51.42,30.79c-28.5,48.47-84.54,82.08-153.38,72.51
		c-67.22-9.35-122.29-66.56-128.71-133.25c-7.03-73,34.43-139.63,101.75-161.81c64.46-21.24,137.75-2.36,180.87,65.6
		c-17.28,10.36-34.54,20.71-51.78,31.05c-37.59-56.53-107.69-53.9-144.16-17.12c-36.02,36.34-36.44,98.8,6.15,135.02
		C1438.33-183.72,1503.13-180.97,1540.85-236.54z"/>
	<path class="st1" d="M2470.18-238.66c17.26,10.34,34.25,20.53,51.24,30.71c-32.56,53.5-93.65,84.37-163.58,70.48
		c-58.69-11.66-119.12-69.49-119.66-147.95c-0.56-80.06,60.37-137.41,116.86-149.64c69.68-15.09,132.72,14.13,166.43,69.8
		c-16.98,10.18-33.97,20.36-51.35,30.78c-19.95-28.39-46.28-44.77-81.64-43.99c-26.62,0.59-48.46,11.49-66.41,30.94
		c-32.16,34.84-32.51,95.81,9.92,131.7C2367.62-185.71,2432.36-183.39,2470.18-238.66z"/>
	<path class="st1" d="M3044.54-408.75c-9.36,17.44-18.3,34.1-27.39,51.02c-9.95-5.02-19.46-10.18-29.28-14.68
		c-19.43-8.9-39.52-15.49-61.32-14.08c-5.2,0.34-10.52,1.11-15.46,2.69c-19,6.08-24.61,28.23-10.37,42.28
		c5.21,5.14,11.76,9.64,18.53,12.38c21.19,8.56,42.79,16.09,64.19,24.12c9.47,3.55,19,7.01,28.23,11.13
		c21.16,9.46,32.9,26.2,35.71,48.97c4.8,38.78-7.99,72.2-44.96,93.69c-14.98,8.7-31.69,12.29-48.69,14.79
		c-33.79,4.98-65.04-4.46-95.86-16.44c-8.73-3.39-17.26-7.27-26.23-11.08c0.74-1.71,1.23-3.07,1.89-4.34
		c7.58-14.44,15.31-28.81,22.72-43.35c1.77-3.47,3.31-3.72,6.92-2.5c20.58,6.92,41.15,13.93,62.02,19.89
		c10.96,3.13,22.52,4.27,34.01,1.82c14.71-3.14,23.72-12.55,27.65-26.6c2.41-8.6-1.48-15.8-7.74-21.67
		c-9.92-9.3-22.1-14.67-34.54-19.58c-24.4-9.63-48.86-19.13-73.18-28.95c-23.25-9.39-34.24-28.08-39.73-51.6
		c-8.73-37.41,15.1-89.79,70.5-98.5c43.35-6.82,83.92,1.4,122.84,20.34C3031.37-415.9,3037.56-412.42,3044.54-408.75z"/>
	<path class="st1" d="M1963.62-438.75c19.87,0,39.48,0,60,0c0,9.72,0,19.13,0,30.21c27.94-20.54,57.83-30.35,91.37-30.26
		c0,19.97,0,39.72,0,59.43c-7.71,1.3-15.33,2.18-22.75,3.91c-36.3,8.49-66.18,43.42-67.9,80.56c-1.1,23.78-0.69,47.64-0.78,71.47
		c-0.1,27.77-0.12,55.55,0.09,83.32c0.04,4.68-1.29,6.09-5.99,6.02c-17.82-0.25-35.65-0.1-54.04-0.1
		C1963.62-235.86,1963.62-337.2,1963.62-438.75z"/>
	<path class="st1" d="M2206.72-438.74c0,101.46,0,202.55,0,304.1c-19.88,0-39.66,0-59.83,0c0-101.28,0-202.51,0-304.1
		C2166.7-438.74,2186.34-438.74,2206.72-438.74z"/>
	<path class="st1" d="M1217.91-132.09c0-101.4,0-202.33,0-303.77c20.12,0,40.04,0,60.29,0c0,101.28,0,202.35,0,303.77
		C1258.14-132.09,1238.33-132.09,1217.91-132.09z"/>
	<path class="st1" d="M3190.14-417.4c0,6.69,0,12.28,0,18.51c-2.14,0.1-4.13,0.28-6.12,0.28c-16.34,0.02-32.67-0.07-49.01,0.05
		c-10.61,0.07-18.44,6.02-20.38,15.12c-2.51,11.82,6.08,22.85,18.4,23.04c16.71,0.25,33.42,0.08,50.14,0.09c2.04,0,4.08,0,6.68,0
		c0,6.26,0,12.13,0,18.47c-31.14,0-62.39,0-93.69,0c-2.56-9.59-1.2-17.69,3.47-19.18c-7.44-17.19-5.51-32.87,6.98-45.52
		c-3.67-7.91-8.47-14.91-10.21-22.6c-5.26-23.36,12.2-44.75,36.18-45.12c18.4-0.28,36.8-0.06,55.21-0.04c0.54,0,1.08,0.21,2.11,0.42
		c0,5.81,0,11.67,0,18.33c-2.32,0-4.51-0.01-6.7,0c-17.09,0.06-34.18-0.1-51.26,0.27c-8.4,0.18-14.95,6.02-17.06,13.95
		c-2.03,7.59,0.63,16.27,7.51,20.2c4,2.29,9.14,3.45,13.8,3.58c15.76,0.43,31.54,0.16,47.32,0.16
		C3185.52-417.4,3187.55-417.4,3190.14-417.4z"/>
	<path class="st1" d="M3143.13-331.51c26.61,0.12,47.31,21.06,47.18,47.75c-0.13,26.15-21.26,47.15-47.38,47.09
		c-26.72-0.06-47.78-21.38-47.56-48.14C3095.57-310.79,3116.88-331.63,3143.13-331.51z M3143.17-255.61
		c15.68-0.08,28.62-13.22,28.4-28.82c-0.22-15.7-13.4-28.6-28.96-28.35c-15.86,0.26-28.4,13.08-28.29,28.9
		C3114.44-268.08,3127.26-255.52,3143.17-255.61z"/>
	<path class="st1" d="M3118.52-225.34c3.04,5.05,6.1,10.12,9.12,15.15c-15.96,16.93-17.56,33.38-4.6,45.74
		c11.72,11.18,29.87,10.63,40.85-1.24c11.9-12.86,9.89-29.47-5.82-44.34c1.41-2.37,2.91-4.9,4.42-7.42
		c1.53-2.56,3.08-5.11,4.59-7.61c15.84,6.55,25.97,28.59,22.64,48.66c-3.45,20.76-22.59,37.71-43.82,38.79
		c-22.71,1.16-42.9-13.15-48.84-34.61C3091.33-192.87,3100.31-215.51,3118.52-225.34z"/>
	<path class="st1" d="M1218.15-558.28c20.11,0,39.74,0,59.87,0c0,20.07,0,39.96,0,60.23c-19.84,0-39.63,0-59.87,0
		C1218.15-517.93,1218.15-537.83,1218.15-558.28z"/>
	<path class="st1" d="M2146.81-501.07c0-19.99,0-39.59,0-59.58c20.06,0,39.82,0,59.9,0c0,20.02,0,39.61,0,59.58
		C2186.61-501.07,2166.82-501.07,2146.81-501.07z"/>
	<path class="st1" d="M3190-126.68c0,6.03,0,11.91,0,18.13c-5.96,0-11.69,0-17.88,0c0-5.9,0-11.78,0-18.13
		C3177.91-126.68,3183.76-126.68,3190-126.68z"/>
</g>
<g class="st0">
	<path class="st1" d="M2650.51,1905.69c5.11-20.1,9.8-38.87,14.66-57.57c16.47-63.46,33.03-126.88,49.5-190.33
		c19.73-76.02,39.29-152.04,59.34-227.97c0.91-3.5,6.01-8.36,9.22-8.44c28.25-0.66,56.5-0.37,86.81-0.37
		c-15.57,59.55-30.72,117.61-46.08,176.46c11.94-3.95,23.39-8.73,35.33-11.57c34.39-8.15,67.33-7.12,92.86,21.7
		c15.98,18.04,19.93,40.56,17.91,63.75c-6.3,71.32-35.54,137.21-50.16,206.6c-5.97,28.17-7.12,27.92-35.99,27.92
		c-21.04,0-42.09,0-64.65,0c5.64-20.96,11.24-40.89,16.43-60.91c12.72-49.21,25.28-98.5,37.72-147.8c1.4-5.56,1.94-11.41,2.1-17.13
		c0.58-18.7-14.25-28.58-31.5-20.51c-29.65,13.84-48.35,36.65-55.92,68.85c-10.67,45.26-22.2,90.35-33.27,135.52
		c-2.84,11.53-5.19,23.18-8.44,34.63c-0.78,2.76-4.12,6.84-6.34,6.88C2710.76,1905.86,2681.4,1905.69,2650.51,1905.69z"/>
	<path class="st1" d="M236.09,1943.58c13.55,1.48,26.48,4.82,39,3.83c18.49-1.48,29.94-14.45,38.54-30.06
		c14.7-26.68,19.27-56.5,26.89-85.37c11.74-44.23,22.73-88.66,34.39-132.93c18.41-69.68,37.19-139.27,55.59-208.99
		c7.74-29.28,14.87-58.68,22.36-88.04c0.62-2.35,1.77-4.57,2.72-6.92c32.7,0,65.02,0,98.34,0c-8.28,33.27-16.14,66.09-24.54,98.71
		c-14.78,57.24-30.02,114.36-44.89,171.56c-14.25,54.77-27.88,109.7-42.54,164.35c-9.88,36.86-19.6,73.88-32.08,109.87
		c-11.78,33.97-31.01,63.75-62.88,83.31c-16.02,9.8-33.27,15.24-52.18,15.9c-26.6,0.91-52.92,0.7-77.71-10.95
		c-0.66-0.29-1.44-0.33-2.1-0.58c-21-8.73-22.65-13.67-10.71-32.9C215.17,1976.93,226.08,1959.55,236.09,1943.58z"/>
	<path class="st1" d="M2473.93,1580.41c-6.26,25.66-12.19,50.45-18.33,75.24c-11.57,46.49-23.31,92.94-34.88,139.48
		c-1.56,6.3-2.59,12.72-3.46,19.15c-1.69,12.11,3.87,17.17,16.43,15.4c4.2-0.58,8.4-1.11,15.61-2.06
		c-3.46,11.74-7.87,21.29-8.89,31.21c-3.17,31.09-24.09,41.92-50.86,45.87c-22.07,3.25-44.23,4.04-63.71-9.8
		c-5.23-3.71-9.59-8.69-15.03-13.71c-18.04,14-39.45,22.36-63.13,22.24c-54.56-0.25-79.85-27.76-86.6-75.44
		c-12.07-85.08,16.02-157.51,76.72-217.14c24.96-24.5,55.72-36.77,91.83-33.4c15.81,1.48,25.86,11.82,37.1,20.67
		c2.8,2.22,5.31,4.74,8.52,7.58c3.01-8.89,5.72-16.92,8.57-25.28C2413.23,1580.41,2442.6,1580.41,2473.93,1580.41z M2328.24,1646.22
		c-11.12,5.97-22.03,9.68-30.14,16.64c-24.54,21.04-36.2,49.87-44.31,80.26c-6.14,23.02-7.78,46.29-0.25,69.39
		c4.45,13.59,13.84,18.45,26.85,13.38c6.55-2.55,13.05-6.47,18.16-11.24c26.15-24.26,39.57-55.59,47.32-89.53
		c5.23-22.73,6.42-45.75-5.68-67.12C2337.88,1653.87,2333.22,1650.99,2328.24,1646.22z"/>
	<path class="st1" d="M1431.63,1881.27c-12.48,6.14-25.33,13.75-39.12,18.98c-42.25,15.98-87.38-4.37-103.03-48.76
		c-13.22-37.56-12.68-75.15-3.58-112.96c11.94-49.54,34.22-93.73,72.85-127.99c22.07-19.6,47.97-32,78.37-32.74
		c21.41-0.49,39.49,7.12,54.65,22.03c1.28,1.24,2.72,2.31,4.16,3.38c0.21,0.16,0.66,0.04,1.85,0.04c2.39-7.41,4.86-15.11,7.37-22.85
		c29.73,0,59.09,0,90.31,0c-5.72,23.39-11.2,46-16.84,68.56c-13.1,52.42-26.52,104.76-39.29,157.27
		c-4.98,20.59-1.03,24.3,20.38,22.2c2.84-0.29,5.77-0.04,10.67-0.04c-5.48,19.15-10.09,37.84-16.43,55.88
		c-1.61,4.57-8.24,8.15-13.34,10.54c-29.44,13.96-59.55,17.54-89.61,2.18C1444.19,1893.5,1438.79,1887.2,1431.63,1881.27z
		 M1368.62,1785.24c2.1,8.11,4.41,20.47,8.61,32.12c2.55,7,9.68,12.68,17.34,9.84c10.67-3.95,23.56-8.03,29.98-16.27
		c27.67-35.62,48.88-74.49,46.62-121.77c-0.7-14.58-2.02-30.23-18.04-36.65c-15.36-6.18-27.47,3.01-37.68,13.18
		C1383.69,1697.32,1372.99,1737.55,1368.62,1785.24z"/>
	<path class="st1" d="M1744.18,1905.73c7-22.36,13.96-43.57,20.22-64.94c13.84-47.4,27.34-94.88,40.93-142.36
		c3.17-11.04,3.5-22.28-6.42-29.77c-10.71-8.15-23.64-6.51-35.33-2.26c-21.04,7.58-31.54,25.57-37.56,45.17
		c-10.01,32.7-17.58,66.14-26.56,99.12c-8.61,31.58-17.75,63.05-26.68,94.71c-30.8,0-60.91,0-92.33,0
		c6.84-26.81,13.55-53.12,20.3-79.44c18.98-74.33,38.01-148.66,56.95-222.99c5.31-20.8,5.23-20.8,26.77-20.8c23.6,0,47.19,0,71.82,0
		c-1.28,5.64-2.39,10.42-4.32,18.98c10.87-4.45,19.85-7.82,28.58-11.74c25.41-11.45,51.47-11.53,76.76-1.48
		c29.73,11.82,41.76,36.86,45.05,67.25c2.76,25.37-6.84,48.22-13.05,71.94c-14.37,55.06-28.13,110.28-41.43,165.58
		c-2.47,10.3-6.51,13.67-17.21,13.34C1802.37,1905.16,1774.04,1905.73,1744.18,1905.73z"/>
	<path class="st1" d="M851.89,1796.98c-2.64,17.83,13.59,37.39,31.42,37.72c20.3,0.37,38.05-7.33,54.81-17.91
		c6.67-4.2,13.38-8.28,22.53-13.88c-4.41,18.12-8.19,33.93-12.07,49.7c-1.03,4.2-3.29,8.24-3.46,12.44
		c-1.24,27.71-21.91,35.46-43.28,40.15c-42.25,9.27-100.15-4.98-123.95-50.45c-8.52-16.27-15.69-34.92-17.09-52.96
		c-6.51-84.05,23.6-152.78,94.47-200.09c39.62-26.44,83.39-31.38,127.78-9.51c26.15,12.89,40.6,35,44.1,63.01
		c5.72,46-12.27,82.57-49,110.16c-31.67,23.76-67.54,33.52-106.86,31.67C864.78,1796.73,858.32,1796.98,851.89,1796.98z
		 M857.62,1736.4c29.2,6.05,54.98,0.66,78.04-17.21c12.72-9.84,19.85-22.03,18.78-38.96c-1.32-21.08-14.66-30.47-35.04-25.37
		C885.99,1663.26,861.12,1708.56,857.62,1736.4z"/>
	<path class="st1" d="M690.76,1803.19c-6.79,26.03-14.12,51.93-20.14,78.16c-2.31,10.09-9.51,12.19-17.05,15.77
		c-31.05,14.7-62.47,13.71-93.6,1.65c-39.16-15.2-59.96-45.79-68.19-85.82c-17.67-85.74,33.03-180,104.6-217.8
		c31.34-16.55,64.61-21.08,98.63-10.38c50.53,15.94,75.15,63.09,58.02,113.37c-19.35,56.79-61.03,89.03-119.55,98.63
		c-17.38,2.84-35.66,0.45-53.7,0.45c-2.22,16.06,10.46,33.56,27.47,35.13c28.21,2.64,52.5-7.21,73.96-25
		c2.59-2.14,5.27-4.16,7.91-6.22C689.73,1801.88,690.22,1802.54,690.76,1803.19z M586.78,1735.33c18.2,3.34,44.56,1.65,59.34-4.45
		c15.57-6.42,30.56-14.08,37.06-31.13c5.02-13.14,5.48-26.81-4.08-37.93c-8.32-9.68-19.93-9.14-32.04-6.79
		C619.23,1660.38,588.01,1709.76,586.78,1735.33z"/>
	<path class="st1" d="M1339.09,1579.96c-12.81,23.02-24.5,44.47-36.57,65.72c-28.17,49.62-56.38,99.2-84.79,148.7
		c-20.34,35.37-40.97,70.58-61.77,105.67c-1.56,2.64-5.52,5.35-8.4,5.39c-27.55,0.41-55.14,0.25-83.64,0.25
		c-6.01-108.51-12.02-216.28-18.04-324.91c28.62,0,56.75,0,87.92,0c3.58,57.78,7.21,115.88,11.04,177.32
		c4.49-5.39,8.03-8.61,10.3-12.52c20.34-34.96,40.48-70.01,60.66-105.05c10.46-18.16,20.71-36.4,31.63-54.28
		c1.81-2.96,6.47-5.93,9.84-5.97C1283.79,1579.75,1310.31,1579.96,1339.09,1579.96z"/>
	<path class="st1" d="M2505.85,1582.14c11.9,0,23.14-0.29,34.39,0.12c5.81,0.21,8.36-1.98,9.76-7.49
		c10.38-40.85,20.92-81.7,31.75-122.43c0.78-3.01,4.28-7.45,6.59-7.49c28.29-0.54,56.58-0.33,87.92-0.33
		c-11.41,45.55-22.48,89.61-34.14,136.06c19.77,0,38.3,0,58.64,0c-6.63,24.71-12.56,46.9-18.82,70.25c-14.25,0-29.16,0.91-43.9-0.29
		c-10.62-0.86-14.74,3.46-17.13,12.77c-16.06,62.14-32.41,124.2-48.55,186.3c-4.82,18.45-9.31,36.98-14,55.55
		c-30.89,0-61.23,0-92.49,0c21.41-84.38,42.66-168.01,64.32-253.46c-14.78,0-27.96,0-42.54,0
		C2493.95,1627.48,2499.84,1605.04,2505.85,1582.14z"/>
	<path class="st1" d="M2142.06,1675.21c-9.68-5.07-17.91-10.25-26.81-13.75c-14.95-5.93-30.02-11.86-45.55-15.73
		c-11.08-2.76-22.24,0.95-31.46,8.24c-12.27,9.68-12.89,21.04-0.74,30.84c8.07,6.55,17.54,11.32,26.44,16.84
		c25.74,15.94,48.35,34.8,56.83,65.39c10.91,39.24,2.22,74.17-25.12,104.43c-28,31.01-63.38,44.89-104.72,42.83
		c-31.71-1.56-61.52-11.98-90.93-23.06c-2.1-0.78-4.57-5.52-3.99-7.7c5.68-22.69,12.02-45.22,17.91-67.82
		c2.35-9.06,7.21-8.24,13.67-4.53c25.12,14.5,52.46,20.22,81.17,19.11c21.13-0.82,35.46-17.54,28.37-34.01
		c-3.75-8.77-11.16-16.88-18.86-22.77c-10.5-8.07-22.4-14.7-34.43-20.38c-37.51-17.71-47.85-55.55-38.34-92.7
		c13.14-51.43,50.69-77.62,99.53-88.66c37.8-8.52,74.78-3.25,109.09,16.27c6.09,3.46,8.44,6.79,6.26,14.5
		C2153.76,1626,2148.36,1649.88,2142.06,1675.21z"/>
	<path class="st1" d="M3058.65,1905.36c-31.67,0-61.4,0-92.33,0c5.93-24.01,11.57-47.48,17.54-70.83
		c20.1-78.49,40.32-156.98,60.49-235.47c4.9-19.07,4.86-19.07,25.16-19.07c23.23,0,46.45,0,71.98,0
		C3113.67,1689.08,3086.2,1797.1,3058.65,1905.36z"/>
	<path class="st1" d="M3117.78,1531.78c-12.56-3.75-24.54-5.6-34.92-10.75c-23.55-11.65-26.03-41.96-5.77-58.64
		c18.53-15.28,59.83-17.95,80.34-5.19c24.17,15.03,23.1,48.88-3.01,62.88C3143.36,1526.05,3130.14,1527.99,3117.78,1531.78z"/>
</g>
<g class="st0">
	<path class="st1" d="M921.01-1071.8c0.83-1.8,1.72-3.58,2.49-5.41c5.79-13.88,13.29-26.72,23.53-37.82
		c14.32-15.52,31.88-25.4,52.56-29.72c19.59-4.1,39.16-4.05,58.58,0.82c25.49,6.39,44.17,22.11,58.15,43.77
		c4.55,7.05,8.22,14.66,12.26,22.04c0.9,1.65,1.69,3.36,2.86,5.7c0.99-1.8,1.78-3,2.35-4.29c17.55-40.11,48.09-63.45,91.32-69.68
		c26.26-3.79,51.57,0.26,75.08,12.88c29.3,15.73,47.15,40.04,53.15,72.86c2.34,12.82,3.49,25.77,3.48,38.8
		c-0.05,101.81-0.12,203.62-0.19,305.43c0,1.91,0.06,3.85-0.2,5.73c-0.99,7.1-5.38,11.78-12.41,13.28
		c-1.67,0.36-3.41,0.54-5.12,0.55c-25.27,0.03-50.54,0.03-75.82,0.01c-1.33,0-2.69-0.06-4-0.28c-7.7-1.32-12.63-6.57-13.41-14.31
		c-0.17-1.71-0.07-3.44-0.07-5.16c0-72.53-0.02-145.06,0.01-217.59c0.01-13.77,0.47-27.55,0.28-41.32
		c-0.13-9.35-0.65-18.74-1.75-28.02c-0.64-5.43-2.26-10.89-4.32-15.97c-6.32-15.53-18.93-22.23-34.92-23.95
		c-32.33-3.47-55.66,18.43-60.6,47.62c-2.3,13.62-3.41,27.32-3.42,41.1c-0.04,79.23-0.02,158.46-0.02,237.69
		c0,1.72,0.07,3.45-0.03,5.17c-0.4,7.33-4.72,12.61-11.87,14.29c-2.21,0.52-4.54,0.72-6.82,0.72c-24.7,0.05-49.4,0.05-74.09-0.01
		c-2.27-0.01-4.61-0.25-6.79-0.87c-6.3-1.78-10.13-5.94-10.94-12.55c-0.28-2.27-0.31-4.58-0.31-6.87
		c-0.02-73.49,0.02-146.98-0.04-220.46c-0.01-16.24-0.11-32.5-0.63-48.73c-0.3-9.38-2.14-18.61-5.25-27.52
		c-7.21-20.63-21.47-30.91-43.32-30.74c-5.3,0.04-10.73,0.68-15.87,1.97c-14.16,3.57-23.54,12.9-29.57,25.92
		c-4.47,9.65-7.07,19.87-8.02,30.36c-1.17,12.93-2.11,25.94-2.14,38.91c-0.19,76.93-0.09,153.87-0.1,230.8
		c0,14.47-5.26,19.79-19.64,19.8c-24.12,0.02-48.25,0.03-72.37-0.03c-2.46-0.01-5-0.2-7.38-0.79c-6.91-1.71-11.03-6.99-11.27-14.07
		c-0.05-1.53-0.01-3.06-0.01-4.59c0-134.15,0-268.31,0-402.46c0-1.91-0.06-3.83,0.05-5.74c0.48-7.99,6.44-13.82,14.49-14.21
		c0.76-0.04,1.53-0.01,2.3-0.01c22.78-0.06,45.56-0.12,68.34-0.18c1.72,0,3.45-0.03,5.17,0.07c9.13,0.55,14.86,6.41,14.92,15.54
		c0.1,15.12,0.03,30.24,0.03,45.36c0,1.99,0,3.99,0,5.98C920.15-1071.93,920.58-1071.86,921.01-1071.8z"/>
	<path class="st1" d="M1667.7-750.78c-10.41,11.01-21.28,20.33-33.23,28.36c-25.03,16.81-52.32,27.85-82.42,30.91
		c-37.95,3.87-72.12-5.16-100.93-31.23c-15.51-14.03-25.54-31.4-30.74-51.46c-6.93-26.76-7.32-53.78-0.74-80.64
		c9.47-38.71,33.12-66.57,67.61-85.61c20.26-11.19,42.27-17.62,64.73-22.65c21.69-4.86,43.69-7.63,65.84-9.36
		c11.24-0.88,22.45-1.99,33.4-2.97c0.46-0.68,0.84-0.97,0.85-1.28c0.53-16.65,0.25-33.23-2.47-49.74
		c-4.26-25.93-21.68-35.72-40.3-38.58c-18.2-2.8-35.42,0.99-51.18,10.66c-13.64,8.37-21.55,20.81-25.26,36.16
		c-0.54,2.22-1.04,4.49-1.9,6.6c-2.23,5.41-7.39,10.62-15.86,9.5c-20.29-2.68-40.62-5.03-60.93-7.52
		c-4.37-0.54-8.74-0.99-13.09-1.67c-9.05-1.42-13.41-6.67-11.8-15.58c6.83-37.86,23.63-69.65,56.66-91.33
		c24.06-15.79,50.57-25.09,78.82-29.75c23.73-3.92,47.58-4.79,71.48-2.19c27.09,2.95,52.91,9.92,76.25,24.69
		c17.06,10.79,30.22,25.16,40.13,42.57c5.47,9.6,7.59,20.37,9.72,31.06c2.59,12.98,3.48,26.13,3.47,39.36
		c-0.03,54.34-0.07,108.68,0.06,163.02c0.02,7.24,0.59,14.53,1.61,21.7c1.61,11.32,5.95,21.75,12.26,31.26
		c4.76,7.16,10.01,14,14.94,21.05c1.74,2.49,3.51,5.06,4.68,7.83c2.56,6.05,1.36,10.55-3.63,14.87
		c-15.03,13.04-30.09,26.05-45.13,39.07c-4.92,4.26-9.8,8.56-14.75,12.78c-8.39,7.15-17.56,6.97-25.81-0.19
		c-10.76-9.33-19.97-20.03-28.45-31.41C1677.15-738.48,1672.58-744.36,1667.7-750.78z M1651.92-910.75c-6.18,0-11.7-0.15-17.22,0.03
		c-13.97,0.45-27.92,1.37-41.49,4.99c-14.02,3.74-27.02,9.66-37.91,19.48c-15.29,13.79-21.6,31.61-22.47,51.65
		c-0.54,12.55,0.86,24.84,6.49,36.32c9.19,18.74,25.3,27.54,43.85,26.41c18.67-1.14,33.52-10.2,44.87-24.69
		c15.09-19.27,22.44-41.67,23.89-65.85c0.88-14.68,0.29-29.45,0.33-44.18C1652.26-907.88,1652.05-909.18,1651.92-910.75z"/>
	<path class="st1" d="M621.16-750.74c-10.63,11.2-21.82,20.72-34.14,28.91c-24.95,16.58-52.1,27.44-82.01,30.38
		c-37.74,3.71-71.73-5.34-100.38-31.23c-15.52-14.02-25.58-31.37-30.75-51.45c-7.24-28.13-7.47-56.48,0.2-84.51
		c9.8-35.81,32.15-62.02,64.05-80.37c19.41-11.16,40.56-17.74,62.2-22.91c23.12-5.52,46.62-8.62,70.29-10.48
		c9.92-0.78,19.82-1.65,29.73-2.53c1.67-0.15,3.31-0.56,5.64-0.97c-0.33-11.86-0.41-23.51-1.08-35.11
		c-0.36-6.27-1.59-12.5-2.72-18.7c-3.45-19.04-15.88-29.79-33.77-34.12c-20.91-5.06-40.67-1.03-58.68,10.73
		c-11.73,7.66-18.96,18.66-22.6,32.1c-0.75,2.77-1.31,5.6-2.29,8.28c-2.95,8.09-8.22,11.47-16.78,10.48
		c-16.91-1.96-33.79-4.11-50.69-6.19c-7.21-0.89-14.43-1.75-21.63-2.74c-2.06-0.28-4.19-0.71-6.07-1.55
		c-4.77-2.14-7.77-5.75-7.15-11.24c0.52-4.54,1.36-9.07,2.43-13.51c5.75-23.85,16.01-45.34,33.2-63.22
		c10.46-10.89,22.77-19.21,36-26.26c22.73-12.09,47.11-18.87,72.52-22.25c20.76-2.77,41.57-3.22,62.4-1
		c31.91,3.4,61.85,12.22,87.58,32.37c12.71,9.95,22.56,22.34,30.2,36.41c4.97,9.15,6.92,19.4,8.95,29.53
		c2.48,12.42,3.43,24.99,3.43,37.64c0.01,54.72,0,109.44,0.01,164.16c0,13.66,0.86,27.3,6.86,39.79
		c4.04,8.39,9.22,16.26,14.18,24.17c2.63,4.2,5.98,7.95,8.85,12.01c1.43,2.01,2.79,4.15,3.72,6.42c2.46,5.99,1.28,10.65-3.62,14.91
		c-14.87,12.93-29.78,25.81-44.67,38.72c-5.06,4.38-10.09,8.8-15.19,13.15c-8.36,7.14-17.59,6.94-25.83-0.11
		c-13.65-11.67-24.34-25.88-35.02-40.12C626.25-744.21,623.89-747.2,621.16-750.74z M605.31-910.88c-1.73-0.11-3.23-0.37-4.71-0.28
		c-12.6,0.72-25.23,1.13-37.77,2.37c-13.03,1.29-25.47,5.06-37.17,11.07c-15.15,7.78-26.86,18.91-33.43,34.84
		c-5.43,13.17-6.84,26.95-5.61,41.07c0.94,10.85,3.8,21.07,9.97,30.15c9.37,13.78,22.68,20.49,39.1,19.86
		c16.39-0.63,30.36-7.64,41.4-19.71c18.2-19.89,26.45-44.1,28.26-70.48c1.02-14.86,0.31-29.83,0.35-44.75
		C605.7-908.02,605.47-909.31,605.31-910.88z"/>
	<path class="st1" d="M2747.83-1065.1c0.78-1.65,1.62-3.29,2.34-4.97c5.77-13.39,12.47-26.25,21.35-37.89
		c14.86-19.47,34-32.17,58.21-36.94c20.01-3.94,40.01-4.03,59.73,1.14c38.89,10.2,63.51,35.24,74.45,73.7
		c5.95,20.92,8.16,42.46,8.23,64.11c0.31,97.59,0.28,195.18,0.57,292.77c0.02,7.88-4.55,14.98-14.43,16.15
		c-1.7,0.2-3.44,0.17-5.16,0.17c-24.12,0.01-48.24,0.01-72.37,0c-1.72,0-3.46,0.03-5.15-0.21c-8.51-1.25-13.6-7.06-13.65-15.66
		c-0.06-10.14-0.01-20.28-0.01-30.43c0-73.87,0.01-147.73-0.01-221.6c0-14.76-0.86-29.46-4.81-43.77c-1.21-4.4-2.84-8.74-4.79-12.86
		c-8.99-19.03-26.66-26.27-46.02-23.74c-19.77,2.59-32.67,14.86-40.89,32.33c-6.75,14.33-10.26,29.62-11.53,45.35
		c-0.83,10.28-1.21,20.62-1.22,30.93c-0.1,72.53-0.05,145.05-0.05,217.58c0,1.53,0.02,3.06-0.01,4.59
		c-0.19,11.13-6.29,17.29-17.57,17.46c-9.19,0.14-18.38,0.03-27.57,0.03c-15.7,0-31.4,0.04-47.09-0.04
		c-2.65-0.02-5.41-0.23-7.91-1.01c-5.75-1.79-9.42-5.72-10.3-11.83c-0.32-2.26-0.4-4.57-0.4-6.86
		c-0.02-134.72-0.02-269.44-0.02-404.16c0-1.15-0.04-2.3,0.02-3.44c0.42-8.32,6.39-14.45,14.73-14.51
		c24.69-0.18,49.39-0.12,74.08-0.24c9.44-0.05,16.55,7.18,16.24,16.76c-0.55,17.01-0.15,34.06-0.15,51.09c0,1.9,0,3.8,0,5.7
		C2747.06-1065.31,2747.44-1065.21,2747.83-1065.1z"/>
	<path class="st1" d="M2216.14-919.02c0.33-37.35,5.22-73.95,18.37-109.14c9.61-25.71,22.98-49.15,41.99-69.17
		c22.94-24.17,50.67-39.83,83.34-46.42c34.32-6.93,68.15-5.05,101.07,7.26c35.2,13.16,61.76,36.86,81.7,68.32
		c16.93,26.69,27.1,55.98,33.06,86.84c6.35,32.9,7.81,66.09,4.48,99.38c-4.35,43.5-17,84.26-42.53,120.31
		c-22.95,32.42-52.83,55.94-91.46,66.46c-48.94,13.33-96,8.55-139.56-18.82c-24.68-15.51-42.98-37.17-57.13-62.46
		c-14.94-26.68-23.74-55.43-28.73-85.46C2217.6-880.82,2216.33-899.88,2216.14-919.02z M2463.02-915.01
		c-0.57-24.6-0.93-48.87-4.51-72.95c-2.11-14.2-4.86-28.25-10.16-41.67c-7.51-19.04-20.99-30.62-41.73-32.92
		c-21.64-2.4-39.13,4.48-51.37,23.06c-4.66,7.08-7.96,14.79-10.51,22.83c-6.02,18.93-8.26,38.5-8.83,58.21
		c-0.59,20.25-0.6,40.54-0.19,60.8c0.42,20.84,2.18,41.61,6.76,62.03c3.2,14.25,7.59,28.05,15.95,40.26
		c12.61,18.42,32.09,25.51,53.68,19.7c14.37-3.87,24.42-13.02,31.74-25.54c8.14-13.92,12.03-29.25,14.67-44.98
		C2462.37-869.09,2462.59-892.22,2463.02-915.01z"/>
	<path class="st1" d="M2013.1-841.35c10.36,0,19.33-0.36,28.27,0.06c42.13,1.99,82.56,10.57,120.12,30.69
		c11.23,6.02,16.4,15.1,16.5,27.36c0.15,19.33,0.18,38.66-0.08,57.98c-0.05,3.47-1.08,7.28-2.78,10.3
		c-3.86,6.86-10.54,8.47-17.75,5.19c-10.09-4.58-20.06-9.5-30.38-13.48c-31.31-12.08-63.82-18.38-97.39-19.58
		c-52.53-1.87-102.21,8.88-149.02,32.85c-8.61,4.41-16.57,1.38-19.87-7.49c-0.65-1.74-0.84-3.73-0.85-5.6
		c-0.06-22.39-0.16-44.78,0.01-67.17c0.1-12.92,3.73-24.77,11.23-35.52c50.95-72.92,101.79-145.92,152.66-218.9
		c1.17-1.68,2.23-3.43,4.02-6.18c-3.2,0-5.4,0-7.59,0c-41.73,0-83.47,0-125.2,0c-1.34,0-2.68-0.03-4.02,0
		c-10,0.26-16.5-6.7-16.32-16.49c0.35-18.75,0.06-37.5,0.12-56.26c0.04-10.73,5.6-16.31,16.26-16.31
		c87.49-0.02,174.97-0.02,262.46,0c10.49,0,16.4,5.8,16.47,16.31c0.11,15.88,0.01,31.76,0.04,47.65c0.01,5.54-1.77,10.58-4.49,15.23
		c-3.28,5.61-6.73,11.13-10.46,16.45c-45.98,65.66-92.02,131.28-138.04,196.91C2015.94-845.82,2014.97-844.22,2013.1-841.35z"/>
	<path class="st1" d="M761.41-644.71c0,0,313.41,184.24,692.47,175.76c385.41-6.35,491.29-97.41,491.29-97.41
		s40.24-25.41,48.71,4.24c8.47,29.65-122.82,93.18-122.82,93.18S1636-352.47,1379.76-365.18
		c-256.24-12.71-474.35-127.06-573.88-203.29s-69.88-82.59-57.18-82.59s0-4.24,12.71,0"/>
	<path class="st1" d="M2048.24-608c0,0,16.94,20.47-17.65,104.47s-24,74.82-18.35,81.18c5.65,6.35,77.65-52.24,96-146.12
		c15.68-80.19,5.06-90.54,2.33-92.93c-0.74-0.65-1.4-1.14-2.15-1.62c-5.58-3.54-28.15-14.97-78.53-15.57
		c-59.29-0.71-105.18,9.88-148.94,32.47c-43.76,22.59-14.82,30.35-13.41,30.35c0,0,79.76,1.41,117.88-3.53
		S2043.29-619.29,2048.24-608z"/>
</g>
<path class="st2" d="M124,443.76c2.43-15.91,5.17-31.78,7.26-47.73C154.23,220.79,295.71,73.19,469.98,40.63
	c192.46-35.97,374.01,59.53,458.56,222.91c26.52,51.25,42.38,105.85,44.83,163.89c7.6,180.02-69.41,313.54-224.79,402.45
	C697.51,859.1,641.17,874.17,582,877.51c-6.35,0.36-12.58,2.78-18.87,4.24c-8.19,0-16.38,0-24.57,0
	c-5.29-1.43-10.49-3.45-15.88-4.17c-17.66-2.38-35.55-3.38-53.06-6.53c-173.94-31.32-316.65-181.37-338.36-355.15
	c-1.99-15.93-4.82-31.75-7.26-47.63C124,460.1,124,451.93,124,443.76z M683.71,203.88c-5.08,0.69-8.25,0.49-10.87,1.59
	c-24.96,10.49-50.16,20.5-74.66,32c-52.33,24.57-104.48,49.66-148.6,88.01c-12.79,11.12-25.16,23.34-25.96,41.66
	c-1.54,35.14-2.31,70.31-3.2,105.48c-0.43,16.83,1.4,33.94-1.08,50.43c-2.39,15.82,1.74,28.09,11.52,39.43
	c7.67,8.89,15.03,18.19,23.64,26.11c69.2,63.59,138.64,126.93,208.11,190.23c3.51,3.2,7.97,5.36,13.56,9.04
	c0.95-5.76,1.91-9.1,1.99-12.45c1.12-46.39,1.19-92.83,3.62-139.14c0.98-18.63-6.19-30-19.52-41.5
	c-46.79-40.38-92.72-81.76-138.89-122.87c-3.93-3.5-7.16-7.79-11.45-12.53c5.86-3.52,9.6-6.21,13.69-8.15
	c46.61-22.09,93.06-44.55,140.08-65.74c11.56-5.21,16.02-11.15,15.91-23.82c-0.24-26.99,1.59-53.99,2.02-81
	C684.02,255.41,683.71,230.14,683.71,203.88z M483.55,123.71c-37.14-0.05-66.27,28.76-66.22,65.48
	c0.05,36.42,30.15,66.3,66.45,65.96c35.77-0.33,65.25-29.8,65.46-65.44C549.46,152.87,520.49,123.76,483.55,123.71z"/>
<path class="st2" d="M1915.44,324.41c0-10.88,0.5-21.79-0.14-32.63c-0.65-11.01,3.08-15.77,14.78-15.32
	c18.89,0.72,37.84,0.65,56.74,0.02c11.04-0.37,15.4,3.06,15.36,14.71c-0.33,109.64-0.31,219.29-0.02,328.93
	c0.03,10.93-2.93,15.81-14.71,15.35c-18.89-0.74-37.86-0.83-56.74,0.03c-12.6,0.57-16.17-4.7-15.43-16.24
	c0.7-10.8,0.15-21.67,0.15-32.51c-1.49-0.36-2.99-0.72-4.48-1.08c-2.91,2.38-6.23,4.4-8.66,7.2
	c-62.45,72.22-187.32,65.1-244.93-25.23c-49.39-77.44-38.12-194.9,25.07-254.67c62.5-59.11,159.5-57.14,219.12,4.41
	c2.74,2.83,5.75,5.39,8.63,8.08C1911.94,325.11,1913.69,324.76,1915.44,324.41z M1815.03,564.75c45.86,0.01,82.89-25.91,93.74-70.18
	c5.06-20.64,5.77-43.44,3.21-64.64c-8.38-69.61-88.7-106.66-148.11-69.21c-40.81,25.73-50.98,65.48-47.25,110.22
	C1721.15,525.37,1763.02,564.74,1815.03,564.75z"/>
<path class="st2" d="M2799.94,635.3c-36.84,0-70.03,0.71-103.14-0.6c-6.57-0.26-14.28-7.13-19.01-12.94
	c-33.51-41.19-66.34-82.93-99.52-124.39c-3.95-4.93-8.68-9.23-16.07-17c-0.7,9.59-1.41,14.83-1.42,20.08
	c-0.09,39.8-0.43,79.61,0.17,119.41c0.19,12.16-3.98,16.23-15.97,15.72c-18.39-0.78-36.86-0.83-55.24,0.01
	c-12.45,0.57-15.68-4.45-15.61-16.12c0.39-71.95,0.19-143.91,0.19-215.86c0-77.06,0.28-154.12-0.26-231.17
	c-0.1-13.67,3.3-19.51,17.98-18.48c16.8,1.18,33.8,1.09,50.62,0.02c14.09-0.9,18.48,3.77,18.37,18.05
	c-0.63,79.09-0.32,158.19-0.27,237.29c0,5.86,0.49,11.73,0.75,17.59c2.19,1.53,4.39,3.07,6.58,4.6c2.94-5.18,5.28-10.83,8.92-15.46
	c33.81-42.92,67.54-85.9,102.16-128.16c4.67-5.7,14-10.38,21.35-10.65c31.65-1.16,63.36-0.49,98.85-0.49
	c-13.57,15.78-25.11,29.44-36.91,42.88c-36.71,41.84-73.23,83.85-110.5,125.19c-8.32,9.23-8.35,15.01-0.04,24.15
	c46.02,50.65,91.46,101.84,137.06,152.87C2791.99,625.21,2794.7,628.85,2799.94,635.3z"/>
<path class="st2" d="M2321.17,589.04c-7.25,6.89-10.7,10.33-14.32,13.58c-43.62,39.17-93.95,47.26-148.47,29.46
	c-53.16-17.35-81.78-57.07-88.48-110.63c-4.53-36.2-3.09-73.19-3.54-109.84c-0.5-40.29,0.14-80.6-0.28-120.89
	c-0.11-10.61,3.6-14.56,14.27-14.23c18.9,0.58,37.87,0.76,56.75-0.05c12.29-0.53,15.83,4.17,15.74,15.99
	c-0.45,58.15-0.45,116.3-0.01,174.45c0.1,13.15,1.26,26.61,4.26,39.38c9.87,41.99,45.04,65.52,89.71,61.21
	c43.65-4.21,73.71-35.49,74.14-79.06c0.63-64.27,0.59-128.55-0.09-192.82c-0.15-14.51,3.75-20.1,18.88-19.14
	c18.85,1.2,37.83,0.61,56.75,0.16c9.59-0.22,13.88,2.81,13.86,13.06c-0.22,110.69-0.2,221.39-0.01,332.08
	c0.02,9.66-3.08,13.9-13.26,13.66c-20.96-0.49-41.94-0.5-62.9,0c-10.32,0.25-13.57-4.27-13.11-13.8
	C2321.52,612.26,2321.17,602.87,2321.17,589.04z"/>
<path class="st2" d="M1318.05,318.5c3.99-3.61,7.9-7.31,11.99-10.81c48.46-41.46,103.4-48.18,160.34-23.62
	c53.26,22.98,76.95,68.73,78.2,124.96c1.55,69.85,0.3,139.75,0.84,209.63c0.09,12.36-3.35,17.52-16.44,16.84
	c-17.85-0.92-35.82-0.87-53.68-0.01c-12.65,0.61-16.86-3.69-16.75-16.49c0.54-61.2,0.47-122.42,0.02-183.62
	c-0.09-11.58-1.6-23.49-4.69-34.64c-10.87-39.2-41.87-58.55-88.52-56.43c-36.7,1.67-64.91,26.13-72.35,63.31
	c-1.78,8.92-2.88,18.13-2.92,27.21c-0.25,60.19-0.12,120.38-0.14,180.57c-0.01,19.84-0.04,19.85-20.57,19.87
	c-16.36,0.02-32.78-0.78-49.08,0.24c-13.81,0.87-17.41-4.56-17.34-17.67c0.45-90.79,0.23-181.59,0.23-272.38
	c0-17.85,0.41-35.72-0.13-53.55c-0.33-10.87,3.06-15.87,14.82-15.45c19.41,0.7,38.87,0.64,58.29,0.02
	c11.04-0.35,14.55,4.31,13.9,14.58c-0.54,8.55-0.11,17.15-0.11,25.74C1315.31,317.37,1316.68,317.93,1318.05,318.5z"/>
<path class="st2" d="M2944.88,329.34c11.4-11.46,21.09-25.86,34.61-33.65c18.61-10.73,39.97-16.86,60.45-24.13
	c8.11-2.88,12.3,1.51,12.22,10.33c-0.21,22.96-0.32,45.92,0.05,68.88c0.16,9.8-4.75,11.8-13.33,12.04
	c-13.22,0.37-26.69,0.52-39.55,3.21c-36.33,7.61-56.83,32.02-57.67,69c-1.33,58.61-1.8,117.24-2.45,175.86
	c-0.27,24.49-0.06,24.49-23.88,24.5c-16.37,0-32.75-0.33-49.1,0.12c-9.51,0.26-13.97-2.64-13.95-12.97
	c0.22-111.23,0.2-222.45,0.04-333.68c-0.01-9.47,4.13-12.44,13.04-12.28c19.94,0.34,39.91,0.52,59.84-0.06
	c10.97-0.32,14.47,4.37,14.07,14.61c-0.49,12.38-0.12,24.78-0.12,37.18C2941.06,328.63,2942.97,328.98,2944.88,329.34z"/>
<path class="st2" d="M3187.32,455.89c0,54.05-0.36,108.09,0.26,162.13c0.15,13.14-3.36,18.4-17.21,17.62
	c-18.86-1.05-37.82-0.54-56.72-0.17c-9.2,0.18-12.69-3.4-12.68-12.6c0.17-111.15,0.2-222.3-0.04-333.45
	c-0.02-10.43,4.58-13.09,13.99-12.88c18.91,0.41,37.85,0.69,56.73-0.09c12.06-0.5,16,3.72,15.89,15.78
	C3187.03,346.77,3187.31,401.33,3187.32,455.89z"/>
<path class="st2" d="M3145.25,123.39c29.93,0.22,51.56,22.55,51.21,52.87c-0.32,27.92-24.21,51.47-52.21,51.48
	c-28.23,0.01-52.39-24.55-52.34-53.23C3091.97,145.81,3115.59,123.17,3145.25,123.39z"/>
<path class="st3" d="M683.71,203.88c0,26.26,0.31,51.53-0.09,76.78c-0.43,27-2.26,54.01-2.02,81c0.11,12.67-4.35,18.61-15.91,23.82
	c-47.02,21.19-93.47,43.65-140.08,65.74c-4.09,1.94-7.83,4.63-13.69,8.15c4.29,4.74,7.52,9.03,11.45,12.53
	c46.16,41.11,92.09,82.49,138.89,122.87c13.32,11.5,20.49,22.87,19.52,41.5c-2.43,46.32-2.5,92.76-3.62,139.14
	c-0.08,3.35-1.04,6.69-1.99,12.45c-5.59-3.68-10.05-5.84-13.56-9.04c-69.47-63.3-138.91-126.63-208.11-190.23
	c-8.61-7.91-15.97-17.22-23.64-26.11c-9.78-11.34-13.91-23.61-11.52-39.43c2.49-16.49,0.66-33.6,1.08-50.43
	c0.89-35.16,1.67-70.34,3.2-105.48c0.8-18.32,13.17-30.54,25.96-41.66c44.11-38.36,96.27-63.44,148.6-88.01
	c24.49-11.5,49.69-21.51,74.66-32C675.45,204.36,678.63,204.57,683.71,203.88z"/>
<path class="st3" d="M483.55,123.71c36.93,0.05,65.91,29.16,65.69,66c-0.21,35.64-29.69,65.1-65.46,65.44
	c-36.3,0.34-66.4-29.55-66.45-65.96C417.28,152.47,446.42,123.66,483.55,123.71z"/>
</svg>
