<svg width="1444" height="540" viewBox="0 0 1444 540" fill="none" xmlns="http://www.w3.org/2000/svg">
<g clip-path="url(#clip0_1275_519)">
<path d="M832.207 1015C834.584 1017.78 836.564 1019.96 838.545 1022.14C837.951 1023.52 837.555 1024.51 836.96 1025.31C814.974 1050.27 787.64 1067.71 757.137 1080.19C732.774 1090.1 707.618 1094.26 681.275 1092.67C629.379 1089.5 592.538 1064.14 569.363 1017.98C552.527 984.491 544.01 948.431 539.058 911.38C532.522 863.035 527.372 814.492 520.241 766.346C514.299 725.134 507.168 683.922 490.728 645.484C477.259 614.179 457.848 587.629 425.958 572.175C418.828 568.807 415.461 570.986 413.678 577.921C398.228 637.757 378.619 696.405 352.869 752.675C320.781 823.408 278.592 887.208 219.764 938.524C178.169 974.783 131.027 1001.73 79.1317 1021.15C29.8115 1039.57 -21.0932 1050.47 -72.9884 1054.63C-129.439 1059.19 -186.088 1059.58 -242.737 1052.05C-288.096 1046.11 -332.267 1035.81 -374.258 1018.77C-424.569 998.36 -469.927 969.433 -507.958 929.608C-534.103 902.266 -555.891 871.951 -571.935 837.872C-588.375 802.803 -600.854 766.148 -604.617 727.314C-607.192 700.962 -611.352 674.214 -609.569 648.06C-607.192 614.378 -601.646 580.298 -593.129 547.606C-584.216 513.726 -571.737 480.637 -558.07 448.341C-539.649 404.95 -513.107 366.314 -483.396 329.858C-432.69 267.247 -371.089 217.318 -300.971 178.483C-256.404 153.915 -209.461 134.498 -159.943 121.223C-120.526 110.524 -80.7132 102.202 -40.1082 97.2487C5.64679 91.5028 51.2032 90.314 96.9582 92.8897C108.05 93.4841 120.133 94.673 129.838 99.6263C147.071 108.344 161.926 100.023 177.574 96.6543C200.947 91.701 224.122 85.3607 247.692 81.0017C326.526 66.1417 406.151 67.3305 485.776 68.9156C491.719 68.9156 498.453 67.1324 503.405 63.9622C554.904 30.8739 611.355 12.6456 672.163 7.69229C687.811 6.50349 703.261 4.72029 718.909 3.13522C724.455 2.54082 729.803 3.72962 728.614 10.268C728.02 13.6363 723.068 18.1934 719.503 18.9859C702.271 22.3542 684.444 22.9486 667.41 27.3075C634.53 35.431 606.403 52.8668 582.04 79.0204C593.33 81.5961 602.64 84.37 612.147 85.9551C677.313 97.4468 739.31 117.656 794.771 154.509C838.743 183.833 871.821 222.667 887.073 273.984C897.373 308.855 897.967 344.718 890.638 380.778C873.208 465.183 817.747 516.301 743.272 551.173C682.265 579.704 617.495 589.611 549.952 591.592C560.054 596.744 570.156 601.895 580.059 607.443C619.08 629.436 644.037 662.92 660.081 704.132C677.512 748.91 684.444 795.868 690.981 843.024C696.923 885.622 699.498 929.014 714.551 970.027C721.88 989.841 730.793 1009.06 750.6 1019.96C773.181 1032.24 796.157 1033.63 819.332 1021.34C823.293 1019.16 827.453 1017.58 832.603 1015.2L832.207 1015ZM175.396 118.647C181.338 123.6 184.705 125.78 187.478 128.752C198.57 140.442 210.851 151.339 219.962 164.416C244.523 199.882 252.248 240.499 252.644 282.9C253.238 345.51 238.185 404.554 212.831 461.418C189.459 513.527 158.559 560.683 117.756 600.706C89.2338 628.445 56.9478 651.032 19.3138 664.109C-14.7548 675.997 -49.6158 679.563 -86.0613 672.431C-126.27 664.703 -159.15 646.277 -183.315 613.189C-215.403 568.807 -218.968 518.084 -211.64 466.57C-202.33 401.384 -173.609 343.925 -133.203 292.212C-74.7709 217.714 -0.0974731 164.614 86.6586 127.761C95.9681 123.799 105.08 119.44 114.191 115.279C113.993 114.288 113.795 113.298 113.597 112.307C109.239 111.712 104.882 110.722 100.524 110.524C41.4982 106.759 -15.9435 114.486 -71.9983 134.3C-128.449 154.311 -179.156 184.427 -224.316 223.46C-316.421 303.109 -378.219 403.365 -417.24 517.688C-434.274 567.816 -444.772 619.529 -449.724 672.431C-456.062 741.579 -450.12 808.747 -424.371 873.536C-392.283 954.177 -335.237 1007.08 -249.868 1027.29C-168.262 1046.51 -88.4379 1038.38 -11.5855 1006.48C44.6673 983.302 89.0356 943.676 124.491 893.944C169.255 831.334 197.183 760.798 219.566 688.083C233.233 643.503 245.117 598.13 257.992 553.154C273.244 499.064 287.307 444.775 304.143 391.279C318.207 346.501 334.25 302.119 352.275 258.529C378.025 196.315 414.272 140.64 464.583 94.8711C466.167 93.4842 467.158 91.5028 470.129 87.7383C369.706 81.398 273.045 87.7383 175.593 118.647H175.396ZM227.687 257.737C226.102 247.632 224.122 230.196 220.358 213.157C213.029 179.474 194.609 153.122 165.888 133.507C157.569 127.761 149.844 126.572 140.733 130.139C79.5282 154.113 22.681 185.22 -26.0451 229.8C-75.7615 275.173 -114.584 327.876 -127.062 395.638C-134.193 434.67 -127.657 471.523 -97.3513 500.252C-73.9786 522.245 -44.4658 529.774 -13.5664 531.359C42.8845 534.331 91.8087 514.122 132.612 475.882C193.024 419.018 224.518 348.482 227.885 257.935L227.687 257.737ZM733.566 307.865C734.557 271.804 728.614 236.933 711.778 205.43C681.473 148.565 629.974 119.836 569.562 104.976C565.798 103.985 558.667 107.155 556.885 110.326C542.425 136.479 527.372 162.435 515.686 189.777C504.792 215.138 497.067 241.886 489.738 268.436C479.438 305.091 470.525 342.34 461.414 379.391C453.887 409.904 446.756 440.614 439.625 471.325C434.277 494.308 429.326 517.292 423.978 540.275C422.789 545.823 423.383 549.984 430.118 550.975C451.312 554.145 472.308 559.891 493.501 559.891C542.624 559.693 588.181 545.427 627.993 515.905C697.715 464.192 732.576 394.449 733.962 307.865H733.566Z" fill="white"/>
<path d="M2364.21 1282C2366.58 1284.78 2368.56 1286.96 2370.54 1289.14C2369.95 1290.52 2369.55 1291.51 2368.96 1292.31C2346.97 1317.27 2319.64 1334.71 2289.14 1347.19C2264.77 1357.1 2239.62 1361.26 2213.27 1359.67C2161.38 1356.5 2124.54 1331.14 2101.36 1284.98C2084.53 1251.49 2076.01 1215.43 2071.06 1178.38C2064.52 1130.04 2059.37 1081.49 2052.24 1033.35C2046.3 992.134 2039.17 950.922 2022.73 912.484C2009.26 881.179 1989.85 854.629 1957.96 839.175C1950.83 835.807 1947.46 837.986 1945.68 844.921C1930.23 904.757 1910.62 963.405 1884.87 1019.67C1852.78 1090.41 1810.59 1154.21 1751.76 1205.52C1710.17 1241.78 1663.03 1268.73 1611.13 1288.15C1561.81 1306.57 1510.91 1317.47 1459.01 1321.63C1402.56 1326.19 1345.91 1326.58 1289.26 1319.05C1243.9 1313.11 1199.73 1302.81 1157.74 1285.77C1107.43 1265.36 1062.07 1236.43 1024.04 1196.61C997.897 1169.27 976.109 1138.95 960.065 1104.87C943.625 1069.8 931.146 1033.15 927.383 994.314C924.808 967.962 920.648 941.214 922.431 915.06C924.808 881.378 930.354 847.298 938.871 814.606C947.784 780.726 960.263 747.637 973.93 715.341C992.351 671.95 1018.89 633.314 1048.6 596.858C1099.31 534.247 1160.91 484.318 1231.03 445.483C1275.6 420.915 1322.54 401.498 1372.06 388.223C1411.47 377.524 1451.29 369.202 1491.89 364.249C1537.65 358.503 1583.2 357.314 1628.96 359.89C1640.05 360.484 1652.13 361.673 1661.84 366.626C1679.07 375.344 1693.93 367.023 1709.57 363.654C1732.95 358.701 1756.12 352.361 1779.69 348.002C1858.53 333.142 1938.15 334.331 2017.78 335.916C2023.72 335.916 2030.45 334.132 2035.41 330.962C2086.9 297.874 2143.35 279.646 2204.16 274.692C2219.81 273.503 2235.26 271.72 2250.91 270.135C2256.45 269.541 2261.8 270.73 2260.61 277.268C2260.02 280.636 2255.07 285.193 2251.5 285.986C2234.27 289.354 2216.44 289.949 2199.41 294.308C2166.53 302.431 2138.4 319.867 2114.04 346.02C2125.33 348.596 2134.64 351.37 2144.15 352.955C2209.31 364.447 2271.31 384.656 2326.77 421.509C2370.74 450.833 2403.82 489.667 2419.07 540.984C2429.37 575.855 2429.97 611.718 2422.64 647.778C2405.21 732.183 2349.75 783.301 2275.27 818.173C2214.26 846.704 2149.5 856.611 2081.95 858.592C2092.05 863.744 2102.16 868.895 2112.06 874.443C2151.08 896.436 2176.04 929.92 2192.08 971.132C2209.51 1015.91 2216.44 1062.87 2222.98 1110.02C2228.92 1152.62 2231.5 1196.01 2246.55 1237.03C2253.88 1256.84 2262.79 1276.06 2282.6 1286.96C2305.18 1299.24 2328.16 1300.63 2351.33 1288.34C2355.29 1286.16 2359.45 1284.58 2364.6 1282.2L2364.21 1282ZM1707.4 385.647C1713.34 390.6 1716.7 392.78 1719.48 395.752C1730.57 407.442 1742.85 418.339 1751.96 431.416C1776.52 466.882 1784.25 507.499 1784.64 549.9C1785.24 612.51 1770.18 671.554 1744.83 728.418C1721.46 780.527 1690.56 827.683 1649.76 867.706C1621.23 895.445 1588.95 918.032 1551.31 931.109C1517.25 942.997 1482.38 946.563 1445.94 939.431C1405.73 931.703 1372.85 913.277 1348.68 880.189C1316.6 835.807 1313.03 785.084 1320.36 733.57C1329.67 668.384 1358.39 610.925 1398.8 559.212C1457.23 484.714 1531.9 431.614 1618.66 394.761C1627.97 390.799 1637.08 386.44 1646.19 382.279C1645.99 381.288 1645.79 380.298 1645.6 379.307C1641.24 378.712 1636.88 377.722 1632.52 377.524C1573.5 373.759 1516.06 381.486 1460 401.3C1403.55 421.311 1352.84 451.427 1307.68 490.46C1215.58 570.11 1153.78 670.365 1114.76 784.688C1097.73 834.816 1087.23 886.529 1082.28 939.431C1075.94 1008.58 1081.88 1075.75 1107.63 1140.54C1139.72 1221.18 1196.76 1274.08 1282.13 1294.29C1363.74 1313.51 1443.56 1305.38 1520.41 1273.48C1576.67 1250.3 1621.04 1210.68 1656.49 1160.94C1701.26 1098.33 1729.18 1027.8 1751.57 955.083C1765.23 910.503 1777.12 865.13 1789.99 820.154C1805.24 766.064 1819.31 711.775 1836.14 658.279C1850.21 613.501 1866.25 569.119 1884.27 525.529C1910.02 463.315 1946.27 407.64 1996.58 361.871C1998.17 360.484 1999.16 358.503 2002.13 354.738C1901.71 348.398 1805.05 354.738 1707.59 385.647H1707.4ZM1759.69 524.737C1758.1 514.632 1756.12 497.196 1752.36 480.157C1745.03 446.474 1726.61 420.122 1697.89 400.507C1689.57 394.761 1681.84 393.572 1672.73 397.139C1611.53 421.113 1554.68 452.22 1505.95 496.8C1456.24 542.173 1417.42 594.876 1404.94 662.638C1397.81 701.67 1404.34 738.523 1434.65 767.252C1458.02 789.245 1487.53 796.774 1518.43 798.359C1574.88 801.331 1623.81 781.122 1664.61 742.882C1725.02 686.018 1756.52 615.482 1759.88 524.935L1759.69 524.737ZM2265.57 574.865C2266.56 538.804 2260.61 503.933 2243.78 472.43C2213.47 415.565 2161.97 386.836 2101.56 371.976C2097.8 370.985 2090.67 374.155 2088.88 377.326C2074.43 403.479 2059.37 429.435 2047.69 456.777C2036.79 482.138 2029.07 508.886 2021.74 535.436C2011.44 572.091 2002.52 609.34 1993.41 646.391C1985.89 676.904 1978.76 707.614 1971.63 738.325C1966.28 761.308 1961.33 784.292 1955.98 807.275C1954.79 812.823 1955.38 816.984 1962.12 817.975C1983.31 821.145 2004.31 826.891 2025.5 826.891C2074.62 826.693 2120.18 812.427 2159.99 782.905C2229.72 731.192 2264.58 661.449 2265.96 574.865H2265.57Z" fill="white"/>
</g>
<defs>
<clipPath id="clip0_1275_519">
<rect width="1444" height="540" fill="white"/>
</clipPath>
</defs>
</svg>
